<svg xmlns="http://www.w3.org/2000/svg" xmlns:xlink="http://www.w3.org/1999/xlink"><defs><clipPath id="clip0"><path fill="white" d="M0 0h32v32H0z"/></clipPath><clipPath id="clip1"><path fill="white" d="M0 0h32v32H0z"/></clipPath></defs><symbol id="icon-arrow-left"><path d="M22.558 9.315a1.716 1.716 0 00-.298-.022H5.33l.37-.171c.36-.171.688-.404.97-.687l4.747-4.748c.626-.597.73-1.557.25-2.275a1.717 1.717 0 00-2.576-.224L.504 9.774a1.717 1.717 0 00-.002 2.429l.002.001L9.09 20.79a1.717 1.717 0 002.575-.172 1.777 1.777 0 00-.249-2.275l-4.74-4.757a3.433 3.433 0 00-.858-.626l-.515-.232h16.863a1.777 1.777 0 001.812-1.443 1.717 1.717 0 00-1.42-1.97z" fill="white"/></symbol><symbol id="icon-buy"><g clip-path="url(#clip0)"><g clip-path="url(#clip1)" fill="white"><path d="M27.975 7.394h-3.463A8.63 8.63 0 0015.975.05a8.624 8.624 0 00-8.531 7.344H3.98c-.844 0-1.531.687-1.531 1.53V30.47c0 .843.687 1.53 1.531 1.53h11.775c.844 0 1.532-.687 1.532-1.53 0-.844-.688-1.532-1.532-1.532H5.506v-18.48h1.838v3.368c0 .844.687 1.531 1.53 1.531.845 0 1.532-.687 1.532-1.531v-3.369h11.138v3.369c0 .844.687 1.531 1.53 1.531.845 0 1.532-.687 1.532-1.531v-3.369h1.838v7.163c0 .843.687 1.53 1.53 1.53.845 0 1.532-.687 1.532-1.53V8.925c0-.844-.687-1.531-1.531-1.531zm-15.606-2.95a5.546 5.546 0 013.612-1.332A5.57 5.57 0 0121.4 7.393H10.556a5.628 5.628 0 011.813-2.95z"/><path d="M29.75 26.625c0 .988-.8 1.794-1.794 1.794h-1.793v1.794a1.794 1.794 0 01-3.588 0v-1.794h-1.794a1.794 1.794 0 010-3.588h1.794v-1.793a1.794 1.794 0 113.588 0v1.793h1.793c.994 0 1.794.807 1.794 1.794z"/></g></g></symbol><symbol id="icon-car" viewBox="0 0 48 48">
<path fill-rule="evenodd" clip-rule="evenodd" d="M47.6824 25.5176L44.8616 21.8846L44.8643 21.8832L40.3266 12.8581C40.0694 12.3474 39.5466 12.0251 38.9748 12.0251H32.521V10.5126C32.521 9.67706 31.8439 9 31.0085 9H5.79835C4.96285 9 4.28579 9.67716 4.28579 10.5126C4.28579 11.348 4.96295 12.0251 5.79835 12.0251H29.4958V22.6133C29.4958 23.4488 30.173 24.1259 31.0084 24.1259H42.7719L44.9748 26.9635V34.7646H42.1239C41.4682 32.1325 39.0843 30.1765 36.2521 30.1765C33.4198 30.1765 31.0358 32.1326 30.3802 34.7649H21.4517C20.7961 32.1326 18.4122 30.1765 15.5798 30.1765C12.7475 30.1765 10.3636 32.1326 9.70798 34.7649H5.79835C4.96285 34.7649 4.28579 35.442 4.28579 36.2775C4.28579 37.113 4.96295 37.79 5.79835 37.79H9.73407C10.4248 40.3711 12.7839 42.2774 15.5798 42.2774C18.3758 42.2774 20.7348 40.3712 21.4256 37.7901H30.4063C31.0971 40.3712 33.4561 42.2774 36.2521 42.2774C39.0487 42.2774 41.4075 40.371 42.098 37.7897H46.4874C47.3229 37.7897 47.9999 37.1125 48 36.2771V26.4454C48 26.1096 47.8881 25.7828 47.6824 25.5176ZM38.042 15.0504L41.0839 21.1008H32.521V15.0504H38.042ZM15.5798 39.2522C13.9115 39.2522 12.5546 37.8953 12.5546 36.227C12.5546 34.5586 13.9115 33.2017 15.5798 33.2017C17.2477 33.2017 18.6051 34.5586 18.6051 36.227C18.6051 37.8954 17.2482 39.2522 15.5798 39.2522ZM36.2521 39.2522C34.5837 39.2522 33.2269 37.8953 33.2269 36.227C33.2269 34.5586 34.5837 33.2017 36.2521 33.2017C37.9205 33.2017 39.2773 34.5586 39.2773 36.227C39.2773 37.8954 37.9205 39.2522 36.2521 39.2522ZM3.98316 27.1011H10.9412C11.7766 27.1011 12.4538 27.7782 12.4537 28.6136C12.4537 29.449 11.7766 30.1262 10.9411 30.1262H3.98316C3.14775 30.1262 2.4706 29.4491 2.4706 28.6136C2.4706 27.7782 3.14766 27.1011 3.98316 27.1011ZM14.4202 21.1511H1.51256C0.677156 21.1511 0 21.8283 0 22.6638C0 23.4993 0.677156 24.1763 1.51256 24.1763H14.4202C15.2557 24.1763 15.9327 23.4992 15.9327 22.6638C15.9327 21.8284 15.2557 21.1511 14.4202 21.1511ZM3.98316 15.2019H16.8908C17.7263 15.2019 18.4034 15.8791 18.4033 16.7145C18.4033 17.5499 17.7263 18.227 16.8908 18.227H3.98316C3.14775 18.227 2.4706 17.55 2.4706 16.7145C2.4706 15.8791 3.14766 15.2019 3.98316 15.2019Z" fill="#696871"/>
</symbol><symbol id="icon-chat"><path d="M9.5 0C4.262 0 0 3.835 0 8.55c0 1.648.521 3.244 1.51 4.625-.187 2.07-.689 3.606-1.417 4.334a.317.317 0 00.268.538c.128-.018 3.107-.447 5.262-1.69 1.224.493 2.527.743 3.877.743 5.238 0 9.5-3.836 9.5-8.55C19 3.835 14.738 0 9.5 0zM5.067 9.817A1.268 1.268 0 013.8 8.55a1.268 1.268 0 012.533 0c0 .699-.568 1.267-1.266 1.267zm4.433 0A1.268 1.268 0 018.233 8.55a1.268 1.268 0 012.533 0c0 .699-.567 1.267-1.266 1.267zm4.433 0a1.268 1.268 0 01-1.266-1.267c0-.699.568-1.267 1.266-1.267a1.268 1.268 0 010 2.533z" fill="white"/></symbol><symbol id="icon-clean-hand" viewBox="0 0 56 56">
<path d="M48.127 13.9962C46.5094 13.9962 45.0037 14.4866 43.7516 15.3263V6.99555C43.7516 2.96012 39.38 0.465048 35.9233 2.41845C33.4422 -1.4493 27.6053 -0.466584 26.4325 3.86375C23.2113 2.58405 19.644 4.74157 19.2792 8.18118C15.8473 6.94064 12.2488 9.49992 12.2488 13.1211V30.766C12.2488 31.7325 13.0323 32.5162 13.9989 32.5162C14.9656 32.5162 15.7491 31.7325 15.7491 30.766V13.1211C15.7491 12.6533 15.931 12.2137 16.2615 11.8833C17.361 10.784 19.2494 11.5724 19.2494 13.1211V24.4972C19.2494 25.4637 20.0329 26.2473 20.9996 26.2473C21.9662 26.2473 22.7497 25.4637 22.7497 24.4972C22.7497 22.8539 22.7497 10.4496 22.7497 8.74571C22.7497 8.27787 22.9317 7.83826 23.2621 7.50791C24.3616 6.40859 26.2501 7.19704 26.2501 8.74571V24.4972C26.2501 25.4637 27.0336 26.2473 28.0002 26.2473C28.9669 26.2473 29.7504 25.4637 29.7504 24.4972C29.7504 22.3463 29.7504 7.60286 29.7504 5.24539C29.7504 4.77755 29.9323 4.33793 30.2627 4.00759C31.3623 2.90827 33.2507 3.69672 33.2507 5.24539V24.4972C33.2507 25.4637 34.0342 26.2473 35.0009 26.2473C35.9675 26.2473 36.751 25.4637 36.751 24.4972V6.99555C36.751 6.52771 36.9329 6.0881 37.2634 5.75775C38.3629 4.65843 40.2514 5.44688 40.2514 6.99555V29.8575C34.2989 30.6016 29.1283 35.0881 28.0241 41.711C27.8462 42.7779 28.6689 43.7493 29.7526 43.7493C30.5925 43.7493 31.3341 43.1426 31.4768 42.2867C32.4003 36.7435 36.9746 33.2481 42.0016 33.2481C42.9683 33.2481 43.7518 32.4644 43.7518 31.4979V21.872C43.7518 19.4594 45.7146 17.4966 48.1272 17.4966C48.6097 17.4966 49.0023 17.8892 49.0023 18.3717V35.8733C49.0023 45.0605 41.567 52.4998 32.3757 52.4998C28.6358 52.4998 25.1039 51.2873 22.1625 48.9933C21.4 48.3988 20.3006 48.535 19.706 49.297C19.1116 50.0592 19.2477 51.159 20.0098 51.7534C23.5722 54.5316 27.8483 56 32.3757 56C43.4974 56 52.5026 46.9997 52.5026 35.8732V18.3716C52.5024 15.959 50.5395 13.9962 48.127 13.9962Z" fill="white"/>
<path d="M24.4997 44.624C24.4997 43.6575 23.7162 42.8738 22.7496 42.8738C18.887 42.8738 15.7489 39.7485 15.7489 35.8732C15.7489 34.9067 14.9654 34.123 13.9988 34.123C13.0321 34.123 12.2486 34.9067 12.2486 35.8732C12.2486 39.7347 9.1238 42.8738 5.24796 42.8738C4.28133 42.8738 3.4978 43.6575 3.4978 44.624C3.4978 45.5905 4.28133 46.3742 5.24796 46.3742C9.10816 46.3742 12.2486 49.5146 12.2486 53.3748C12.2486 54.3413 13.0321 55.125 13.9988 55.125C14.9654 55.125 15.7489 54.3413 15.7489 53.3748C15.7489 49.5135 18.8736 46.3742 22.7496 46.3742C23.7162 46.3742 24.4997 45.5906 24.4997 44.624ZM13.9949 47.5702C13.2194 46.4054 12.2172 45.4033 11.0525 44.6277C12.214 43.8543 13.223 42.8468 13.9989 41.6834C14.7693 42.8388 15.7747 43.8476 16.9395 44.6241C15.7787 45.3981 14.7696 46.4068 13.9949 47.5702Z" fill="white"/>&gt;
</symbol><symbol id="icon-close"><path d="M14.199 12.02l9.345-9.346a1.553 1.553 0 000-2.198 1.553 1.553 0 00-2.199 0L12 9.82 2.655.476a1.553 1.553 0 00-2.199 0 1.553 1.553 0 000 2.198l9.345 9.346-9.345 9.345a1.553 1.553 0 001.1 2.654 1.55 1.55 0 001.099-.455L12 14.218l9.345 9.346a1.55 1.55 0 002.199 0 1.553 1.553 0 000-2.199l-9.345-9.345z" fill="#5454D4"/></symbol><symbol id="icon-cycle" viewBox="0 0 56 56">
<path d="M55.3025 18.1993C54.3129 16.0821 52.5579 14.4768 50.361 13.6795C48.4468 12.9847 46.3968 12.9762 44.5004 13.6401C42.6414 11.5092 40.3661 9.73334 37.8507 8.46287C34.7794 6.91174 31.466 6.12524 28.0025 6.12524C25.73 6.12524 23.4901 6.47261 21.3452 7.1575C20.4246 7.4515 19.9166 8.43629 20.2106 9.35688C20.5046 10.2775 21.4895 10.7855 22.41 10.4915C24.2101 9.91654 26.0917 9.62506 28.0024 9.62506C33.1673 9.62506 37.9733 11.7358 41.4423 15.4704C40.4236 16.4076 39.6366 17.5807 39.1508 18.9192C38.3533 21.1162 38.4593 23.4921 39.449 25.6094C40.955 28.8311 47.2124 32.3591 49.8329 33.7264C50.3433 33.9928 50.8964 34.1264 51.4506 34.1264C51.9544 34.1264 52.4591 34.0158 52.9334 33.7942C53.9291 33.3288 54.635 32.446 54.8699 31.3721C55.5017 28.4848 56.8083 21.4211 55.3025 18.1993ZM51.452 30.6236C46.9389 28.2687 43.3069 25.5974 42.6199 24.1274C42.0261 22.8571 41.9625 21.4315 42.4409 20.1133C42.6952 19.4128 43.0875 18.7882 43.589 18.2665C44.4 19.5615 45.0442 20.9478 45.5095 22.4066C45.7467 23.1505 46.435 23.6253 47.1763 23.6253C47.3525 23.6253 47.5317 23.5985 47.7085 23.5421C48.6292 23.2484 49.1377 22.2638 48.844 21.3431C48.3233 19.7104 47.6153 18.1539 46.7312 16.693C47.544 16.5915 48.3749 16.6819 49.167 16.9694C50.4852 17.4478 51.5381 18.411 52.1319 19.6812C52.8189 21.1513 52.5389 25.6512 51.452 30.6236Z" fill="white"/>
<path d="M45.0359 38.8619C44.2693 38.273 43.1709 38.4172 42.5821 39.1836C39.0715 43.7535 33.7575 46.3745 28.0025 46.3745C20.1286 46.3745 13.1091 41.2457 10.6061 33.926C10.9877 33.8426 11.3663 33.7336 11.7397 33.5981C13.9367 32.8007 15.6916 31.1955 16.6812 29.0783C18.1871 25.8565 16.8804 18.7929 16.2486 15.9054C16.0137 14.8315 15.3079 13.9487 14.3122 13.4833C13.3164 13.0178 12.1863 13.0426 11.2117 13.5511C8.59122 14.9184 2.33379 18.4464 0.827834 21.6682C-0.161879 23.7854 -0.267752 26.1614 0.529575 28.3583C1.3269 30.5551 2.93205 32.3101 5.0494 33.2999C5.66331 33.5867 6.29898 33.7987 6.94559 33.9366C8.16236 38.248 10.7117 42.1354 14.2149 44.9828C18.0959 48.1371 22.9923 49.8744 28.0023 49.8744C31.459 49.8744 34.7666 49.0907 37.8333 47.5454C40.7565 46.0724 43.3583 43.9182 45.3574 41.3158C45.9464 40.5493 45.8023 39.4506 45.0359 38.8619ZM3.81961 27.1644C3.34122 25.8462 3.40476 24.4207 3.99855 23.1503C4.68563 21.6803 8.31756 19.009 12.8296 16.6536C13.9177 21.6266 14.1977 26.1264 13.5106 27.5964C12.9168 28.8668 11.8639 29.8299 10.5457 30.3083C10.3002 30.3974 10.0509 30.4675 9.79967 30.5192C9.68571 29.6868 9.62796 28.8441 9.62796 28C9.62796 27.1999 9.68013 26.3925 9.78294 25.6002C9.9073 24.6418 9.23115 23.764 8.27272 23.6396C7.31418 23.5152 6.43646 24.1913 6.31211 25.1498C6.18994 26.0909 6.12803 27.0499 6.12803 28C6.12803 28.6576 6.1591 29.3145 6.21761 29.9681C5.10299 29.3548 4.25765 28.3713 3.81961 27.1644Z" fill="white"/>
</symbol><symbol id="icon-dog" viewBox="0 0 56 56">
<path d="M53.6755 15.9963C51.8933 12.9958 49.3896 10.1417 47.6991 8.64436C44.0088 5.37482 40.9305 5.45444 39.4236 5.79306C38.7905 5.93536 38.2092 6.16997 37.6974 6.48289C35.0682 4.53175 31.8696 3.57593 28 3.57593C24.1303 3.57593 20.9316 4.53175 18.3025 6.483C17.7906 6.17008 17.2094 5.93536 16.5763 5.79317C15.0699 5.45466 11.9911 5.37492 8.30101 8.64436C6.6104 10.1418 4.10681 12.9959 2.32444 15.9964C-0.0885862 20.0587 -0.626054 23.3449 0.726912 25.7639C2.37891 28.7174 4.88469 29.4731 6.90757 29.6595C6.41035 31.5905 6.10334 33.6563 6.10334 36.2302C6.10334 39.6419 6.8799 42.5771 8.41169 44.9543C9.75821 47.0442 11.6968 48.7177 14.1734 49.9284C18.7495 52.1652 24.2562 52.4239 28.0001 52.4239C31.744 52.4239 37.2508 52.1652 41.8267 49.9284C44.3032 48.7177 46.2419 47.0442 47.5884 44.9543C49.1201 42.577 49.8968 39.6418 49.8968 36.2302C49.8968 33.6564 49.5898 31.5906 49.0926 29.6595C51.1154 29.473 53.6213 28.7171 55.2732 25.7638C56.626 23.345 56.0884 20.0587 53.6755 15.9963ZM7.97102 26.2834C6.18078 26.2364 4.725 25.8898 3.71864 24.0907C3.03592 22.87 3.60194 20.5578 5.27176 17.7467C6.85649 15.0788 9.13116 12.4881 10.574 11.2099C12.9569 9.09848 14.7432 8.98221 15.5836 9.09476C13.0825 12.1437 11.5495 16.1061 10.2676 19.9586C9.73666 21.554 9.22501 22.916 8.72998 24.2334C8.46529 24.9382 8.21066 25.6162 7.97102 26.2834ZM25.7638 37.5217C24.8771 36.6354 24.413 35.7051 24.413 35.2442C24.413 34.8326 24.4836 34.8031 24.7457 34.6927C25.4931 34.3783 26.9609 34.342 28 34.342C29.039 34.342 30.5068 34.3783 31.2542 34.6927C31.5164 34.803 31.5869 34.8327 31.5869 35.2442C31.5869 35.7051 31.1229 36.6353 30.2361 37.5217C29.3641 38.3932 28.4332 38.8634 27.9998 38.8634C27.5665 38.8634 26.6358 38.3932 25.7638 37.5217ZM40.3214 46.849C37.6908 48.1347 34.2085 48.832 29.7139 48.9702V41.949C31.0596 41.4297 32.1555 40.4497 32.6593 39.9462C33.3675 39.2385 35.0147 37.3633 35.0147 35.2443C35.0147 33.5108 34.1513 32.1929 32.5835 31.5333C31.5386 31.0936 30.2105 30.9143 28.0001 30.9143C25.7896 30.9143 24.4616 31.0936 23.4165 31.5333C21.8488 32.1929 20.9853 33.5107 20.9853 35.2443C20.9853 37.3633 22.6326 39.2383 23.3407 39.9462C23.8445 40.4498 24.9405 41.4298 26.2862 41.949V48.9702C21.7915 48.8322 18.3092 48.1349 15.6787 46.849C11.5419 44.8268 9.53093 41.3534 9.53093 36.2302C9.53093 31.8473 10.5409 29.1592 11.9386 25.4389C12.4213 24.1542 12.9681 22.6982 13.5197 21.0409C16.5494 11.937 19.7543 7.00362 28 7.00362C36.2456 7.00362 39.4505 11.9371 42.4801 21.0409C43.0316 22.6984 43.5786 24.1542 44.0612 25.4389C45.4589 29.1592 46.4689 31.8472 46.4689 36.2302C46.469 41.3534 44.458 44.8268 40.3214 46.849ZM52.2815 24.0907C51.275 25.89 49.8192 26.2363 48.029 26.2834C47.7892 25.616 47.5348 24.9382 47.2701 24.2334C46.7752 22.9161 46.2636 21.554 45.7326 19.9586C44.4506 16.1061 42.9176 12.1437 40.4165 9.09476C41.2569 8.98243 43.0434 9.09848 45.4263 11.21C46.8692 12.488 49.1437 15.0785 50.7285 17.7465C52.3982 20.5578 52.9642 22.8701 52.2815 24.0907Z" fill="white"/>
<path d="M22.2961 21.7935C21.0561 21.7935 20.0469 22.8129 20.0469 24.0717C20.0469 25.3304 21.056 26.3508 22.2961 26.3508C23.5377 26.3508 24.5467 25.3303 24.5467 24.0717C24.5467 22.8129 23.5377 21.7935 22.2961 21.7935Z" fill="white"/>
<path d="M33.6869 21.7756C32.4348 21.7756 31.4192 22.8036 31.4192 24.0717C31.4192 25.3398 32.4348 26.3678 33.6869 26.3678C34.9374 26.3678 35.953 25.3398 35.953 24.0717C35.9531 22.8036 34.9374 21.7756 33.6869 21.7756Z" fill="white"/>
</symbol><symbol id="icon-drops" viewBox="0 0 56 56">
<path d="M41.2708 5.27704C40.3713 4.42426 38.962 4.42426 38.0614 5.27704C37.9389 5.39268 35.5309 7.68272 32.6946 10.9235C28.1703 5.17792 24.0403 0.885518 23.8443 0.682719C22.9648 -0.225891 21.3663 -0.22703 20.4879 0.683858C18.3915 2.85598 0 22.2416 0 33.8045C0 46.0278 9.94344 55.9712 22.1667 55.9712C30.4159 55.9712 37.9577 51.3672 41.7516 44.1542C49.8471 43.139 56 36.2917 56 27.9712C56 19.4776 42.7793 6.70518 41.2708 5.27704ZM22.1667 51.3046C12.5172 51.3046 4.66667 43.454 4.66667 33.8045C4.66667 26.3596 16.0639 12.3796 22.161 5.72137C24.1069 7.85647 27.4725 11.6823 30.7418 16.0362C38.1183 25.884 39.6667 31.134 39.6667 33.8045C39.6667 36.327 39.1466 38.7384 38.1104 40.9937C35.2996 47.2571 29.043 51.3046 22.1667 51.3046ZM43.7443 38.9064C43.7665 38.8107 43.7825 38.7127 43.8035 38.617C43.8258 38.5156 43.8457 38.4125 43.8668 38.31C44.0081 37.631 44.1208 36.9451 44.1966 36.2484C44.2052 36.1738 44.2086 36.0969 44.2166 36.0222C44.2889 35.2908 44.3333 34.5525 44.3333 33.8045C44.3333 33.5009 44.3202 33.1922 44.2974 32.876C44.2889 32.7718 44.2741 32.6635 44.2633 32.5587C44.2422 32.3439 44.2211 32.128 44.1886 31.9076C44.1698 31.7777 44.1431 31.6438 44.1197 31.5117C44.085 31.3089 44.0508 31.1072 44.0081 30.8993C43.9773 30.7546 43.9391 30.6053 43.9049 30.4584C43.8571 30.2567 43.8104 30.0562 43.7557 29.8505C43.7141 29.6956 43.6646 29.5366 43.6195 29.3783C43.5586 29.1738 43.4993 28.9698 43.4316 28.7608C43.378 28.5967 43.3182 28.4287 43.2601 28.2606C43.1877 28.0515 43.1143 27.8425 43.0339 27.6306C42.9684 27.4579 42.8984 27.2814 42.8283 27.1065C42.7423 26.8917 42.6545 26.6747 42.5611 26.4553C42.4854 26.2759 42.405 26.0953 42.323 25.9119C42.2239 25.6903 42.1225 25.4664 42.0165 25.2397C41.9288 25.0534 41.8376 24.8643 41.7442 24.674C41.6326 24.4456 41.5169 24.2132 41.3967 23.9802C41.2976 23.7865 41.1962 23.5905 41.0925 23.3928C40.9678 23.1576 40.8368 22.9183 40.7052 22.6768C40.5941 22.4763 40.4824 22.274 40.3668 22.0701C40.2278 21.8251 40.0819 21.5756 39.935 21.3255C39.8136 21.1193 39.6934 20.9137 39.5675 20.7052C39.4137 20.4494 39.2514 20.1896 39.0902 19.9293C38.9597 19.718 38.8304 19.5083 38.6937 19.2947C38.5245 19.0287 38.3473 18.7569 38.1696 18.4863C38.0289 18.2704 37.8899 18.0568 37.7441 17.8375C37.5595 17.5624 37.3658 17.2798 37.1744 16.9995C37.0229 16.7779 36.8748 16.5586 36.7187 16.3336C36.5204 16.0488 36.3114 15.7571 36.1046 15.4677C35.9428 15.2393 35.785 15.0143 35.6169 14.783C35.6033 14.763 35.5902 14.7448 35.5754 14.7249C37.1305 12.9059 38.6145 11.3354 39.6769 10.2485C44.7372 15.3851 51.3333 23.5563 51.3333 27.9712C51.3333 32.9899 48.1996 37.2635 43.7443 38.9064Z" fill="white"/>
<path d="M29.2658 28.6541C28.355 29.5649 28.355 31.0432 29.2658 31.9535C29.9261 32.6138 30.2901 33.4933 30.2901 34.4276C30.2901 35.3635 29.9261 36.2431 29.2647 36.9033C28.3538 37.8148 28.3538 39.293 29.2647 40.2028C29.721 40.6591 30.3169 40.8864 30.9144 40.8864C31.5115 40.8864 32.109 40.6591 32.5653 40.2028C34.1074 38.6607 34.9568 36.6094 34.9568 34.4276C34.9568 32.2463 34.1074 30.195 32.5653 28.6541C31.655 27.7426 30.1784 27.7426 29.2658 28.6541Z" fill="white"/>
</symbol><symbol id="icon-hand" viewBox="0 0 56 56">
<path d="M50.8781 26.1253L49.0037 24.2509V1.74998C49.0037 0.783552 48.2203 0 47.2537 0H1.75437C0.787946 0 0.00439453 0.783552 0.00439453 1.74998V50.7493C0.00439453 51.7157 0.787946 52.4993 1.75437 52.4993H28.0003C34.7282 57.569 44.5302 57.2214 50.8781 50.8737C57.7012 44.0505 57.7012 32.9484 50.8781 26.1253ZM3.50435 3.49995H45.5038V20.751L44.0722 19.3194C41.8356 17.0828 37.8176 17.7336 36.4445 21.591L30.6926 15.8393C28.3695 13.5162 24.5128 14.1657 23.0261 17.0094C21.1749 15.852 18.616 16.0569 16.9739 17.8059C15.442 19.4375 15.309 21.8399 16.4055 23.6322C13.8709 24.9544 13.1183 28.0986 14.5493 30.4381C11.6268 31.9628 11.1144 35.8588 13.414 38.1581L24.2553 48.9993H3.50435V3.49995ZM48.4033 48.3989C42.9228 53.8794 34.0656 53.8601 28.6045 48.3989L15.8889 35.6832C15.3681 35.1624 15.3342 34.3235 15.8134 33.8131C16.3252 33.2679 17.1772 33.26 17.6993 33.7813L24.8923 40.9744C25.5757 41.6577 26.6838 41.6577 27.3671 40.9744C28.0506 40.2909 28.0506 39.1829 27.3671 38.4995C25.6141 36.7464 18.9068 30.0391 17.7451 28.8774C16.9019 28.0343 17.4256 26.6105 18.6077 26.5919C18.9553 26.5879 19.2792 26.7091 19.5565 26.9766L29.2234 36.6435C29.5651 36.9853 30.013 37.1561 30.4608 37.1561C32.0057 37.1561 32.804 35.2744 31.6981 34.1688C29.3656 31.8363 33.6664 36.1373 19.6012 22.0718C19.0803 21.551 19.0464 20.7121 19.5256 20.2017C20.0379 19.6562 20.8909 19.6492 21.4122 20.1704C45.6542 44.4124 24.63 23.3881 33.5544 32.3125C34.2376 32.9959 35.3458 32.996 36.0292 32.3125C36.7127 31.6292 36.7127 30.5211 36.0292 29.8377L26.3624 20.171C25.8662 19.6925 25.834 18.8421 26.3619 18.3143C26.8739 17.8025 27.7064 17.8026 28.2181 18.3143C41.2938 31.39 26.9217 17.0176 42.2163 32.3125C42.558 32.6543 43.0058 32.8252 43.4537 32.8252C44.9988 32.8252 45.7967 30.9433 44.691 29.8379C44.4194 29.5663 40.0839 25.2306 40.3601 25.5068C39.3343 24.4812 39.3339 22.8206 40.3602 21.7945C40.6843 21.4702 41.2371 21.4344 41.5975 21.7945C48.4251 28.6222 47.5469 27.7439 48.4034 28.6004C53.8618 34.0586 53.8618 42.9404 48.4033 48.3989Z" fill="white"/>
</symbol><symbol id="icon-instagram"><path fill-rule="evenodd" clip-rule="evenodd" d="M14.438 0H6.561A6.563 6.563 0 000 6.563v7.875A6.563 6.563 0 006.563 21h7.875A6.563 6.563 0 0021 14.437V6.564A6.563 6.563 0 0014.437 0zM10.5 5.25a5.25 5.25 0 100 10.5 5.25 5.25 0 000-10.5zm0 8.531A3.286 3.286 0 017.219 10.5 3.285 3.285 0 0110.5 7.219a3.285 3.285 0 013.281 3.281 3.286 3.286 0 01-3.281 3.281zM18 4.5a1.5 1.5 0 11-3 0 1.5 1.5 0 013 0z" fill="white"/></symbol><symbol id="icon-logo"><path d="M31.186 14.236C30.476 6.656 24.238.498 16.58.024 12.238-.213 8.053 1.288 4.895 4.21 1.737 7.13 0 11.315 0 15.657c0 1.421.237 2.842.553 4.263.158.632.631 1.106 1.342 1.263.158.08.316.08.474.08.473 0 .947-.158 1.342-.553.473-.474.631-1.184.473-1.816-.394-1.421-.552-2.842-.394-4.263.552-6 5.684-10.817 11.685-10.975a11.964 11.964 0 018.684 3.395c2.29 2.29 3.632 5.29 3.632 8.527 0 1.105-.158 2.21-.474 3.237-.157.632 0 1.342.474 1.816s1.105.631 1.816.474c.632-.158 1.105-.632 1.342-1.264.237-1.737.395-3.632.237-5.605z" fill="#5454D4"/><path d="M24.712 21.815c-1.342 0-2.921-.316-3.395-1.184-.237-.553 0-1.105.316-1.5 1.026-1.421 1.579-3.08 1.579-4.658 0-4.185-3.395-7.659-7.58-7.659-4.184 0-7.579 3.395-7.579 7.659 0 1.579.553 3.237 1.58 4.658.236.395.552.947.315 1.5-.474.868-2.053 1.184-3.395 1.184A2.662 2.662 0 003.869 24.5c0 1.5 1.184 2.684 2.684 2.684.71 0 1.58-.158 2.448-.395-.158.158-.316.237-.553.395-1.026.79-1.421 1.974-.869 3.158.316.71.869 1.263 1.58 1.5.631.237 1.342.158 1.973-.158 1.737-.947 2.921-2.526 3.79-3.71.237-.316.553-.711.71-.948.237.237.474.632.711.948.869 1.184 1.974 2.763 3.79 3.71.316.158.71.316 1.105.316.316 0 .553-.079.869-.158.71-.237 1.342-.79 1.579-1.5.473-1.184.158-2.447-.869-3.158-.158-.158-.316-.237-.552-.395.868.237 1.736.395 2.447.395 1.5 0 2.684-1.184 2.684-2.684 0-1.5-1.184-2.685-2.684-2.685zM12.238 13.92a.54.54 0 01-.553.553.54.54 0 01-.553-.553v-1.026a.54.54 0 01.553-.553.54.54 0 01.553.553v1.026zm5.053.79c0 .947-.79 1.736-1.816 1.736-.948 0-1.658-.868-1.658-1.815v-1.264c0-.237.236-.473.473-.473h2.527a.51.51 0 01.474.473v1.342zm2.684-.79a.54.54 0 01-.553.553.54.54 0 01-.552-.553v-1.026a.54.54 0 01.552-.553.54.54 0 01.553.553v1.026z" fill="#5454D4"/><path d="M56.214 24.184c-1.579 1.737-3.79 2.605-6.553 2.605s-4.974-.868-6.553-2.605c-1.58-1.737-2.448-4.185-2.448-7.264 0-3.079.79-5.527 2.448-7.263 1.579-1.737 3.79-2.606 6.553-2.606s4.974.869 6.553 2.606c1.579 1.736 2.447 4.184 2.447 7.263 0 3.08-.868 5.527-2.447 7.264zm-2.132-7.264c0-4.105-1.5-6.158-4.421-6.158-2.921 0-4.421 2.053-4.421 6.158 0 4.106 1.5 6.158 4.421 6.158 2.921 0 4.421-2.052 4.421-6.158zM66.478 26.79c-2.29 0-4.027-.632-5.21-1.817-1.185-1.184-1.817-3-1.817-5.29s.553-4.026 1.737-5.29c1.184-1.263 2.842-1.815 4.974-1.815.71 0 1.658.079 2.842.237.474.079.79.237 1.027.552.237.316.394.71.394 1.106v.236c0 .395-.157.632-.473.869a1.197 1.197 0 01-1.027.237c-.71-.158-1.5-.158-2.21-.158-1.027 0-1.737.316-2.21.947-.475.632-.711 1.58-.711 3 0 1.422.236 2.37.79 3 .552.632 1.341.87 2.447.87.79 0 1.579-.08 2.21-.238.395-.079.71 0 .948.237.316.237.394.553.394.869v.237c0 .473-.157.79-.394 1.184-.316.316-.632.552-1.027.631-.79.316-1.737.395-2.684.395zM74.136 16.368c-.395 0-.79-.158-1.026-.395-.316-.316-.474-.632-.474-1.027 0-.394.158-.79.474-1.026.316-.316.631-.474 1.026-.474h1.026c.158 0 .237-.079.237-.236V9.972c0-.394.158-.79.474-1.026.316-.316.632-.474 1.026-.474h1.264c.394 0 .79.158 1.026.474.316.316.474.632.474 1.026v3.238c0 .157.079.236.237.236h2.605c.395 0 .71.158 1.026.474.316.316.395.632.395 1.026 0 .395-.158.711-.395 1.027-.315.316-.631.395-1.026.395H79.9c-.158 0-.237.079-.237.236v4.5c0 1.106.079 1.817.316 2.132.236.316.631.474 1.342.474.395 0 .631 0 .868-.079.395-.079.71 0 1.027.237.315.237.473.553.473.869v.236c0 .474-.158.79-.394 1.185-.316.315-.632.552-1.106.552-.552.08-1.184.08-1.895.08-1.816 0-3.079-.395-3.79-1.106-.71-.79-1.105-2.132-1.105-4.106v-4.974c0-.157-.079-.236-.237-.236h-1.026zM97.427 24.894c-1.184 1.264-2.921 1.895-5.053 1.895-2.21 0-3.868-.631-5.053-1.895-1.184-1.263-1.816-3-1.816-5.21 0-2.211.632-4.027 1.816-5.211 1.185-1.264 2.922-1.895 5.053-1.895 2.21 0 3.869.632 5.053 1.895 1.184 1.263 1.816 3 1.816 5.21 0 2.29-.631 4.027-1.816 5.211zm-3.079-8.368c-.395-.632-1.105-.948-1.974-.948-.868 0-1.5.316-1.974.948-.394.631-.631 1.736-.631 3.157 0 1.422.237 2.527.631 3.159.395.631 1.106.947 1.974.947.869 0 1.5-.316 1.974-.947.395-.632.632-1.737.632-3.159 0-1.42-.237-2.526-.632-3.157zM107.375 26.79c-2.289 0-4.026-.632-5.211-1.817-1.184-1.184-1.816-3-1.816-5.29s.553-4.026 1.737-5.29c1.185-1.184 2.843-1.815 4.974-1.815.711 0 1.658.079 2.843.237.473.079.789.237 1.026.552.237.316.395.71.395 1.106v.236c0 .395-.158.632-.474.869-.316.237-.632.316-1.026.237-.711-.158-1.5-.158-2.211-.158-1.026 0-1.737.316-2.211.947-.473.632-.71 1.58-.71 3 0 1.422.237 2.37.789 3 .553.632 1.342.87 2.448.87.789 0 1.579-.08 2.21-.238.395-.079.711 0 .948.237.316.237.395.553.395.869v.237c0 .473-.158.79-.395 1.184-.316.316-.632.552-1.026.631-.869.316-1.737.395-2.685.395zM116.376 26.552c-.395 0-.79-.158-1.027-.473-.316-.316-.474-.632-.474-1.027V8.314c0-.394.158-.79.474-1.026.316-.316.632-.474 1.027-.474h1.5c.394 0 .789.158 1.026.474.316.316.474.632.474 1.026v16.738c0 .395-.158.79-.474 1.027-.316.315-.632.473-1.026.473h-1.5zM129.166 26.79c-2.369 0-4.185-.632-5.527-1.817-1.342-1.184-1.895-3-1.895-5.29s.553-4.026 1.737-5.29c1.185-1.263 2.843-1.815 4.974-1.815 4.185 0 6.317 2.29 6.395 6.869 0 .394-.157.79-.473 1.026-.316.316-.711.395-1.106.395h-7.026c-.158 0-.237.079-.237.237.158.947.474 1.658 1.105 2.052.632.395 1.5.632 2.685.632.789 0 1.658-.079 2.526-.316.395-.079.711 0 .947.237.316.237.395.553.395.869v.078c0 .474-.158.869-.395 1.185-.236.395-.631.553-1.026.631-.868.237-1.974.316-3.079.316zm-.632-11.29c-.789 0-1.421.236-1.816.63-.394.396-.631 1.106-.789 2.132 0 .158.079.237.158.237h4.421c.158 0 .237-.079.237-.237.079-1.895-.711-2.763-2.211-2.763zM140.219 26.79c-1.184 0-2.211-.396-3-1.185-.79-.79-1.184-1.816-1.184-3 0-3.158 2.368-4.816 7.105-4.816h.948c.158 0 .237-.08.237-.237v-.158c0-.632-.158-1.184-.474-1.421-.316-.316-.947-.474-1.737-.474-1.105 0-2.369.158-3.869.474-.394.079-.71 0-.947-.237-.316-.237-.395-.553-.395-.869v-.079c0-.473.158-.868.395-1.184.237-.395.632-.553 1.026-.631 1.579-.316 2.843-.474 4.027-.474 2.289 0 3.947.394 4.895 1.263.947.79 1.421 2.21 1.421 4.105v7.106c0 .395-.158.79-.474 1.027-.315.315-.631.473-1.026.473h-.947c-.395 0-.79-.158-1.106-.394-.316-.316-.474-.632-.474-1.027v-.316h-.078c-1.185 1.343-2.606 2.053-4.343 2.053zm2.921-6.475c-2.131 0-3.237.632-3.237 1.974 0 .474.158.868.395 1.105.237.237.632.395 1.105.395.869 0 1.501-.237 2.053-.79.553-.552.79-1.263.79-2.131v-.316c0-.158-.079-.237-.237-.237h-.869zM152.615 26.552c-.395 0-.711-.158-1.027-.473-.315-.316-.394-.632-.394-1.027V14.394c0-.395.158-.79.394-1.027.316-.316.632-.474 1.027-.474h1.105c.395 0 .79.158 1.026.395.316.316.474.632.474 1.027v.237l.079-.08c1.105-1.263 2.527-1.973 4.106-1.973 1.579 0 2.763.473 3.474 1.342.71.868 1.026 2.447 1.026 4.58v6.473c0 .395-.158.79-.395 1.027-.316.316-.631.473-1.026.473H161.3c-.395 0-.79-.157-1.027-.473-.316-.316-.474-.632-.474-1.027v-6.316c0-1.026-.158-1.737-.394-2.132-.316-.394-.79-.552-1.5-.552-.632 0-1.185.237-1.658.71-.553.474-.79 1.027-.79 1.58v6.71c0 .395-.158.79-.395 1.027-.316.316-.631.473-1.026.473h-1.421v.158zM172.984 26.79c-2.368 0-4.184-.632-5.526-1.817-1.342-1.184-1.895-3-1.895-5.29s.553-4.026 1.737-5.29c1.184-1.184 2.842-1.815 4.974-1.815 4.184 0 6.316 2.29 6.395 6.869 0 .394-.158.79-.474 1.026-.315.237-.71.395-1.105.395h-7.027c-.158 0-.237.079-.237.237.158.947.474 1.658 1.106 2.052.631.395 1.5.632 2.684.632.79 0 1.658-.079 2.527-.316.394-.079.71 0 .947.237.316.237.395.553.395.869v.078c0 .474-.158.869-.395 1.185-.237.395-.632.553-1.026.631-.948.237-1.974.316-3.08.316zm-.631-11.29c-.79 0-1.421.236-1.816.63-.395.396-.632 1.106-.79 2.132 0 .158.079.237.158.237h4.422c.158 0 .237-.079.237-.237 0-1.895-.711-2.763-2.211-2.763zM181.985 26.552c-.395 0-.71-.157-1.026-.473-.316-.316-.395-.632-.395-1.027V14.394c0-.395.158-.79.395-1.027.316-.316.631-.473 1.026-.473h1.263c.395 0 .711.158 1.027.473.316.316.394.632.394 1.027v1.105h.079c1.106-1.421 2.606-2.29 4.58-2.526.394-.08.71.079 1.026.394.316.316.395.632.395 1.106v.236c0 .395-.158.79-.395 1.027-.316.316-.632.474-1.026.474-1.421.157-2.527.631-3.316 1.42-.79.79-1.185 1.896-1.185 3.159v4.263c0 .395-.158.79-.394 1.027-.316.316-.632.473-1.027.473h-1.421z" fill="black"/></symbol><symbol id="icon-mop" viewBox="0 0 56 56">
<path d="M40.2867 41.7953H36.9612V41.1717C36.9612 40.2656 36.2267 39.531 35.3206 39.531H32.362V4.36287C32.3621 1.95716 30.4051 0 27.9991 0C25.5933 0 23.6361 1.95716 23.6361 4.36287V39.531H20.6775C19.7715 39.531 19.0369 40.2656 19.0369 41.1717V41.7953H15.7115C12.6915 41.7953 10.2346 44.2522 10.2346 47.2722V54.3594C10.2346 55.2654 10.9692 56 11.8752 56H44.123C45.0291 56 45.7636 55.2654 45.7636 54.3594V47.2722C45.7635 44.2522 43.3067 41.7953 40.2867 41.7953ZM26.9176 4.36287C26.9176 3.76644 27.4029 3.28126 27.9993 3.28126C28.5958 3.28126 29.0808 3.76644 29.0808 4.36287V7.92084H26.9176V4.36287ZM26.9175 11.2021H29.0807V39.531H26.9175V11.2021ZM22.3182 42.8123H33.68V45.6797H22.3182V42.8123ZM42.4823 52.7187H13.516V47.2722C13.516 46.0615 14.5009 45.0766 15.7116 45.0766H19.037V47.3203C19.037 48.2264 19.7716 48.9609 20.6777 48.9609H35.3207C36.2268 48.9609 36.9613 48.2264 36.9613 47.3203V45.0766H40.2868C41.4974 45.0766 42.4824 46.0615 42.4824 47.2722V52.7187H42.4823Z" fill="white"/>
</symbol><symbol id="icon-phone">
  <path d="M11.711 16.29c-2.545-2.545-3.12-5.09-3.25-6.11a.914.914 0 01.263-.765l2.06-2.058a.92.92 0 00.13-1.138l-3.28-5.093a.92.92 0 00-1.19-.335l-5.265 2.48a.914.914 0 00-.506.913c.276 2.62 1.418 9.063 7.749 15.394 6.33 6.331 12.77 7.473 15.392 7.749a.914.914 0 00.914-.506l2.48-5.264a.92.92 0 00-.334-1.19l-5.092-3.278a.92.92 0 00-1.138.129l-2.058 2.06a.914.914 0 01-.765.262c-1.02-.13-3.565-.704-6.11-3.25z"/>
  <path d="M21.817 14.919a.92.92 0 01-.92-.92 6.904 6.904 0 00-6.895-6.896.92.92 0 010-1.839A8.745 8.745 0 0122.736 14a.92.92 0 01-.92.92z"/>
  <path d="M26.414 14.919a.92.92 0 01-.92-.92c-.006-6.344-5.148-11.486-11.492-11.493a.92.92 0 010-1.84C21.362.676 27.325 6.64 27.334 14a.92.92 0 01-.92.92z"/>
  </symbol><symbol id="icon-playbutton" viewBox="0 0 94 94">
<path d="M93.5221 45.4814C92.7412 21.0268 72.9736 1.25996 48.5197 0.479012C35.2135 0.0568409 22.7647 5.12159 13.5645 14.6204C4.71983 23.752 0.0726809 35.7904 0.479167 48.5196C1.25946 72.9735 21.027 92.741 45.4809 93.5213C45.99 93.5377 46.4945 93.5455 47.0003 93.5455C59.7138 93.5455 71.5882 88.5147 80.4361 79.3799C89.2808 70.249 93.9286 58.2099 93.5221 45.4814ZM73.3951 72.5605C66.4104 79.772 57.0364 83.7434 47.0003 83.7434C46.5991 83.7434 46.1978 83.7369 45.7933 83.7245C26.4937 83.1082 10.8929 67.5075 10.276 48.2072C9.95514 38.1548 13.6233 28.6488 20.6055 21.4405C27.5903 14.229 36.9643 10.2576 47.0003 10.2576C47.4016 10.2576 47.8028 10.2641 48.2074 10.2765C67.507 10.8928 83.1077 26.4935 83.7246 45.7938C84.0455 55.8461 80.3767 65.3522 73.3951 72.5605Z" fill="white"/>
<path d="M62.2672 44.2962L41.6265 29.4967C39.4248 27.9178 36.3599 29.4915 36.3599 32.201V61.8007C36.3599 64.5101 39.4248 66.0838 41.6265 64.5049L62.2665 49.7047C64.1186 48.3774 64.1186 45.6242 62.2672 44.2962Z" fill="white"/>
</symbol><symbol id="icon-plus" viewBox="0 0 33 32">
<path d="M32.0181 15.478C31.7496 7.07171 24.9545 0.276847 16.5485 0.0083951C11.9745 -0.136726 7.69522 1.60428 4.53266 4.86951C1.4923 8.00849 -0.105158 12.1467 0.0345716 16.5223C0.302799 24.9284 7.09789 31.7235 15.5039 31.9917C15.6789 31.9973 15.8523 32 16.0262 32C20.3965 32 24.4783 30.2707 27.5198 27.1306C30.5601 23.9918 32.1578 19.8534 32.0181 15.478ZM25.0994 24.7864C22.6984 27.2654 19.4761 28.6305 16.0262 28.6305C15.8883 28.6305 15.7504 28.6283 15.6113 28.624C8.97705 28.4122 3.6143 23.0494 3.40224 16.415C3.29194 12.9595 4.55288 9.69176 6.95299 7.21391C9.35401 4.73495 12.5763 3.36977 16.0262 3.36977C16.1642 3.36977 16.3021 3.37202 16.4411 3.37629C23.0754 3.58813 28.4381 8.95087 28.6502 15.5853C28.7605 19.0408 27.4993 22.3085 25.0994 24.7864Z" fill="white"/>
<path fill-rule="evenodd" clip-rule="evenodd" d="M18.0262 10.8C18.0262 9.69548 17.1308 8.80005 16.0262 8.80005C14.9216 8.80005 14.0262 9.69548 14.0262 10.8001V14.1334H10.6929C9.5883 14.1334 8.69287 15.0288 8.69287 16.1334C8.69287 17.238 9.5883 18.1334 10.6929 18.1334H14.0262V21.4667C14.0262 22.5713 14.9216 23.4667 16.0262 23.4667C17.1308 23.4667 18.0262 22.5713 18.0262 21.4667V18.1334H21.3595C22.4641 18.1334 23.3595 17.238 23.3595 16.1334C23.3595 15.0288 22.4641 14.1334 21.3595 14.1334H18.0262V10.8Z" fill="white"/>
<path fill-rule="evenodd" clip-rule="evenodd" d="M18.0262 10.8C18.0262 9.69548 17.1308 8.80005 16.0262 8.80005C14.9216 8.80005 14.0262 9.69548 14.0262 10.8001V14.1334H10.6929C9.5883 14.1334 8.69287 15.0288 8.69287 16.1334C8.69287 17.238 9.5883 18.1334 10.6929 18.1334H14.0262V21.4667C14.0262 22.5713 14.9216 23.4667 16.0262 23.4667C17.1308 23.4667 18.0262 22.5713 18.0262 21.4667V18.1334H21.3595C22.4641 18.1334 23.3595 17.238 23.3595 16.1334C23.3595 15.0288 22.4641 14.1334 21.3595 14.1334H18.0262V10.8Z" fill="white"/>
<path fill-rule="evenodd" clip-rule="evenodd" d="M18.0262 10.8C18.0262 9.69548 17.1308 8.80005 16.0262 8.80005C14.9216 8.80005 14.0262 9.69548 14.0262 10.8001V14.1334H10.6929C9.5883 14.1334 8.69287 15.0288 8.69287 16.1334C8.69287 17.238 9.5883 18.1334 10.6929 18.1334H14.0262V21.4667C14.0262 22.5713 14.9216 23.4667 16.0262 23.4667C17.1308 23.4667 18.0262 22.5713 18.0262 21.4667V18.1334H21.3595C22.4641 18.1334 23.3595 17.238 23.3595 16.1334C23.3595 15.0288 22.4641 14.1334 21.3595 14.1334H18.0262V10.8Z" fill="white"/>
<path fill-rule="evenodd" clip-rule="evenodd" d="M18.0262 10.8C18.0262 9.69548 17.1308 8.80005 16.0262 8.80005C14.9216 8.80005 14.0262 9.69548 14.0262 10.8001V14.1334H10.6929C9.5883 14.1334 8.69287 15.0288 8.69287 16.1334C8.69287 17.238 9.5883 18.1334 10.6929 18.1334H14.0262V21.4667C14.0262 22.5713 14.9216 23.4667 16.0262 23.4667C17.1308 23.4667 18.0262 22.5713 18.0262 21.4667V18.1334H21.3595C22.4641 18.1334 23.3595 17.238 23.3595 16.1334C23.3595 15.0288 22.4641 14.1334 21.3595 14.1334H18.0262V10.8Z" fill="white"/>
</symbol><symbol id="icon-purse" viewBox="0 0 48 48">
<path d="M38.625 14V12.375C38.625 9.68637 36.4386 7.5 33.75 7.5H9.375C6.68637 7.5 4.5 9.68637 4.5 12.375V38.375C4.5 41.0636 6.68637 43.25 9.375 43.25H38.625C41.3136 43.25 43.5 41.0636 43.5 38.375V18.875C43.5 16.1864 41.3136 14 38.625 14ZM9.375 10.75H33.75C34.6462 10.75 35.375 11.4788 35.375 12.375V14H9.375C8.47879 14 7.75 13.2712 7.75 12.375C7.75 11.4788 8.47879 10.75 9.375 10.75ZM38.625 40H9.375C8.47879 40 7.75 39.2712 7.75 38.375V16.9715C8.25861 17.1516 8.8053 17.25 9.375 17.25H38.625C39.5212 17.25 40.25 17.9788 40.25 18.875V22.9375H31.3125C28.1764 22.9375 25.625 25.4897 25.625 28.625C25.625 31.7603 28.1764 34.3125 31.3125 34.3125H40.25V38.375C40.25 39.2712 39.5212 40 38.625 40ZM40.25 31.0625H36.4474C36.8048 30.3075 37 29.4815 37 28.625C37 27.7522 36.7961 26.9278 36.4434 26.1875H40.25V31.0625ZM28.875 28.625C28.875 27.2813 29.9688 26.1875 31.3125 26.1875C32.6562 26.1875 33.75 27.2813 33.75 28.625C33.75 29.2756 33.4957 29.8918 33.0454 30.346C32.5793 30.8082 31.9631 31.0625 31.3125 31.0625C29.9688 31.0625 28.875 29.9687 28.875 28.625Z" fill="#696871"/>
</symbol><symbol id="icon-sofa" viewBox="0 0 56 56">
<path d="M50.3968 18.4537V10.7341C50.3968 5.3172 45.9898 0.910156 40.5729 0.910156H15.4271C10.0102 0.910156 5.60317 5.3172 5.60317 10.7341V18.4537C2.39564 19.2085 0 22.0923 0 25.5267V35.4945C0 42.8784 5.58217 48.9821 12.7479 49.81V53.4251C12.7479 54.3443 13.4932 55.0896 14.4123 55.0896C15.3316 55.0896 16.0768 54.3443 16.0768 53.4251V49.9067H39.9233V53.4251C39.9233 54.3443 40.6686 55.0896 41.5878 55.0896C42.507 55.0896 43.2522 54.3443 43.2522 53.4251V49.81C50.4179 48.9821 56 42.8784 56 35.4945V25.5266C56 22.0923 53.6044 19.2085 50.3968 18.4537ZM8.93222 10.7341C8.93222 7.15284 11.8459 4.2392 15.4271 4.2392H40.5728C44.154 4.2392 47.0677 7.15284 47.0677 10.7341V18.4537C43.8601 19.2085 41.4645 22.0922 41.4645 25.5267V35.3714H14.5354V25.5267C14.5354 22.0923 12.1398 19.2085 8.93222 18.4537V10.7341ZM52.6711 35.4945C52.6711 41.6058 47.6991 46.5777 41.5878 46.5777H14.4123C8.30102 46.5777 3.32894 41.6058 3.32894 35.4945V25.5266C3.32894 23.3549 5.09589 21.588 7.26764 21.588C9.4395 21.588 11.2063 23.355 11.2063 25.5266V35.4945C11.2063 37.2623 12.6444 38.7003 14.4122 38.7003H41.5877C43.3554 38.7003 44.7934 37.2623 44.7934 35.4945V25.5266C44.7934 23.3549 46.5604 21.588 48.7321 21.588C50.904 21.588 52.6708 23.355 52.6708 25.5266V35.4945H52.6711Z" fill="white"/>
<path d="M23.2286 14.1807C22.358 14.1807 21.5239 14.9462 21.5641 15.8451C21.6045 16.7469 22.2955 17.5096 23.2286 17.5096C24.0992 17.5096 24.9333 16.7441 24.8931 15.8451C24.8526 14.9433 24.1617 14.1807 23.2286 14.1807Z" fill="white"/>
<path d="M23.2286 22.7341C22.358 22.7341 21.5239 23.4996 21.5641 24.3986C21.6045 25.3004 22.2955 26.0631 23.2286 26.0631C24.0992 26.0631 24.9333 25.2976 24.8931 24.3986C24.8526 23.4968 24.1617 22.7341 23.2286 22.7341Z" fill="white"/>
<path d="M32.7713 14.1807C31.9007 14.1807 31.0666 14.9462 31.1069 15.8451C31.1472 16.7469 31.8383 17.5096 32.7713 17.5096C33.642 17.5096 34.4761 16.7441 34.4358 15.8451C34.3954 14.9433 33.7045 14.1807 32.7713 14.1807Z" fill="white"/>
<path d="M32.7713 22.7341C31.9007 22.7341 31.0666 23.4996 31.1069 24.3986C31.1472 25.3004 31.8383 26.0631 32.7713 26.0631C33.642 26.0631 34.4761 25.2976 34.4358 24.3986C34.3954 23.4968 33.7045 22.7341 32.7713 22.7341Z" fill="white"/>
</symbol><symbol id="icon-youtube"><path d="M20.2 2.26A2.584 2.584 0 0018.382.442C16.768 0 10.312 0 10.312 0s-6.456 0-8.07.425A2.636 2.636 0 00.426 2.26C0 3.873 0 7.22 0 7.22s0 3.364.425 4.961c.238.884.934 1.58 1.818 1.818 1.63.442 8.07.442 8.07.442s6.455 0 8.07-.425a2.584 2.584 0 001.817-1.818c.425-1.614.425-4.96.425-4.96s.017-3.365-.425-4.978zM8.257 10.312V4.128l5.368 3.092-5.368 3.092z" fill="white"/></symbol></svg>