<?xml version="1.0" encoding="utf-8"?>
<!-- Generator: Adobe Illustrator 23.0.3, SVG Export Plug-In . SVG Version: 6.00 Build 0)  -->
<svg version="1.1" id="Слой_1" xmlns="http://www.w3.org/2000/svg" xmlns:xlink="http://www.w3.org/1999/xlink" x="0px" y="0px"
	 viewBox="0 0 21 14" style="enable-background:new 0 0 21 14;" xml:space="preserve">
<style type="text/css">
	.st0{fill-rule:evenodd;clip-rule:evenodd;fill:url(#Фигура_670_1_);}
</style>
<linearGradient id="Фигура_670_1_" gradientUnits="userSpaceOnUse" x1="10.3417" y1="17.0777" x2="10.6946" y2="-0.334">
	<stop  offset="0" style="stop-color:#004B98"/>
	<stop  offset="1" style="stop-color:#00C0FF"/>
</linearGradient>
<path id="Фигура_670" class="st0" d="M14.67,3.23c-2.05-2.06-4.82-3.22-7.72-3.24c-2-0.07-3.94,0.68-5.39,2.06
	c-1.24,1.39-1.8,3.26-1.52,5.11c0.41,3.83,3.56,5.99,8.94,5.99c1.41,0.1,2.82-0.07,4.17-0.49h0.2l0.1-0.1
	c0.28-0.26,0.59-0.49,0.91-0.68c1.52-1.09,2.95-2.07,3.05-3.74C17.52,6.77,16.61,5.2,14.67,3.23z M13.46,10.8
	c-0.3,0.19-0.51,0.39-0.81,0.58c-1.21,0.21-2.43,0.31-3.66,0.3c-4.57,0-7.01-1.47-7.32-4.52c-0.21-1.41,0.2-2.84,1.12-3.93
	C3.9,2.16,5.41,1.6,6.95,1.66c2.48,0.02,4.85,1.01,6.61,2.75c1.52,1.57,2.34,2.85,2.24,3.73C15.79,9.13,14.78,9.81,13.46,10.8
	L13.46,10.8z M20.37,13.99c-0.04,0-0.09,0-0.13-0.01l-7.4-1.47c-0.34-0.06-0.56-0.39-0.49-0.73c0,0,0,0,0,0
	c0.08-0.34,0.41-0.55,0.75-0.48l5.92,1.18l-2.68-4.01c-0.18-0.27-0.11-0.65,0.16-0.83c0.01-0.01,0.02-0.01,0.03-0.02
	c0.29-0.18,0.68-0.1,0.88,0.18l3.5,5.25c0.14,0.21,0.13,0.48-0.01,0.68C20.77,13.89,20.58,13.99,20.37,13.99L20.37,13.99z"/>
</svg>
