<?xml version="1.0" encoding="utf-8"?>
<!-- Generator: Adobe Illustrator 23.0.3, SVG Export Plug-In . SVG Version: 6.00 Build 0)  -->
<svg version="1.1" id="Слой_1" xmlns="http://www.w3.org/2000/svg" xmlns:xlink="http://www.w3.org/1999/xlink" x="0px" y="0px"
	 viewBox="0 0 24.97 18.03" style="enable-background:new 0 0 24.97 18.03;" xml:space="preserve">
<style type="text/css">
	.st0{fill-rule:evenodd;clip-rule:evenodd;fill:url(#Фигура_669_1_);}
</style>
<linearGradient id="Фигура_669_1_" gradientUnits="userSpaceOnUse" x1="-0.0308" y1="8.9995" x2="24.9568" y2="8.9995">
	<stop  offset="0" style="stop-color:#004B98"/>
	<stop  offset="1" style="stop-color:#00C0FF"/>
</linearGradient>
<path id="Фигура_669" class="st0" d="M12.59,11.52c-1.62,0.26-2.72,1.79-2.46,3.41c0.26,1.62,1.8,1.77,3.42,1.51
	c1.43-0.23,2.47-0.51,2.48-1.96C15.89,12.71,14.35,11.39,12.59,11.52z M12.56,16.22c-1.05,0.1-1.99-0.68-2.08-1.73
	c0-0.02,0-0.03,0-0.05c-0.19-1.16,0.59-2.25,1.75-2.44c1.16-0.19,2.25,0.59,2.44,1.75c0.19,1.16-0.59,2.25-1.75,2.44
	C12.8,16.21,12.68,16.22,12.56,16.22L12.56,16.22z M12.56,15.44c-0.55,0.12-1.09-0.23-1.21-0.77c-0.12-0.55,0.23-1.09,0.77-1.21
	c0.15-0.03,0.3-0.03,0.45,0c0.55-0.12,1.09,0.22,1.21,0.77c0.12,0.55-0.22,1.09-0.77,1.21C12.87,15.47,12.72,15.47,12.56,15.44
	L12.56,15.44z M12.56,14.05c-0.15-0.02-0.28,0.08-0.3,0.23c0,0.02,0,0.05,0,0.07c0,0.17,0.13,0.3,0.3,0.3s0.3-0.13,0.3-0.3
	C12.86,14.19,12.73,14.06,12.56,14.05L12.56,14.05z M9.52,8.21C9.42,8.21,9.42,8.31,9.52,8.21C9.46,8.26,9.46,8.35,9.51,8.4
	c0,0,0,0,0.01,0.01V8.21L9.52,8.21z M9.52,6.82C8.7,6.84,8.04,7.52,8.06,8.34c0.02,0.82,0.7,1.48,1.52,1.46
	c0.81-0.02,1.46-0.68,1.46-1.49c-0.03-0.82-0.69-1.47-1.51-1.49H9.52z M15.71,6.82c-0.82,0.02-1.47,0.7-1.46,1.52
	c0.02,0.82,0.7,1.47,1.52,1.46c0.81-0.02,1.46-0.68,1.46-1.49C17.2,7.49,16.54,6.84,15.71,6.82L15.71,6.82z M22,6.13
	c-0.24-0.02-0.48,0.02-0.71,0.1c-1.66-4.83-6.93-7.4-11.76-5.74c-2.66,0.91-4.75,2.99-5.7,5.64c-0.3,0-0.61-0.1-0.91-0.1
	c-1.59-0.04-2.91,1.21-2.95,2.8c-0.04,1.59,1.21,2.91,2.8,2.95c0.05,0,0.1,0,0.15,0c0.27,0.02,0.55-0.02,0.81-0.1
	c1.26,3.8,4.83,6.36,8.83,6.33l0,0c3.96,0.06,7.5-2.47,8.73-6.23c0.23,0.08,0.47,0.11,0.71,0.09c1.58,0.05,2.91-1.2,2.95-2.79
	s-1.2-2.91-2.79-2.95C22.12,6.13,22.07,6.13,22,6.13L22,6.13z M22.2,10.39c-0.3,0.01-0.59-0.1-0.81-0.3L20.38,9.3l-0.3,1.19
	c-0.76,3.48-3.85,5.95-7.41,5.94c-3.65,0.11-6.84-2.45-7.51-6.04L4.96,9l-1.12,1.09c-0.23,0.19-0.51,0.3-0.81,0.3
	c-0.71,0-1.29-0.57-1.3-1.28c0-0.71,0.57-1.29,1.28-1.3c0.01,0,0.01,0,0.02,0c0.33-0.03,0.66,0.08,0.91,0.3L4.96,9l0.3-1.38
	c0.97-4.09,5.08-6.61,9.16-5.63c2.83,0.67,5.02,2.9,5.66,5.73l0.3,1.18l1.02-0.79c0.22-0.2,0.51-0.31,0.81-0.3
	c0.71,0,1.29,0.57,1.3,1.28s-0.57,1.29-1.28,1.3H22.2z M15.7,8.21L15.7,8.21c-0.06,0.05-0.06,0.14,0,0.2c0,0,0,0,0,0
	C15.7,8.41,15.8,8.41,15.7,8.21L15.7,8.21z M9.61,1.6c1.07,0.33,2.01,0.99,2.66,1.9c0.48,0.61,0.83,1.32,1.03,2.08
	c0,0,0.55-2.25,0.02-3.34s-0.31-1.1-0.31-1.1L9.61,1.6z M14.43,1.78c0.46,0.39,0.77,0.93,0.87,1.53c0.12,0.46,0.12,0.93,0,1.39
	c0.3-0.41,0.57-0.84,0.81-1.29c0.17-0.36,0.15-0.78-0.07-1.11c-0.12-0.04-1.6-0.52-1.6-0.52H14.43z"/>
</svg>
