<?xml version="1.0" encoding="utf-8"?>
<!-- Generator: Adobe Illustrator 23.0.3, SVG Export Plug-In . SVG Version: 6.00 Build 0)  -->
<svg version="1.1" id="Слой_1" xmlns="http://www.w3.org/2000/svg" xmlns:xlink="http://www.w3.org/1999/xlink" x="0px" y="0px"
	 viewBox="0 0 25 13" style="enable-background:new 0 0 25 13;" xml:space="preserve">
<style type="text/css">
	.st0{fill-rule:evenodd;clip-rule:evenodd;fill:url(#Фигура_671_1_);}
</style>
<linearGradient id="Фигура_671_1_" gradientUnits="userSpaceOnUse" x1="7.995605e-03" y1="6.505" x2="25.014" y2="6.505">
	<stop  offset="0" style="stop-color:#004B98"/>
	<stop  offset="1" style="stop-color:#00C0FF"/>
</linearGradient>
<path id="Фигура_671" class="st0" d="M3.76,0.01h17.5c1.19,0.02,2.14,0.99,2.13,2.18v8.63c0.01,1.19-0.94,2.16-2.13,2.18H3.76
	c-1.17-0.05-2.1-1.01-2.13-2.18V2.19C1.62,1,2.57,0.03,3.76,0.01z M3.25,10.82c-0.02,0.27,0.18,0.5,0.45,0.52c0.02,0,0.04,0,0.06,0
	h17.5c0.27,0.01,0.5-0.2,0.51-0.46c0-0.02,0-0.04,0-0.06V2.19c0.02-0.27-0.18-0.5-0.45-0.52c-0.02,0-0.04,0-0.06,0H3.76
	c-0.27-0.01-0.5,0.2-0.51,0.46c0,0.02,0,0.04,0,0.06V10.82z M0.01,8.38h25.01V4.63H0.01L0.01,8.38L0.01,8.38z M20.05,6.71H1.53V6.3
	h18.52L20.05,6.71L20.05,6.71z M23.39,6.71h-1.72V6.3h1.72V6.71z M13.56,13c0.44-0.03,0.79-0.39,0.81-0.83V0.84
	c0-0.45-0.36-0.81-0.81-0.81s-0.81,0.36-0.81,0.81v11.33c-0.01,0.45,0.35,0.82,0.79,0.83C13.54,13,13.55,13,13.56,13L13.56,13z
	 M8.02,13c0.44-0.03,0.79-0.39,0.81-0.83V0.84c0-0.45-0.36-0.81-0.81-0.81S7.21,0.39,7.21,0.84v11.33C7.2,12.62,7.55,12.99,8,13
	C8.01,13,8.01,13,8.02,13L8.02,13z"/>
</svg>
