<?xml version="1.0" encoding="utf-8"?>
<!-- Generator: Adobe Illustrator 23.0.3, SVG Export Plug-In . SVG Version: 6.00 Build 0)  -->
<svg version="1.1" id="Слой_1" xmlns="http://www.w3.org/2000/svg" xmlns:xlink="http://www.w3.org/1999/xlink" x="0px" y="0px"
	 viewBox="0 0 23 14" style="enable-background:new 0 0 23 14;" xml:space="preserve">
<style type="text/css">
	.st0{fill-rule:evenodd;clip-rule:evenodd;fill:url(#Фигура_672_1_);}
</style>
<linearGradient id="Фигура_672_1_" gradientUnits="userSpaceOnUse" x1="11.4955" y1="18.0013" x2="11.4955" y2="-0.8811">
	<stop  offset="0" style="stop-color:#004B98"/>
	<stop  offset="1" style="stop-color:#00C0FF"/>
</linearGradient>
<path id="Фигура_672" class="st0" d="M1.29,0C0.58,0,0,0.58,0,1.29v1.49c0,0.68,0.52,1.24,1.2,1.29l2.27,9.41
	c0.07,0.3,0.35,0.51,0.66,0.51h14.74c0.31,0,0.58-0.21,0.66-0.51l2.27-9.41c0.68-0.05,1.2-0.61,1.2-1.29V1.29
	C22.99,0.58,22.41,0,21.7,0H1.29z M1.35,1.35h20.29v1.37H1.35V1.35z M19.53,7.68h-2.96l0.45-3.61h3.37L19.53,7.68z M12.17,12.65
	V9.03h2.87l-0.45,3.62H12.17z M8.4,12.65L7.95,9.03h2.87v3.62H8.4L8.4,12.65z M2.59,4.07h3.38l0.45,3.61H3.46L2.59,4.07z M7.33,4.07
	h3.49v3.61H7.78L7.33,4.07z M12.17,7.68V4.07h3.49l-0.45,3.61H12.17L12.17,7.68z M3.78,9.03h2.8l0.45,3.62H4.65L3.78,9.03z
	 M18.33,12.65h-2.38l0.45-3.62h2.8L18.33,12.65z"/>
</svg>
