<?xml version="1.0" encoding="utf-8"?>
<!-- Generator: Adobe Illustrator 23.0.3, SVG Export Plug-In . SVG Version: 6.00 Build 0)  -->
<svg version="1.1" id="Layer_1" xmlns="http://www.w3.org/2000/svg" xmlns:xlink="http://www.w3.org/1999/xlink" x="0px" y="0px"
	 viewBox="0 0 512 512" style="enable-background:new 0 0 512 512;" xml:space="preserve">
<style type="text/css">
	.st0{fill:url(#SVGID_1_);}
</style>
<linearGradient id="SVGID_1_" gradientUnits="userSpaceOnUse" x1="251.0134" y1="570.1747" x2="243.0134" y2="17.1747">
	<stop  offset="0" style="stop-color:#004B98"/>
	<stop  offset="1" style="stop-color:#00C0FF"/>
</linearGradient>
<path class="st0" d="M480.5,437.68c-0.17-8.99-7.51-16.18-16.5-16.18H350.81L177.47,162.44C219,117.25,219.5,29.79,219.5,26
	c0-9.11-7.39-16.5-16.5-16.5H28c-9.11,0-16.5,7.39-16.5,16.5c0,1.59,0.13,39.35,11.63,77.85c16.38,54.86,44.86,76.08,71.08,82.89
	L294.1,498.9c3.03,4.74,8.27,7.6,13.9,7.6h157c4.43,0,8.68-1.78,11.78-4.95c3.1-3.16,4.8-7.44,4.72-11.87L480.5,437.68z
	 M54.92,94.98c-5.87-19.43-8.43-39.14-9.55-52.48h140.37c-2.12,25.86-9.19,66.31-27.42,91.31l-29.1-43.49
	c-5.07-7.57-15.31-9.6-22.89-4.54c-7.57,5.07-9.6,15.32-4.54,22.89l30.39,45.41c-5.11,1.68-10.58,2.48-16.49,2.41
	C87.6,156.18,67.16,135.48,54.92,94.98z M317.03,473.5L134.02,187.72c5.89-1.23,11.54-3.08,16.92-5.58l177.34,265.04
	c3.06,4.58,8.21,7.32,13.71,7.32h105.81l0.37,19H317.03z"/>
</svg>
