<?xml version="1.0" encoding="utf-8"?>
<!-- Generator: Adobe Illustrator 23.0.3, SVG Export Plug-In . SVG Version: 6.00 Build 0)  -->
<svg version="1.1" id="Layer_1" xmlns="http://www.w3.org/2000/svg" xmlns:xlink="http://www.w3.org/1999/xlink" x="0px" y="0px"
	 viewBox="0 0 512 512" style="enable-background:new 0 0 512 512;" xml:space="preserve">
<style type="text/css">
	.st0{fill:url(#SVGID_1_);}
	.st1{fill:url(#SVGID_2_);}
</style>
<g>
	<linearGradient id="SVGID_1_" gradientUnits="userSpaceOnUse" x1="249.1003" y1="434.8143" x2="263.1003" y2="142.8143">
		<stop  offset="0" style="stop-color:#004B98"/>
		<stop  offset="1" style="stop-color:#00C0FF"/>
	</linearGradient>
	<path class="st0" d="M491.8,246.8h-35.3c-7.46,0-13.5,6.04-13.5,13.5v39.2h-38.71l-95.34-95.34c-0.31-0.31-0.64-0.61-0.98-0.89
		c-0.08-0.07-0.17-0.13-0.26-0.19c-0.26-0.21-0.53-0.41-0.81-0.6c-0.08-0.05-0.16-0.09-0.24-0.14c-0.29-0.19-0.59-0.37-0.9-0.54
		c-0.05-0.03-0.11-0.05-0.17-0.08c-0.34-0.17-0.68-0.34-1.03-0.49c-0.03-0.01-0.07-0.02-0.11-0.04c-0.37-0.15-0.75-0.29-1.14-0.41
		c-0.04-0.01-0.08-0.02-0.12-0.03c-0.38-0.11-0.76-0.21-1.15-0.29c-0.11-0.02-0.22-0.03-0.33-0.05c-0.32-0.06-0.65-0.11-0.98-0.15
		c-0.45-0.04-0.9-0.07-1.35-0.07h-38.21l-62.45-62.35c-2.53-2.53-5.96-3.95-9.54-3.95H45c-7.46,0-13.5,6.04-13.5,13.5v103.14
		C16.42,267.02,7.2,288.95,7.2,313c0,51.06,41.54,92.6,92.6,92.6c46.47,0,85.06-34.42,91.61-79.1H468.8c7.46,0,13.5-6.04,13.5-13.5
		c0-7.05-5.41-12.83-12.3-13.44V273.8h21.8c7.46,0,13.5-6.04,13.5-13.5S499.26,246.8,491.8,246.8z M222.97,200.2h-38.33l-37.79-39.3
		h36.76L222.97,200.2z M109.78,160.9c0.48,0.76,1.04,1.48,1.69,2.16l57.7,60c2.54,2.65,6.06,4.14,9.73,4.14h76.7h38.21l72.3,72.3
		h-174.7c-6.56-44.68-45.14-79.1-91.61-79.1c-14.83,0-28.86,3.51-41.3,9.74V160.9H109.78z M99.8,378.6
		c-36.17,0-65.6-29.43-65.6-65.6s29.43-65.6,65.6-65.6c31.54,0,57.95,22.38,64.2,52.1h-38.54c-4.87-9.21-14.54-15.5-25.65-15.5
		c-15.99,0-29,13.01-29,29s13.01,29,29,29c11.12,0,20.79-6.29,25.65-15.5H164C157.75,356.22,131.34,378.6,99.8,378.6z"/>
	<linearGradient id="SVGID_2_" gradientUnits="userSpaceOnUse" x1="246.5567" y1="434.6923" x2="260.5567" y2="142.6923">
		<stop  offset="0" style="stop-color:#004B98"/>
		<stop  offset="1" style="stop-color:#00C0FF"/>
	</linearGradient>
	<path class="st1" d="M215.1,284.6h78.6c7.46,0,13.5-6.04,13.5-13.5s-6.04-13.5-13.5-13.5h-78.6c-7.46,0-13.5,6.04-13.5,13.5
		S207.64,284.6,215.1,284.6z"/>
</g>
</svg>
