<?xml version="1.0" encoding="utf-8"?>
<!-- Generator: Adobe Illustrator 23.0.3, SVG Export Plug-In . SVG Version: 6.00 Build 0)  -->
<svg version="1.1" id="Layer_1" xmlns="http://www.w3.org/2000/svg" xmlns:xlink="http://www.w3.org/1999/xlink" x="0px" y="0px"
	 viewBox="0 0 512 512" style="enable-background:new 0 0 512 512;" xml:space="preserve">
<style type="text/css">
	.st0{fill:url(#SVGID_1_);}
</style>
<linearGradient id="SVGID_1_" gradientUnits="userSpaceOnUse" x1="252.4793" y1="427.0923" x2="261.4793" y2="83.0923">
	<stop  offset="0" style="stop-color:#004B98"/>
	<stop  offset="1" style="stop-color:#00C0FF"/>
</linearGradient>
<path class="st0" d="M478.6,224L394.7,77.6c-2.5-4.4-7.4-6.8-12.4-6.2l-241.7,31.2c-3.2,0.4-6,2-8.1,4.5c-0.3,0.4-30.4,36.9-60,73.1
	c-11.6,14.3-21.7,26.6-30,36.9C16.9,234.2,0,263.3,0,296.4c0,52.6,42.8,95.3,95.3,95.3c47.5,0,86.9-34.9,94.1-80.3h50.4
	c4.8,0,9.3-2.3,12.1-6.2l53.3-73.1l33.4,9.4c-11,15.5-17.4,34.4-17.4,54.8c0,52.6,42.8,95.3,95.3,95.3s95.3-42.8,95.3-95.3
	C512,267.4,499,241.5,478.6,224z M148.7,126.8l228.5-29.4l88.4,154.2l-165.2-46.8c-1.1-0.3-2.3-0.5-3.4-0.5c-1.6,0-3.1,0.3-4.6,0.9
	l-82.8,32.6L49.6,248C72.9,219.1,116.2,166.3,148.7,126.8z M95.3,361.7c-36,0-65.3-29.3-65.3-65.3c0-7.8,1.4-15.3,3.9-22.3l64.3-4.1
	l-14.3,16.7c-3.8,4.4-4.7,10.7-2.2,16c2.4,5.3,7.8,8.7,13.6,8.7h63.6C152.1,340.2,126.2,361.7,95.3,361.7z M127.9,281.4l12.1-14.1
	l69.2-4.5l8,18.6H127.9z M243.3,266.2l-5.5-12.8l20.8-8.2L243.3,266.2z M416.7,361.7c-36,0-65.3-29.3-65.3-65.3
	c0-17.9,7.2-34.1,18.9-45.9l12.5,3.5l20.1,48.1c3.2,7.6,12,11.3,19.6,8.1c7.6-3.2,11.3-12,8.1-19.6l-10.9-26.2l60.7,17.2
	c1.1,4.7,1.7,9.7,1.7,14.7C482,332.4,452.7,361.7,416.7,361.7z"/>
</svg>
