<?xml version="1.0" encoding="utf-8"?>
<!-- Generator: Adobe Illustrator 23.0.3, SVG Export Plug-In . SVG Version: 6.00 Build 0)  -->
<svg version="1.1" id="Слой_1" xmlns="http://www.w3.org/2000/svg" xmlns:xlink="http://www.w3.org/1999/xlink" x="0px" y="0px"
	 viewBox="0 0 512 512" style="enable-background:new 0 0 512 512;" xml:space="preserve">
<style type="text/css">
	.st0{fill:url(#SVGID_1_);}
	.st1{fill:url(#SVGID_2_);}
	.st2{fill:url(#SVGID_3_);}
	.st3{fill:url(#SVGID_4_);}
	.st4{fill:url(#SVGID_5_);}
	.st5{fill:none;stroke:#000000;stroke-width:27;stroke-linecap:round;stroke-linejoin:round;stroke-miterlimit:10;}
</style>
<g>
	<linearGradient id="SVGID_1_" gradientUnits="userSpaceOnUse" x1="260.0844" y1="482.5117" x2="246.0844" y2="22.5117">
		<stop  offset="0" style="stop-color:#004B98"/>
		<stop  offset="1" style="stop-color:#00C0FF"/>
	</linearGradient>
	<path class="st0" d="M485,287l-93.5-40.9l-56-68.9c-5.16-6.37-12.33-10.72-20.21-12.46l2.54-24.02c0.4-3.79-0.82-7.56-3.35-10.4
		c-0.38-0.43-0.8-0.82-1.23-1.2c8.5-9.84,13.65-22.63,13.65-36.62c0-30.93-25.17-56.1-56.1-56.1c-1.14,0-2.27,0.04-3.4,0.11
		l-6.22-19.85c0-0.01,0-0.01,0-0.02c0,0,0,0,0-0.01c0,0,0-0.01,0-0.01c0,0,0-0.01,0-0.01c0,0,0,0,0,0c0,0,0-0.01,0-0.01c0,0,0,0,0,0
		c-0.03-0.1-0.08-0.2-0.11-0.3c-0.07-0.2-0.14-0.4-0.22-0.6c-0.08-0.21-0.17-0.42-0.27-0.63c-0.09-0.19-0.18-0.38-0.28-0.57
		c-0.1-0.2-0.22-0.4-0.33-0.6c-0.1-0.17-0.2-0.35-0.31-0.52c-0.13-0.2-0.26-0.39-0.4-0.58c-0.11-0.15-0.22-0.31-0.34-0.46
		c-0.15-0.19-0.31-0.38-0.47-0.56c-0.12-0.13-0.23-0.27-0.36-0.4c-0.18-0.18-0.36-0.36-0.54-0.53c-0.12-0.12-0.24-0.23-0.37-0.34
		c-0.2-0.17-0.4-0.33-0.61-0.49c-0.13-0.1-0.25-0.2-0.38-0.29c-0.22-0.16-0.45-0.31-0.69-0.45c-0.12-0.08-0.24-0.16-0.37-0.24
		c-0.02-0.01-0.03-0.02-0.04-0.03c-0.06-0.03-0.12-0.05-0.17-0.09c-0.38-0.21-0.78-0.41-1.18-0.59c-0.06-0.03-0.11-0.06-0.17-0.09
		c-0.14-0.06-0.28-0.1-0.41-0.15c-0.16-0.06-0.32-0.12-0.48-0.18c-0.24-0.08-0.48-0.15-0.72-0.22c-0.15-0.04-0.3-0.09-0.45-0.13
		c-0.34-0.08-0.68-0.15-1.03-0.2c-0.08-0.01-0.16-0.03-0.24-0.04c-0.38-0.06-0.77-0.09-1.16-0.12c-0.14-0.01-0.28,0-0.42-0.01
		c-0.28-0.01-0.56-0.01-0.84,0c-0.16,0.01-0.32,0.02-0.47,0.03c-0.27,0.02-0.54,0.04-0.8,0.08c-0.16,0.02-0.33,0.05-0.49,0.08
		c-0.26,0.05-0.53,0.1-0.79,0.16c-0.1,0.02-0.2,0.04-0.3,0.06l-76.52,19.69l-9.78-12.52c-3.14-4.03-8.29-5.93-13.29-4.93
		c-5.01,1-9.02,4.75-10.37,9.67l-4.63,16.9c-0.45-0.01-0.9-0.03-1.35-0.03c-30.93,0-56.1,25.17-56.1,56.1
		c0,12.69,4.24,24.41,11.38,33.82c-0.77,0.54-1.49,1.16-2.14,1.86c-2.58,2.76-3.89,6.48-3.59,10.25l1.97,25.57
		c-15.39,1.07-29.11,10.27-36.11,24.19L8.6,259.9C5.6,266,4,272.7,4,279.5V376c0,19.9,16.1,36,36,36h13.2
		c6.6,32.5,38.3,53.4,70.8,46.8c23.6-4.8,42-23.2,46.8-46.8h186.4c6.6,32.5,38.3,53.4,70.8,46.8c23.6-4.8,42.1-23.3,46.8-46.9
		c18.7-1.5,33.2-17.1,33.2-35.9v-55.4C508,305.8,498.8,292.4,485,287z M316.9,192.4l41.9,51.6H268v-56h39.6
		C311.2,188,314.6,189.6,316.9,192.4z M196,188v56H94.1l26.9-56H196z M187.56,95.71c2.59,3.31,6.57,5.24,10.77,5.19
		c4.2-0.04,8.15-2.03,10.67-5.39l5.93-7.9c-0.14,1.61-0.23,3.24-0.23,4.89c0,12.15,3.89,23.4,10.48,32.59l-50.24-0.45
		c6.38-9.1,10.15-20.16,10.16-32.09L187.56,95.71z M289.41,152.67l-0.54,5.16l-181.96-2.64l-0.32-4.15L289.41,152.67z M299.9,92.5
		c0,16.05-13.05,29.1-29.1,29.1c-16.05,0-29.1-13.05-29.1-29.1c0-8.01,3.26-15.28,8.51-20.55l7.7,24.58
		c1.81,5.77,7.13,9.47,12.88,9.47c1.34,0,2.7-0.2,4.04-0.62c5.77-1.81,9.47-7.14,9.47-12.89c0-1.33-0.2-2.69-0.62-4.03l-7.71-24.59
		C289.56,66.32,299.9,78.22,299.9,92.5z M214.39,43.37l-16.4,21.83l-11.45-14.66L214.39,43.37z M122.78,64.08l-6.81,24.86
		c-1.97,7.19,2.27,14.62,9.46,16.59c7.19,1.97,14.62-2.27,16.59-9.46l6.8-24.84c5.7,5.32,9.28,12.89,9.28,21.28
		c0,16.05-13.05,29.1-29.1,29.1s-29.1-13.05-29.1-29.1C99.9,78.59,109.72,66.93,122.78,64.08z M65.9,199.1
		c3.4-6.8,10.3-11.1,17.9-11.1h10.6l-26.9,56h-24L65.9,199.1z M112,436c-19.9,0-36-16.1-36-36c0-19.9,16.1-36,36-36s36,16.1,36,36
		C148,419.9,131.9,436,112,436z M416,436c-19.9,0-36-16.1-36-36c0-19.9,16.1-36,36-36c19.9,0,36,16.1,36,36
		C452,419.9,435.9,436,416,436z M484,376c0,5.6-3.9,10.4-9.3,11.7c-6.8-32.4-38.6-53.2-71-46.4c-23.4,4.9-41.7,23.3-46.5,46.7H170.8
		c-6.6-32.5-38.3-53.4-70.8-46.8C76.4,346,58,364.4,53.2,388H40c-6.6,0-12-5.4-12-12v-96.5c0-3.1,0.7-6.2,2.1-8.9l1.3-2.6H208
		c6.6,0,12-5.4,12-12v-68h24v68c0,6.6,5.4,12,12,12h125.5l94.1,41.2c0.2,0.1,0.4,0.2,0.6,0.2c4.7,1.8,7.8,6.2,7.8,11.2V376z"/>
	<linearGradient id="SVGID_2_" gradientUnits="userSpaceOnUse" x1="114.6459" y1="486.9381" x2="100.6459" y2="26.9381">
		<stop  offset="0" style="stop-color:#004B98"/>
		<stop  offset="1" style="stop-color:#00C0FF"/>
	</linearGradient>
	<circle class="st1" cx="112" cy="400" r="12"/>
	<linearGradient id="SVGID_3_" gradientUnits="userSpaceOnUse" x1="418.3646" y1="477.6945" x2="404.3646" y2="17.6945">
		<stop  offset="0" style="stop-color:#004B98"/>
		<stop  offset="1" style="stop-color:#00C0FF"/>
	</linearGradient>
	<circle class="st2" cx="416" cy="400" r="12"/>
	<linearGradient id="SVGID_4_" gradientUnits="userSpaceOnUse" x1="269.9239" y1="482.2123" x2="255.9239" y2="22.2123">
		<stop  offset="0" style="stop-color:#004B98"/>
		<stop  offset="1" style="stop-color:#00C0FF"/>
	</linearGradient>
	<path class="st3" d="M272,292h-15c-6.6,0-12,5.4-12,12c0,6.6,5.4,12,12,12h15c6.6,0,12-5.4,12-12C284,297.4,278.6,292,272,292z"/>
	<linearGradient id="SVGID_5_" gradientUnits="userSpaceOnUse" x1="121.5613" y1="486.7277" x2="107.5613" y2="26.7277">
		<stop  offset="0" style="stop-color:#004B98"/>
		<stop  offset="1" style="stop-color:#00C0FF"/>
	</linearGradient>
	<path class="st4" d="M128,292h-24c-6.6,0-12,5.4-12,12c0,6.6,5.4,12,12,12h24c6.6,0,12-5.4,12-12C140,297.4,134.6,292,128,292z"/>
</g>
<path class="st5" d="M287.1,10.4"/>
</svg>
