<?xml version="1.0" encoding="utf-8"?>
<!-- Generator: Adobe Illustrator 23.0.3, SVG Export Plug-In . SVG Version: 6.00 Build 0)  -->
<svg version="1.1" id="Capa_1" xmlns="http://www.w3.org/2000/svg" xmlns:xlink="http://www.w3.org/1999/xlink" x="0px" y="0px"
	 viewBox="0 0 477 477" style="enable-background:new 0 0 477 477;" xml:space="preserve">
<style type="text/css">
	.st0{fill:url(#SVGID_1_);}
</style>
<g>
	
		<linearGradient id="SVGID_1_" gradientUnits="userSpaceOnUse" x1="237.2185" y1="147.3844" x2="240.2187" y2="807.3842" gradientTransform="matrix(1 0 0 1 0 -82)">
		<stop  offset="0" style="stop-color:#3BE500"/>
		<stop  offset="1" style="stop-color:#007700"/>
	</linearGradient>
	<path class="st0" d="M238,4.3C109.5,4.3,5,108.8,5,237.3s104.5,233,233,233s233-104.5,233-233S366.5,4.3,238,4.3z M367.9,159.6
		L224.5,320.9c-3.5,4-8.5,6-13.4,6c-3.9,0-7.9-1.3-11.2-3.9l-89.6-71.7c-7.7-6.2-9-17.5-2.8-25.2s17.5-9,25.2-2.8l76.3,61.1
		l132.1-148.6c6.6-7.4,17.9-8.1,25.3-1.5S374.5,152.2,367.9,159.6z"/>
</g>
</svg>
