<?xml version="1.0" encoding="utf-8"?>
<!-- Generator: Adobe Illustrator 23.0.3, SVG Export Plug-In . SVG Version: 6.00 Build 0)  -->
<svg version="1.1" id="Слой_1" xmlns="http://www.w3.org/2000/svg" xmlns:xlink="http://www.w3.org/1999/xlink" x="0px" y="0px"
	 viewBox="0 0 15.88 20.03" style="enable-background:new 0 0 15.88 20.03;" xml:space="preserve">
<style type="text/css">
	.st0{fill-rule:evenodd;clip-rule:evenodd;fill:url(#Фигура_664_1_);}
</style>
<linearGradient id="Фигура_664_1_" gradientUnits="userSpaceOnUse" x1="7.9291" y1="20.016" x2="7.9291" y2="0.0135">
	<stop  offset="0" style="stop-color:#004B98"/>
	<stop  offset="1" style="stop-color:#00C0FF"/>
</linearGradient>
<path id="Фигура_664" class="st0" d="M13.24,15.04c-0.43-0.03-0.78-0.37-0.81-0.8V5.98c-0.05-2.51-2.13-4.51-4.65-4.45
	c-2.44,0.05-4.4,2.02-4.45,4.45v8.26c0,0.45-0.36,0.81-0.81,0.81c-0.45,0-0.81-0.36-0.81-0.81V5.98C1.8,2.6,4.61-0.07,7.99,0.02
	c3.26,0.08,5.88,2.7,5.96,5.96v8.26c0.08,0.36-0.15,0.71-0.5,0.79C13.38,15.04,13.31,15.05,13.24,15.04z M13.95,13.54H1.91
	c-1.1,0.05-1.96,0.98-1.92,2.09v2.29c-0.08,1.08,0.74,2.01,1.81,2.09c0.04,0,0.07,0,0.11,0h12.03c1.08-0.01,1.94-0.9,1.93-1.98
	c0-0.04,0-0.08,0-0.12v-2.29c0.07-1.08-0.74-2.01-1.82-2.08C14.01,13.55,13.98,13.55,13.95,13.54z M14.35,17.92
	c0.03,0.25-0.15,0.47-0.4,0.5H1.91c-0.25-0.03-0.43-0.25-0.4-0.5v-2.29c-0.03-0.25,0.15-0.47,0.4-0.5h12.03
	c0.25,0.03,0.43,0.25,0.4,0.5V17.92z"/>
</svg>
