<?xml version="1.0" encoding="utf-8"?>
<!-- Generator: Adobe Illustrator 23.0.3, SVG Export Plug-In . SVG Version: 6.00 Build 0)  -->
<svg version="1.1" id="Слой_1" xmlns="http://www.w3.org/2000/svg" xmlns:xlink="http://www.w3.org/1999/xlink" x="0px" y="0px"
	 viewBox="0 0 142.47 139.76" style="enable-background:new 0 0 142.47 139.76;" xml:space="preserve">
<style type="text/css">
	.st0{fill:url(#SVGID_1_);}
</style>
<linearGradient id="SVGID_1_" gradientUnits="userSpaceOnUse" x1="72.4917" y1="92.7528" x2="72.4917" y2="52.2536">
	<stop  offset="0" style="stop-color:#004B98"/>
	<stop  offset="1" style="stop-color:#00C0FF"/>
</linearGradient>
<path class="st0" d="M132.12,59.79c-2.35,0-3.77,1.41-4.24,3.3c0,1.41-1.41,2.35-2.83,2.35c-0.25,0-0.5-0.09-0.74-0.17
	c-0.08-0.09-0.11-0.21-0.2-0.3c-0.37-0.37-0.81-0.63-1.28-0.81c-0.35-0.47-0.6-0.99-0.6-1.54c0-1.41,1.41-2.83,2.83-2.83
	c1.88,0,3.77-1.88,3.77-3.77c0-1.88-1.88-3.77-3.77-3.77c-5.65,0-10.36,4.71-10.36,10.36c0,1.87,0.55,3.61,1.45,5.14l-1.45,1.45
	C84.08,50.84,57.71,52.72,41.23,57.9c-18.37,6.12-29.2,16.48-29.67,16.95l-0.47,0.47l-0.47,0.47c-1.41,2.83-2.35,8.95,3.77,13.19
	c3.77,2.83,7.06,3.77,10.36,3.77v0c5.18,0,10.36-3.3,14.13-6.59c9.42-6.12,21.19-13.66,44.74-11.3c2.35,0.47,4.24-1.41,4.24-3.3
	c0.47-2.35-1.41-4.24-3.3-4.24C58.18,64.5,45,73.44,35.11,80.04c-8.48,5.18-11.3,7.06-17.42,2.83c-1.41-0.94-1.88-2.35-1.41-3.3
	c2.35-1.88,11.77-9.89,26.37-14.13c22.6-7.06,46.15-2.82,70.17,12.24l2.83,0.94l6.22-6.22c1.02,0.34,2.08,0.57,3.2,0.57v0
	c5.18,0,9.42-4.24,10.36-8.95C135.41,61.67,134,60.26,132.12,59.79z"/>
</svg>
