<?xml version="1.0" encoding="utf-8"?>
<!-- Generator: Adobe Illustrator 23.0.3, SVG Export Plug-In . SVG Version: 6.00 Build 0)  -->
<svg version="1.1" id="Capa_1" xmlns="http://www.w3.org/2000/svg" xmlns:xlink="http://www.w3.org/1999/xlink" x="0px" y="0px"
	 viewBox="0 0 512 512" style="enable-background:new 0 0 512 512;" xml:space="preserve">
<style type="text/css">
	.st0{fill:url(#SVGID_1_);}
</style>
<linearGradient id="SVGID_1_" gradientUnits="userSpaceOnUse" x1="254.4952" y1="459.0402" x2="255.4952" y2="164.0402">
	<stop  offset="0" style="stop-color:#004B98"/>
	<stop  offset="1" style="stop-color:#00C0FF"/>
</linearGradient>
<path class="st0" d="M379.53,124.83c-14.97-11.97-28.44-14.97-37.43-13.47c-15.91,0.94-28.31,10.07-35.74,17.51
	c-2.72,0.91-5.2,2.47-7.67,4.94L174.45,276.02l-55.39,49.4l-1.5,1.5c-7.48,8.98-7.48,22.46,1.5,29.94l40.42,38.92
	c4.49,4.49,8.98,5.99,14.97,5.99c5.99,0,10.48-3,14.97-8.98l43.41-56.89l110.78-104.79c5.99-7.49,7.48-19.46,1.5-26.95l-13.15-65.77
	c3.54-2.29,7.51-4.06,11.66-4.58c5.99-1.5,11.98,1.5,17.96,7.49c10.48,8.98,13.47,17.96,10.48,28.44c-1.5,5.99,1.5,13.47,7.48,14.97
	h2.99l0,0c5.99,0,10.48-2.99,13.47-5.99C401.99,159.26,396,139.8,379.53,124.83z M321.15,210.16L186.42,352.38
	c-2.99,4.49-7.48,5.99-11.98,5.99s-8.98-1.5-11.98-4.49l-2.99-2.99c-7.49-5.99-7.49-17.96-1.5-25.45l134.73-142.22
	c2.99-2.99,7.49-5.99,13.47-5.99c4.49,0,8.98,1.5,11.98,4.49l2.99,2.99C328.64,190.7,328.64,202.68,321.15,210.16z"/>
</svg>
