<?xml version="1.0" encoding="utf-8"?>
<!-- Generator: Adobe Illustrator 23.0.3, SVG Export Plug-In . SVG Version: 6.00 Build 0)  -->
<svg version="1.1" id="Слой_1" xmlns="http://www.w3.org/2000/svg" xmlns:xlink="http://www.w3.org/1999/xlink" x="0px" y="0px"
	 viewBox="0 0 11 25" style="enable-background:new 0 0 11 25;" xml:space="preserve">
<style type="text/css">
	.st0{fill-rule:evenodd;clip-rule:evenodd;fill:url(#Фигура_667_1_);}
</style>
<linearGradient id="Фигура_667_1_" gradientUnits="userSpaceOnUse" x1="5.5" y1="28.6483" x2="5.5" y2="2.0013">
	<stop  offset="0" style="stop-color:#004B98"/>
	<stop  offset="1" style="stop-color:#00C0FF"/>
</linearGradient>
<path id="Фигура_667" class="st0" d="M10.26,7.74c0.41,0,0.74-0.32,0.74-0.73V3.87C10.98,1.72,9.23-0.01,7.09,0H0.74
	c-0.4,0-0.73,0.33-0.73,0.73c0,0.4,0.33,0.73,0.73,0.73h0.85v1.68H0.74C0.34,3.14,0,3.46,0,3.87v3.14c0,0.41,0.34,0.73,0.74,0.73
	h0.85v1.79C0.64,9.84,0,10.72,0,11.72v12.55C0,24.68,0.34,25,0.74,25h9.52c0.41,0,0.74-0.32,0.74-0.73V11.72
	c0-1-0.64-1.88-1.59-2.19V7.74H10.26z M6.24,1.46h0.85c1.05,0,1.99,0.68,2.32,1.68H6.24V1.46L6.24,1.46z M3.07,1.46h1.69v1.68H3.07
	V1.46L3.07,1.46z M9.52,11.72v11.81H1.48V11.72c0-0.46,0.37-0.84,0.84-0.84c0,0,0.01,0,0.01,0h6.35c0.46,0,0.84,0.37,0.85,0.83
	C9.52,11.71,9.52,11.72,9.52,11.72L9.52,11.72z M3.07,9.41V7.74h4.86v1.67H3.07z M1.48,6.28V4.6h8.04v1.68H1.48z M5.93,12.69
	c-0.26-0.18-0.61-0.18-0.87,0c-0.19,0.14-1.89,1.4-1.89,2.95c0,1.29,1.05,2.33,2.33,2.32c1.28,0,2.32-1.04,2.32-2.32
	C7.83,14.09,6.13,12.83,5.93,12.69z M5.5,16.47c-0.46,0-0.84-0.37-0.85-0.83l0,0c-0.24-0.47-0.06-1.04,0.41-1.28
	s1.04-0.06,1.28,0.41c0.14,0.27,0.14,0.6,0,0.87C6.34,16.1,5.96,16.47,5.5,16.47L5.5,16.47L5.5,16.47L5.5,16.47z"/>
</svg>
