<?xml version="1.0" encoding="utf-8"?>
<!-- Generator: Adobe Illustrator 23.0.3, SVG Export Plug-In . SVG Version: 6.00 Build 0)  -->
<svg version="1.1" id="Слой_1" xmlns="http://www.w3.org/2000/svg" xmlns:xlink="http://www.w3.org/1999/xlink" x="0px" y="0px"
	 viewBox="0 0 21.35 26.29" style="enable-background:new 0 0 21.35 26.29;" xml:space="preserve">
<style type="text/css">
	.st0{fill:url(#SVGID_1_);}
	.st1{fill:url(#SVGID_2_);}
	.st2{fill:url(#SVGID_3_);}
	.st3{fill:url(#SVGID_4_);}
	.st4{fill:url(#SVGID_5_);}
</style>
<g>
	<linearGradient id="SVGID_1_" gradientUnits="userSpaceOnUse" x1="10.2125" y1="27.9829" x2="11.2714" y2="4.1005">
		<stop  offset="0" style="stop-color:#004B98"/>
		<stop  offset="1" style="stop-color:#00C0FF"/>
	</linearGradient>
	<path class="st0" d="M19.72,12.39c0-2.96-3.91-5.27-8.9-5.27s-8.9,2.31-8.9,5.27c0,0.08,0.02,0.15,0.02,0.23
		c-0.01,0.04-0.02,0.08-0.02,0.12v3.43c0,1.18,0.66,2.32,1.83,3.22v1.28c0,2.35,3.05,4.19,6.95,4.19s6.95-1.84,6.95-4.19v-1.1
		c1.34-0.93,2.07-2.12,2.07-3.4v-3.43c0-0.04-0.01-0.08-0.02-0.12C19.7,12.55,19.72,12.47,19.72,12.39z M10.82,8.53
		c4.07,0,7.5,1.77,7.5,3.87c0,0.11-0.01,0.23-0.03,0.34c-0.61,1.88-3.87,3.3-6.77,3.51c-0.23,0.01-0.46,0.03-0.7,0.03
		c-0.26,0-0.51-0.02-0.77-0.03c-2.67-0.18-5.67-1.33-6.71-3.6c-0.01-0.08-0.02-0.16-0.02-0.25C3.32,10.3,6.75,8.53,10.82,8.53z
		 M10.7,23.46c-3.27,0-5.55-1.47-5.55-2.79v-0.45c1.56,0.76,3.53,1.21,5.67,1.22c0.03,0,0.05,0,0.08,0c0.06,0,0.12-0.01,0.18-0.01
		c0.2-0.01,0.4-0.01,0.6-0.03c1.68-0.08,3.21-0.44,4.57-1.06v0.33C16.25,21.99,13.97,23.46,10.7,23.46z M16.58,18.61
		c-1.13,0.57-3.64,1.43-5.75,1.43c0,0-0.01,0-0.01,0c-1.71,0-3.67-0.53-6.01-1.61c-0.94-0.66-1.48-1.47-1.48-2.26v-0.92
		c1.43,1.33,3.79,2.2,6.48,2.37c0.34,0.03,0.68,0.04,1.02,0.04c3.11,0,5.9-0.92,7.5-2.42v0.92C18.32,17.06,17.7,17.91,16.58,18.61z"
		/>
	<linearGradient id="SVGID_2_" gradientUnits="userSpaceOnUse" x1="2.841" y1="27.656" x2="3.8998" y2="3.7737">
		<stop  offset="0" style="stop-color:#004B98"/>
		<stop  offset="1" style="stop-color:#00C0FF"/>
	</linearGradient>
	<path class="st1" d="M4.42,6.67c0.14,0.14,0.32,0.21,0.5,0.21c0.18,0,0.36-0.07,0.49-0.2c0.27-0.27,0.28-0.72,0-0.99L3.27,3.52
		c-0.27-0.27-0.72-0.28-0.99,0C2,3.79,2,4.23,2.27,4.51L4.42,6.67z"/>
	<linearGradient id="SVGID_3_" gradientUnits="userSpaceOnUse" x1="9.7379" y1="27.9618" x2="10.7967" y2="4.0795">
		<stop  offset="0" style="stop-color:#004B98"/>
		<stop  offset="1" style="stop-color:#00C0FF"/>
	</linearGradient>
	<path class="st2" d="M10.82,5.79L10.82,5.79c0.39,0,0.7-0.31,0.7-0.7l0-3.03c0-0.39-0.31-0.7-0.7-0.7h0c-0.39,0-0.7,0.31-0.7,0.7
		l0,3.03C10.12,5.48,10.43,5.79,10.82,5.79z"/>
	<linearGradient id="SVGID_4_" gradientUnits="userSpaceOnUse" x1="16.6819" y1="28.2697" x2="17.7408" y2="4.3873">
		<stop  offset="0" style="stop-color:#004B98"/>
		<stop  offset="1" style="stop-color:#00C0FF"/>
	</linearGradient>
	<path class="st3" d="M16.4,6.87c0.16,0,0.31-0.05,0.45-0.16l2.61-2.16c0.3-0.25,0.34-0.69,0.09-0.99c-0.25-0.3-0.69-0.34-0.99-0.09
		l-2.61,2.16c-0.3,0.25-0.34,0.69-0.09,0.99C16,6.79,16.2,6.87,16.4,6.87z"/>
	<linearGradient id="SVGID_5_" gradientUnits="userSpaceOnUse" x1="10.1301" y1="27.9792" x2="11.1889" y2="4.0969">
		<stop  offset="0" style="stop-color:#004B98"/>
		<stop  offset="1" style="stop-color:#00C0FF"/>
	</linearGradient>
	<path class="st4" d="M10.82,14.3c1.79,0,3.09-0.79,3.09-1.88c0-1.09-1.3-1.88-3.09-1.88s-3.09,0.79-3.09,1.88
		C7.73,13.5,9.03,14.3,10.82,14.3z M10.82,11.94c0.97,0,1.56,0.32,1.68,0.48c-0.12,0.16-0.71,0.48-1.68,0.48
		c-1.04,0-1.64-0.37-1.7-0.45C9.18,12.3,9.78,11.94,10.82,11.94z"/>
</g>
</svg>
