<?xml version="1.0" encoding="utf-8"?>
<!-- Generator: Adobe Illustrator 23.0.3, SVG Export Plug-In . SVG Version: 6.00 Build 0)  -->
<svg version="1.1" id="Layer_1" xmlns="http://www.w3.org/2000/svg" xmlns:xlink="http://www.w3.org/1999/xlink" x="0px" y="0px"
	 viewBox="0 0 512 512" style="enable-background:new 0 0 512 512;" xml:space="preserve">
<style type="text/css">
	.st0{fill:url(#SVGID_1_);}
	.st1{fill:url(#SVGID_2_);}
	.st2{fill:url(#SVGID_3_);}
	.st3{fill:url(#SVGID_4_);}
	.st4{fill:url(#SVGID_5_);}
	.st5{fill:url(#SVGID_6_);}
	.st6{fill:url(#SVGID_7_);}
	.st7{fill:url(#SVGID_8_);}
</style>
<g>
	<linearGradient id="SVGID_1_" gradientUnits="userSpaceOnUse" x1="262.5076" y1="579.9576" x2="309.5076" y2="49.9576">
		<stop  offset="0" style="stop-color:#004B98"/>
		<stop  offset="1" style="stop-color:#00C0FF"/>
	</linearGradient>
	<path class="st0" d="M312.23,128.53c-25.99,0-47.13,21.15-47.13,47.13c0,12.27,5.19,23.67,11.77,33.2h-28.9c-8.28,0-15,6.72-15,15
		s6.72,15,15,15h64.27c3.09,0,6.19-0.95,8.81-2.86c3.92-2.85,38.32-28.74,38.32-60.34C359.37,149.68,338.22,128.53,312.23,128.53
		L312.23,128.53z M312.24,204.14c-1.58-1.52-3.25-3.22-4.91-5.08c-7.88-8.77-12.23-17.08-12.23-23.4c0-9.45,7.69-17.13,17.13-17.13
		s17.13,7.69,17.13,17.13C329.37,184.87,320.43,196.18,312.24,204.14L312.24,204.14z"/>
	<linearGradient id="SVGID_2_" gradientUnits="userSpaceOnUse" x1="233.9081" y1="577.4214" x2="280.9081" y2="47.4214">
		<stop  offset="0" style="stop-color:#004B98"/>
		<stop  offset="1" style="stop-color:#00C0FF"/>
	</linearGradient>
	<path class="st1" d="M264.03,313.3h-16.07c-8.28,0-15,6.72-15,15s6.72,15,15,15h16.07c8.28,0,15-6.72,15-15
		S272.32,313.3,264.03,313.3z"/>
	<linearGradient id="SVGID_3_" gradientUnits="userSpaceOnUse" x1="243.0969" y1="578.2363" x2="290.0969" y2="48.2363">
		<stop  offset="0" style="stop-color:#004B98"/>
		<stop  offset="1" style="stop-color:#00C0FF"/>
	</linearGradient>
	<path class="st2" d="M264.03,417.73h-16.07c-8.28,0-15,6.72-15,15s6.72,15,15,15h16.07c8.28,0,15-6.72,15-15
		S272.32,417.73,264.03,417.73z"/>
	<linearGradient id="SVGID_4_" gradientUnits="userSpaceOnUse" x1="157.1263" y1="570.6125" x2="204.1263" y2="40.6125">
		<stop  offset="0" style="stop-color:#004B98"/>
		<stop  offset="1" style="stop-color:#00C0FF"/>
	</linearGradient>
	<path class="st3" d="M191.73,313.3c-5.02,0-9.1-4.08-9.1-9.1c0-8.28-6.72-15-15-15s-15,6.72-15,15c0,21.56,17.54,39.1,39.1,39.1
		c8.28,0,15-6.72,15-15S200.02,313.3,191.73,313.3z"/>
	<linearGradient id="SVGID_5_" gradientUnits="userSpaceOnUse" x1="310.6899" y1="584.2303" x2="357.6899" y2="54.2304">
		<stop  offset="0" style="stop-color:#004B98"/>
		<stop  offset="1" style="stop-color:#00C0FF"/>
	</linearGradient>
	<path class="st4" d="M320.27,313.3c-8.28,0-15,6.72-15,15s6.72,15,15,15c5.02,0,9.1,4.08,9.1,9.1c0,8.28,6.72,15,15,15
		s15-6.72,15-15C359.37,330.84,341.83,313.3,320.27,313.3z"/>
	<linearGradient id="SVGID_6_" gradientUnits="userSpaceOnUse" x1="317.8055" y1="584.8614" x2="364.8055" y2="54.8614">
		<stop  offset="0" style="stop-color:#004B98"/>
		<stop  offset="1" style="stop-color:#00C0FF"/>
	</linearGradient>
	<path class="st5" d="M344.37,393.63c-8.28,0-15,6.72-15,15c0,5.02-4.08,9.1-9.1,9.1c-8.28,0-15,6.72-15,15s6.72,15,15,15
		c21.56,0,39.1-17.54,39.1-39.1C359.37,400.35,352.65,393.63,344.37,393.63z"/>
	<linearGradient id="SVGID_7_" gradientUnits="userSpaceOnUse" x1="227.5469" y1="576.8573" x2="274.5099" y2="47.2749">
		<stop  offset="0" style="stop-color:#004B98"/>
		<stop  offset="1" style="stop-color:#00C0FF"/>
	</linearGradient>
	<path class="st6" d="M376.5,0h-241c-26.04,0-47.13,21.06-47.13,47.13v417.73c0,26.3,21.35,47.13,47.13,47.13h241
		c25.86,0,47.13-20.9,47.13-47.13V47.13C423.63,21.1,402.58,0,376.5,0z M332.59,30c-2.08,5.31-3.22,11.09-3.22,17.13
		c0,9.45-7.69,17.13-17.13,17.13H199.77c-9.45,0-17.13-7.69-17.13-17.13c0-6.04-1.14-11.82-3.22-17.13L332.59,30z M393.63,464.87
		c0,9.58-7.79,17.13-17.13,17.13h-241c-9.34,0-17.13-7.55-17.13-17.13V47.13c0-9.45,7.64-17.13,17.13-17.13
		c9.45,0,17.13,7.69,17.13,17.13c0,25.99,21.14,47.13,47.13,47.13h112.47c25.99,0,47.13-21.14,47.13-47.13
		c0-9.45,7.69-17.13,17.13-17.13c9.49,0,17.13,7.68,17.13,17.13L393.63,464.87L393.63,464.87z"/>
	<linearGradient id="SVGID_8_" gradientUnits="userSpaceOnUse" x1="150.0107" y1="569.9814" x2="197.0107" y2="39.9815">
		<stop  offset="0" style="stop-color:#004B98"/>
		<stop  offset="1" style="stop-color:#00C0FF"/>
	</linearGradient>
	<path class="st7" d="M191.73,208.87c-21.56,0-39.1,17.54-39.1,39.1c0,8.28,6.72,15,15,15s15-6.72,15-15c0-5.02,4.08-9.1,9.1-9.1
		c8.28,0,15-6.72,15-15S200.02,208.87,191.73,208.87z"/>
</g>
</svg>
