<?xml version="1.0" encoding="utf-8"?>
<!-- Generator: Adobe Illustrator 23.0.3, SVG Export Plug-In . SVG Version: 6.00 Build 0)  -->
<svg version="1.1" id="Capa_1" xmlns="http://www.w3.org/2000/svg" xmlns:xlink="http://www.w3.org/1999/xlink" x="0px" y="0px"
	 viewBox="0 0 512 512" style="enable-background:new 0 0 512 512;" xml:space="preserve">
<style type="text/css">
	.st0{fill:url(#SVGID_1_);}
</style>
<linearGradient id="SVGID_1_" gradientUnits="userSpaceOnUse" x1="273.3225" y1="476.4835" x2="261.3225" y2="120.4835">
	<stop  offset="0" style="stop-color:#004B98"/>
	<stop  offset="1" style="stop-color:#00C0FF"/>
</linearGradient>
<path class="st0" d="M511.19,196.22L482.91,93.56c-3.27-11.85-15.52-18.82-27.37-15.55c-11.85,3.27-18.81,15.52-15.55,27.38l5.51,20
	l-252.79-11.55L179.2,75.54c-3.27-9.28-13.45-14.14-22.72-10.87c-9.28,3.27-14.14,13.44-10.87,22.72l14.59,41.37L23.96,339.57
	c-3.16,4.89-3.73,11-1.53,16.39c2.2,5.39,6.88,9.36,12.55,10.65l222.62,50.46c0.09,0.02,0.17,0.03,0.26,0.04
	c0.47,0.1,0.94,0.18,1.42,0.24c0.16,0.02,0.31,0.04,0.47,0.06c0.59,0.06,1.19,0.1,1.79,0.1c0,0,0,0,0.01,0c0,0,0,0,0,0
	c0.63,0,1.25-0.04,1.87-0.1c0.19-0.02,0.37-0.06,0.56-0.09c0.43-0.06,0.86-0.12,1.28-0.21c0.26-0.06,0.52-0.14,0.78-0.2
	c0.34-0.09,0.68-0.17,1.01-0.28c0.29-0.1,0.58-0.21,0.87-0.33c0.29-0.11,0.58-0.22,0.86-0.34c0.3-0.13,0.59-0.29,0.88-0.44
	c0.27-0.14,0.53-0.27,0.79-0.42c0.28-0.16,0.56-0.34,0.83-0.53c0.26-0.17,0.51-0.34,0.76-0.52c0.26-0.19,0.5-0.39,0.75-0.59
	c0.26-0.21,0.51-0.43,0.76-0.65c0.22-0.2,0.44-0.41,0.65-0.63c0.12-0.13,0.26-0.24,0.38-0.37c0.1-0.11,0.18-0.24,0.28-0.35
	c0.13-0.15,0.28-0.29,0.41-0.44l186.65-226.08l6.36,23.09c2.72,9.87,11.68,16.35,21.45,16.35c1.96,0,3.95-0.26,5.93-0.81
	C507.5,220.33,514.46,208.08,511.19,196.22z M204.27,150.02l194.81,8.9L259.33,331.2L204.27,150.02z M67.7,337.5l106.32-164.52
	l61.56,202.57L67.7,337.5z"/>
</svg>
