<?xml version="1.0" encoding="utf-8"?>
<!-- Generator: Adobe Illustrator 23.0.3, SVG Export Plug-In . SVG Version: 6.00 Build 0)  -->
<svg version="1.1" id="Layer_1" xmlns="http://www.w3.org/2000/svg" xmlns:xlink="http://www.w3.org/1999/xlink" x="0px" y="0px"
	 viewBox="0 0 512 512" style="enable-background:new 0 0 512 512;" xml:space="preserve">
<style type="text/css">
	.st0{fill:url(#SVGID_1_);}
</style>
<linearGradient id="SVGID_1_" gradientUnits="userSpaceOnUse" x1="252.6861" y1="487.8566" x2="259.6861" y2="133.8566">
	<stop  offset="0" style="stop-color:#004B98"/>
	<stop  offset="1" style="stop-color:#00C0FF"/>
</linearGradient>
<path class="st0" d="M416.67,224.94c-7.7,0-15.19,0.92-22.36,2.66l-37.92-91l32.89-10.96c7.86-2.62,12.11-11.11,9.49-18.97
	c-2.62-7.86-11.11-12.11-18.97-9.49l-49.23,16.45c-7.65,3.19-11.26,11.97-8.08,19.62l9.42,22.62l-131.47,34.18l-13.5-31.5h20.86
	c8.28,0,15-6.72,15-15s-6.72-15-15-15h-64.27c-8.28,0-15,6.72-15,15s6.72,15,15,15h10.76l19.97,46.59l-29.07,33.92
	c-14.52-8.94-31.6-14.11-49.86-14.11C42.77,224.94,0,267.7,0,320.27s42.77,95.33,95.33,95.33c47.46,0,86.93-34.87,94.15-80.33h50.45
	c4.79,0,9.3-2.29,12.12-6.16l96.76-132.69l17.81,42.75c-27.16,16.82-45.29,46.88-45.29,81.11c0,52.57,42.77,95.33,95.33,95.33
	S512,372.84,512,320.27S469.23,224.94,416.67,224.94L416.67,224.94z M95.33,385.6C59.31,385.6,30,356.29,30,320.27
	s29.31-65.33,65.33-65.33c10.8,0,20.99,2.65,29.98,7.31l-41.37,48.26c-3.81,4.45-4.69,10.71-2.24,16.03s7.77,8.73,13.63,8.73h63.58
	C152.11,364.08,126.2,385.6,95.33,385.6z M127.95,305.27l59.49-69.41l29.75,69.41H127.95z M243.34,290.14l-30.95-72.21l103.15-26.82
	L243.34,290.14z M416.67,385.6c-36.02,0-65.33-29.31-65.33-65.33c0-21.73,10.67-41.01,27.05-52.89l24.44,58.66
	c3.19,7.65,11.97,11.26,19.61,8.08c7.65-3.19,11.26-11.97,8.08-19.61l-24.45-58.69c3.45-0.57,6.99-0.88,10.61-0.88
	c36.02,0,65.33,29.31,65.33,65.33S452.69,385.6,416.67,385.6z"/>
</svg>
