<?xml version="1.0" encoding="utf-8"?>
<!-- Generator: Adobe Illustrator 23.0.3, SVG Export Plug-In . SVG Version: 6.00 Build 0)  -->
<svg version="1.1" id="Capa_1" xmlns="http://www.w3.org/2000/svg" xmlns:xlink="http://www.w3.org/1999/xlink" x="0px" y="0px"
	 viewBox="0 0 512 512" style="enable-background:new 0 0 512 512;" xml:space="preserve">
<style type="text/css">
	.st0{fill:url(#SVGID_1_);}
</style>
<g>
	<g>
		<linearGradient id="SVGID_1_" gradientUnits="userSpaceOnUse" x1="243.414" y1="552.7643" x2="262.414" y2="104.7644">
			<stop  offset="0" style="stop-color:#004B98"/>
			<stop  offset="1" style="stop-color:#00C0FF"/>
		</linearGradient>
		<path class="st0" d="M256,0C114.83,0,0,114.84,0,256s114.83,256,256,256s256-114.84,256-256S397.17,0,256,0z M464.23,210.09
			l-77.93-6.73l48.84-62.8C448.69,161.53,458.69,184.96,464.23,210.09z M422.15,122.51l-61.18,78.67l-46.04-3.97l-3.32-38.19
			l88.06-60.26C407.73,106.13,415.3,114,422.15,122.51z M331.16,239.5l-14.23-19.32l-0.13-1.53l28.64,2.49L331.16,239.5z
			 M342.75,291.19l-26.11,2.29l0.05-0.62l14.01-18.01L342.75,291.19z M382.53,84.64l-73.04,49.98l-7.55-86.84
			C331.61,54.33,358.89,67.13,382.53,84.64z M231.79,44.14c7.96-0.9,16.02-1.47,24.21-1.47c8.2,0,16.26,0.57,24.23,1.48l9.13,104.25
			l-32.06,21.94l-34.33-24.8L231.79,44.14z M288,256c0,17.65-14.35,32-32,32s-32-14.35-32-32s14.35-32,32-32S288,238.35,288,256z
			 M220.82,170.3l17.77,12.83l-17.32,11.85l-2.61,0.23L220.82,170.3z M116.52,94.96l84.25,60.85l-3.56,41.27l-41.49,3.61
			l-60.78-84.15C101.62,108.83,108.82,101.63,116.52,94.96z M195.14,221.02l-12.03,17.58l-12.91-17.88l25.16-2.2L195.14,221.02z
			 M195.21,293.34l-22.36-1.95l10.74-15.7l11.47,15.88L195.21,293.34z M81.25,134.01l49.71,68.83l-83.18,7.23
			C53.9,182.3,65.44,156.58,81.25,134.01z M42.67,256c0-8.2,0.57-16.26,1.48-24.22l101.3-8.88l24.86,34.42l-21.87,31.96l-104.3-9.07
			C43.24,272.25,42.67,264.19,42.67,256z M47.77,301.9l86.89,7.5l-50.03,73.12C67.13,358.87,54.31,331.59,47.77,301.9z
			 M98.76,399.67l60.32-88.16l37.99,3.28l4.02,46.24l-78.58,61.11C114,415.3,106.13,407.73,98.76,399.67z M140.55,435.13
			l62.74-48.79l6.77,77.88C184.94,458.68,161.51,448.68,140.55,435.13z M202.9,131.03l-68.91-49.78
			c22.58-15.81,48.31-27.36,76.09-33.48L202.9,131.03z M218.52,316.64l1.39,0.12l19.57,14.42l-18.43,14.33L218.52,316.64z
			 M280.21,467.86c-7.96,0.9-16.01,1.48-24.21,1.48c-8.2,0-16.27-0.57-24.23-1.48l-8.5-97.05l34.05-26.48l31.61,23.29L280.21,467.86
			z M291.09,342.72l-16.28-11.99l17.84-13.87l0.69-0.06L291.09,342.72z M291.74,195.21l-16.07-11.61l15.82-10.83l1.98,22.58
			L291.74,195.21z M301.91,464.22l7.06-81.83l67.34,49.62C354.15,447.21,328.98,458.26,301.91,464.22z M393.91,418.48l-82.79-61
			l3.67-42.55l42.71-3.71l60.96,82.71C410.95,402.76,402.74,410.97,393.91,418.48z M431.99,376.34l-49.59-67.29l81.82-7.12
			C458.25,329,447.2,354.18,431.99,376.34z M367.64,289l-23.33-31.65l26.44-34l97.1,8.44c0.9,7.96,1.48,16.01,1.48,24.21
			c0,8.2-0.57,16.26-1.48,24.22L367.64,289z"/>
	</g>
</g>
</svg>
