<?xml version="1.0" encoding="utf-8"?>
<!-- Generator: Adobe Illustrator 23.0.3, SVG Export Plug-In . SVG Version: 6.00 Build 0)  -->
<svg version="1.1" id="Capa_1" xmlns="http://www.w3.org/2000/svg" xmlns:xlink="http://www.w3.org/1999/xlink" x="0px" y="0px"
	 viewBox="0 0 512 512" style="enable-background:new 0 0 512 512;" xml:space="preserve">
<style type="text/css">
	.st0{fill:url(#SVGID_1_);}
</style>
<g>
	<g>
		<linearGradient id="SVGID_1_" gradientUnits="userSpaceOnUse" x1="252.6612" y1="533.2382" x2="257.6613" y2="118.2381">
			<stop  offset="0" style="stop-color:#004B98"/>
			<stop  offset="1" style="stop-color:#00C0FF"/>
		</linearGradient>
		<path class="st0" d="M511.65,247.89l-0.24-3.9c-0.17-3.6-2.14-6.88-5.24-8.7c-16.19-9.54-18.15-14.73-18.35-16.08
			c-0.23-1.44,0.03-7.2,12.49-21.18c2.41-2.69,3.28-6.43,2.33-9.92c-2.09-7.62-4.54-15.08-7.3-22.41c-1.27-3.38-4.17-5.88-7.69-6.65
			c-18.36-4.04-21.86-8.42-22.5-9.67c-0.65-1.26-2.16-6.72,5.42-24.18c1.43-3.3,1.09-7.11-0.9-10.13
			c-4.3-6.51-8.92-12.79-13.78-18.88c-2.27-2.81-5.78-4.25-9.36-3.95c-18.92,1.83-23.59-1.27-24.58-2.25
			c-0.99-0.99-4.08-5.69-2.25-24.58c0.35-3.59-1.14-7.1-3.95-9.36c-6.09-4.86-12.36-9.48-18.89-13.79c-3.01-2-6.82-2.32-10.11-0.88
			c-17.46,7.56-22.94,6.04-24.18,5.41c-1.24-0.63-5.63-4.15-9.67-22.51c-0.77-3.52-3.28-6.42-6.66-7.69
			c-7.33-2.76-14.79-5.21-22.41-7.3c-3.53-0.94-7.24-0.08-9.92,2.33c-14.03,12.5-19.67,12.81-21.18,12.49
			c-1.35-0.21-6.54-2.17-16.08-18.35c-1.82-3.1-5.09-5.07-8.7-5.24l-3.9-0.24c-5.35-0.35-10.77-0.35-16.13,0l-3.9,0.24
			c-3.6,0.17-6.88,2.13-8.7,5.24c-9.54,16.19-14.73,18.15-16.08,18.35c-1.41,0.29-7.15,0.01-21.18-12.49
			c-2.69-2.42-6.42-3.27-9.92-2.33c-7.63,2.09-15.09,4.53-22.42,7.3c-3.37,1.28-5.87,4.17-6.63,7.69
			c-4.04,18.36-8.42,21.86-9.67,22.5c-1.25,0.65-6.72,2.17-24.18-5.42c-3.3-1.43-7.14-1.1-10.13,0.9
			c-6.51,4.3-12.79,8.92-18.88,13.78c-2.81,2.26-4.3,5.77-3.95,9.36c1.83,18.89-1.26,23.59-2.25,24.58c-1,0.99-5.7,4.08-24.58,2.25
			c-3.58-0.39-7.1,1.14-9.36,3.95c-4.86,6.09-9.48,12.36-13.79,18.89c-1.98,3.01-2.31,6.81-0.88,10.11
			c7.56,17.46,6.05,22.92,5.41,24.19c-0.63,1.24-4.14,5.62-22.51,9.66c-3.52,0.77-6.42,3.28-7.69,6.66
			c-2.76,7.33-5.21,14.79-7.3,22.41c-0.95,3.49-0.07,7.23,2.33,9.93c12.48,13.98,12.72,19.74,12.49,21.17
			c-0.21,1.35-2.17,6.54-18.35,16.08c-3.1,1.82-5.07,5.09-5.24,8.7l-0.24,3.9C0.18,250.57,0,253.24,0,255.96
			c0,2.72,0.18,5.38,0.35,8.06l0.24,3.9c0.17,3.6,2.14,6.88,5.24,8.7c16.19,9.54,18.15,14.73,18.35,16.08
			c0.23,1.43-0.01,7.18-12.49,21.18c-2.41,2.69-3.28,6.43-2.33,9.92c2.09,7.61,4.54,15.08,7.3,22.41c1.27,3.38,4.17,5.88,7.69,6.65
			c18.37,4.04,21.87,8.42,22.5,9.67c0.65,1.26,2.16,6.72-5.41,24.17c-1.44,3.3-1.1,7.1,0.88,10.11c4.31,6.52,8.93,12.8,13.79,18.9
			c2.26,2.81,5.78,4.26,9.36,3.95c18.91-1.85,23.59,1.26,24.58,2.25c0.99,0.99,4.08,5.69,2.25,24.58c-0.35,3.59,1.14,7.1,3.95,9.36
			c6.09,4.86,12.36,9.48,18.89,13.79c2.99,1.97,6.8,2.31,10.11,0.88c17.49-7.57,22.91-6.06,24.19-5.41
			c1.24,0.64,5.62,4.14,9.66,22.51c0.77,3.52,3.28,6.42,6.66,7.69c7.33,2.76,14.79,5.21,22.41,7.3c3.5,0.94,7.23,0.07,9.93-2.33
			c14.01-12.48,19.7-12.81,21.17-12.49c1.35,0.21,6.54,2.17,16.08,18.35c1.82,3.1,5.09,5.07,8.7,5.24l3.9,0.24
			c2.68,0.18,5.34,0.35,8.06,0.35s5.39-0.18,8.06-0.35l3.9-0.24c3.6-0.17,6.88-2.14,8.7-5.24c9.54-16.19,14.73-18.15,16.08-18.35
			c1.38-0.27,7.16,0,21.18,12.49c2.68,2.41,6.39,3.27,9.92,2.33c7.61-2.09,15.08-4.54,22.41-7.3c3.38-1.27,5.88-4.17,6.65-7.69
			c4.04-18.36,8.42-21.86,9.67-22.5c1.25-0.65,6.71-2.16,24.18,5.42c3.27,1.42,7.11,1.09,10.13-0.9c6.51-4.3,12.79-8.92,18.88-13.78
			c2.81-2.26,4.3-5.77,3.95-9.36c-1.83-18.9,1.26-23.59,2.25-24.58c0.99-0.99,5.67-4.08,24.58-2.25c3.5,0.31,7.1-1.15,9.36-3.95
			c4.86-6.09,9.48-12.36,13.79-18.89c1.98-3.01,2.31-6.81,0.88-10.11c-7.56-17.46-6.05-22.92-5.41-24.19
			c0.64-1.24,4.14-5.61,22.51-9.66c3.52-0.77,6.42-3.28,7.69-6.66c2.76-7.33,5.21-14.79,7.3-22.41c0.95-3.49,0.07-7.23-2.33-9.93
			c-12.48-13.98-12.72-19.74-12.49-21.17c0.21-1.35,2.17-6.54,18.35-16.08c3.1-1.82,5.07-5.09,5.24-8.7l0.24-3.9
			c0.18-2.68,0.35-5.34,0.35-8.06C512,253.24,511.82,250.57,511.65,247.89z M172.99,87.44c0.76-3.28,3.03-6.01,6.12-7.36
			c48.89-21.4,104.89-21.4,153.79,0c3.08,1.35,5.35,4.08,6.11,7.36c1.56,6.77,2.32,13.04,2.32,19.18
			c0,47.05-38.28,85.33-85.33,85.33s-85.33-38.28-85.33-85.33C170.67,100.49,171.43,94.22,172.99,87.44z M298.67,255.96
			c0,23.53-19.14,42.67-42.67,42.67s-42.67-19.14-42.67-42.67s19.13-42.67,42.67-42.67S298.67,232.42,298.67,255.96z M103.17,360.86
			c-0.59,0.09-1.2,0.15-1.78,0.15c-3.68,0-7.14-1.9-9.09-5.09C73.78,325.67,64,291.11,64,255.96c0-35.15,9.78-69.71,28.27-99.95
			c2.28-3.73,6.56-5.62,10.89-4.96c51.48,8.72,88.84,52.83,88.84,104.91C192,308.02,154.63,352.14,103.17,360.86z M339.01,424.47
			c-0.76,3.28-3.03,6.01-6.11,7.36c-24.45,10.7-50.31,16.13-76.9,16.13s-52.45-5.43-76.9-16.13c-3.08-1.35-5.35-4.08-6.12-7.36
			c-1.56-6.77-2.32-13.04-2.32-19.18c0-47.05,38.28-85.33,85.33-85.33s85.33,38.28,85.33,85.33
			C341.33,411.42,340.57,417.69,339.01,424.47z M419.71,355.91c-1.96,3.2-5.43,5.09-9.09,5.09c-0.59,0-1.19-0.05-1.78-0.15
			C357.36,352.14,320,308.02,320,255.96c0-52.07,37.36-96.19,88.84-104.91c4.34-0.72,8.6,1.25,10.89,4.96
			c18.49,30.24,28.27,64.8,28.27,99.95C448,291.11,438.22,325.67,419.71,355.91z"/>
	</g>
</g>
</svg>
