<?xml version="1.0" encoding="utf-8"?>
<!-- Generator: Adobe Illustrator 23.0.3, SVG Export Plug-In . SVG Version: 6.00 Build 0)  -->
<svg version="1.1" id="Capa_1" xmlns="http://www.w3.org/2000/svg" xmlns:xlink="http://www.w3.org/1999/xlink" x="0px" y="0px"
	 viewBox="0 0 512 512" style="enable-background:new 0 0 512 512;" xml:space="preserve">
<style type="text/css">
	.st0{fill:url(#SVGID_1_);}
</style>
<g>
	<g>
		<linearGradient id="SVGID_1_" gradientUnits="userSpaceOnUse" x1="222.305" y1="495.5273" x2="268.305" y2="168.5273">
			<stop  offset="0" style="stop-color:#004B98"/>
			<stop  offset="1" style="stop-color:#00C0FF"/>
		</linearGradient>
		<path class="st0" d="M490.67,234.67V224c0-5.9-4.77-10.67-10.67-10.67h-32c0-23.53-19.15-42.67-42.67-42.67v-32
			c0-17.65-14.35-32-32-32s-32,14.35-32,32v14.74l-30.02,15.01c-2.94,1.47-6.25,2.25-9.54,2.25h-91.54c-3.29,0-6.6-0.78-9.54-2.25
			l-30.02-15.01v-14.74c0-17.65-14.35-32-32-32s-32,14.35-32,32v32C83.15,170.67,64,189.8,64,213.33H32
			c-5.9,0-10.67,4.77-10.67,10.67v10.67C9.56,234.67,0,244.24,0,256s9.56,21.33,21.33,21.33V288c0,5.9,4.77,10.67,10.67,10.67h32
			c0,23.53,19.15,42.67,42.67,42.67v32c0,17.65,14.35,32,32,32s32-14.35,32-32v-14.74l30.02-15.01c2.94-1.47,6.25-2.25,9.54-2.25
			h91.54c3.29,0,6.6,0.78,9.54,2.25l30.02,15.01v14.74c0,17.65,14.35,32,32,32s32-14.35,32-32v-32c23.52,0,42.67-19.14,42.67-42.67
			h32c5.9,0,10.67-4.77,10.67-10.67v-10.67c11.77,0,21.33-9.57,21.33-21.33S502.44,234.67,490.67,234.67z M149.33,373.33
			c0,5.89-4.79,10.67-10.67,10.67S128,379.22,128,373.33V138.67c0-5.88,4.79-10.67,10.67-10.67s10.67,4.78,10.67,10.67
			L149.33,373.33L149.33,373.33z M384,373.33c0,5.89-4.79,10.67-10.67,10.67s-10.67-4.78-10.67-10.67V138.67
			c0-5.88,4.79-10.67,10.67-10.67S384,132.78,384,138.67V373.33z"/>
	</g>
</g>
</svg>
