<?xml version="1.0" encoding="utf-8"?>
<!-- Generator: Adobe Illustrator 23.0.3, SVG Export Plug-In . SVG Version: 6.00 Build 0)  -->
<svg version="1.1" id="Layer_1" xmlns="http://www.w3.org/2000/svg" xmlns:xlink="http://www.w3.org/1999/xlink" x="0px" y="0px"
	 viewBox="0 0 512 512" style="enable-background:new 0 0 512 512;" xml:space="preserve">
<style type="text/css">
	.st0{fill:url(#SVGID_1_);}
</style>
<linearGradient id="SVGID_1_" gradientUnits="userSpaceOnUse" x1="239.3979" y1="478.0013" x2="239.3979" y2="86.0013">
	<stop  offset="0" style="stop-color:#004B98"/>
	<stop  offset="1" style="stop-color:#00C0FF"/>
</linearGradient>
<path class="st0" d="M432,71.46H206.8c-95.94,0-174,78.06-174,174c0,73.41,45.7,136.35,110.14,161.86
	C170.07,424.83,202.37,435,237,435c95.94,0,174-78.06,174-174c0-73.11-45.33-135.83-109.36-161.54H432c7.73,0,14-6.27,14-14
	S439.73,71.46,432,71.46z M352.8,245.46c0,80.5-65.5,146-146,146c-17.95,0-35.15-3.26-51.05-9.22C116.73,356.01,91,311.45,91,261
	c0-80.5,65.5-146,146-146c17.95,0,35.15,3.26,51.05,9.22C327.07,150.45,352.8,195.01,352.8,245.46z M146.12,112.68
	C96.29,143.32,63,198.34,63,261c0,4.06,0.15,8.08,0.43,12.07c-1.72-8.94-2.63-18.17-2.63-27.61
	C60.8,186.59,95.82,135.76,146.12,112.68z M297.68,393.78c49.82-30.64,83.11-85.66,83.11-148.32c0-4.06-0.15-8.08-0.43-12.07
	c1.72,8.94,2.63,18.17,2.63,27.61C383,319.87,347.98,370.7,297.68,393.78z"/>
</svg>
