<?xml version="1.0" encoding="utf-8"?>
<!-- Generator: Adobe Illustrator 23.0.3, SVG Export Plug-In . SVG Version: 6.00 Build 0)  -->
<svg version="1.1" id="Capa_1" xmlns="http://www.w3.org/2000/svg" xmlns:xlink="http://www.w3.org/1999/xlink" x="0px" y="0px"
	 viewBox="0 0 486.57 486.57" style="enable-background:new 0 0 486.57 486.57;" xml:space="preserve">
<style type="text/css">
	.st0{fill:url(#SVGID_1_);}
</style>
<g>
	<linearGradient id="SVGID_1_" gradientUnits="userSpaceOnUse" x1="242.4096" y1="541.9022" x2="243.4096" y2="81.9022">
		<stop  offset="0" style="stop-color:#004B98"/>
		<stop  offset="1" style="stop-color:#00C0FF"/>
	</linearGradient>
	<path class="st0" d="M146.07,320.37h268.1c30.4,0,55.2-24.8,55.2-55.2v-112.8c0-0.1,0-0.3,0-0.4c0-0.3,0-0.5,0-0.8
		c0-0.2,0-0.4-0.1-0.6c0-0.2-0.1-0.5-0.1-0.7s-0.1-0.4-0.1-0.6c-0.1-0.2-0.1-0.4-0.2-0.7c-0.1-0.2-0.1-0.4-0.2-0.6
		c-0.1-0.2-0.1-0.4-0.2-0.6c-0.1-0.2-0.2-0.4-0.3-0.7c-0.1-0.2-0.2-0.4-0.3-0.5c-0.1-0.2-0.2-0.4-0.3-0.6c-0.1-0.2-0.2-0.3-0.3-0.5
		c-0.1-0.2-0.3-0.4-0.4-0.6c-0.1-0.2-0.2-0.3-0.4-0.5c-0.1-0.2-0.3-0.3-0.4-0.5s-0.3-0.3-0.4-0.5s-0.3-0.3-0.4-0.4
		c-0.2-0.2-0.3-0.3-0.5-0.5c-0.2-0.1-0.3-0.3-0.5-0.4c-0.2-0.1-0.4-0.3-0.6-0.4c-0.2-0.1-0.3-0.2-0.5-0.3s-0.4-0.2-0.6-0.4
		c-0.2-0.1-0.4-0.2-0.6-0.3s-0.4-0.2-0.6-0.3s-0.4-0.2-0.6-0.3s-0.4-0.1-0.6-0.2c-0.2-0.1-0.5-0.2-0.7-0.2s-0.4-0.1-0.5-0.1
		c-0.3-0.1-0.5-0.1-0.8-0.1c-0.1,0-0.2-0.1-0.4-0.1l-339.8-46.9v-47.4c0-0.5,0-1-0.1-1.4c0-0.1,0-0.2-0.1-0.4c0-0.3-0.1-0.6-0.1-0.9
		c-0.1-0.3-0.1-0.5-0.2-0.8c0-0.2-0.1-0.3-0.1-0.5c-0.1-0.3-0.2-0.6-0.3-0.9c0-0.1-0.1-0.3-0.1-0.4c-0.1-0.3-0.2-0.5-0.4-0.8
		c-0.1-0.1-0.1-0.3-0.2-0.4c-0.1-0.2-0.2-0.4-0.4-0.6c-0.1-0.2-0.2-0.3-0.3-0.5s-0.2-0.3-0.3-0.5s-0.3-0.4-0.4-0.6
		c-0.1-0.1-0.2-0.2-0.3-0.3c-0.2-0.2-0.4-0.4-0.6-0.6c-0.1-0.1-0.2-0.2-0.3-0.3c-0.2-0.2-0.4-0.4-0.7-0.6c-0.1-0.1-0.3-0.2-0.4-0.3
		c-0.2-0.2-0.4-0.3-0.6-0.5c-0.3-0.2-0.6-0.4-0.8-0.5c-0.1-0.1-0.2-0.1-0.3-0.2c-0.4-0.2-0.9-0.4-1.3-0.6l-73.7-31
		c-6.9-2.9-14.8,0.3-17.7,7.2s0.3,14.8,7.2,17.7l65.4,27.6v61.2v9.7v74.4v66.5v84c0,28,21,51.2,48.1,54.7c-4.9,8.2-7.8,17.8-7.8,28
		c0,30.1,24.5,54.5,54.5,54.5s54.5-24.5,54.5-54.5c0-10-2.7-19.5-7.5-27.5h121.4c-4.8,8.1-7.5,17.5-7.5,27.5
		c0,30.1,24.5,54.5,54.5,54.5s54.5-24.5,54.5-54.5s-24.5-54.5-54.5-54.5h-255c-15.6,0-28.2-12.7-28.2-28.2v-36.6
		C126.07,317.57,135.77,320.37,146.07,320.37z M213.27,431.97c0,15.2-12.4,27.5-27.5,27.5s-27.5-12.4-27.5-27.5s12.4-27.5,27.5-27.5
		S213.27,416.77,213.27,431.97z M428.67,431.97c0,15.2-12.4,27.5-27.5,27.5s-27.5-12.4-27.5-27.5s12.4-27.5,27.5-27.5
		S428.67,416.77,428.67,431.97z M414.17,293.37h-268.1c-15.6,0-28.2-12.7-28.2-28.2v-66.5v-74.4v-5l324.5,44.7v101.1
		C442.37,280.77,429.67,293.37,414.17,293.37z"/>
</g>
</svg>
