<?xml version="1.0" encoding="utf-8"?>
<!-- Generator: Adobe Illustrator 23.0.3, SVG Export Plug-In . SVG Version: 6.00 Build 0)  -->
<svg version="1.1" id="Capa_1" xmlns="http://www.w3.org/2000/svg" xmlns:xlink="http://www.w3.org/1999/xlink" x="0px" y="0px"
	 viewBox="0 0 512 512" style="enable-background:new 0 0 512 512;" xml:space="preserve">
<style type="text/css">
	.st0{fill:url(#SVGID_1_);}
	.st1{fill:url(#SVGID_2_);}
	.st2{fill:url(#SVGID_3_);}
	.st3{fill:url(#SVGID_4_);}
</style>
<g>
	<g>
		<g>
			<linearGradient id="SVGID_1_" gradientUnits="userSpaceOnUse" x1="216.1595" y1="546.9567" x2="282.1595" y2="64.9567">
				<stop  offset="0" style="stop-color:#004B98"/>
				<stop  offset="1" style="stop-color:#00C0FF"/>
			</linearGradient>
			<path class="st0" d="M256,192c-35.29,0-64,28.71-64,64s28.71,64,64,64s64-28.71,64-64S291.29,192,256,192z M256,277.33
				c-11.76,0-21.33-9.57-21.33-21.33c0-11.76,9.57-21.33,21.33-21.33s21.33,9.57,21.33,21.33
				C277.33,267.76,267.76,277.33,256,277.33z"/>
			<linearGradient id="SVGID_2_" gradientUnits="userSpaceOnUse" x1="216.1615" y1="546.957" x2="282.1615" y2="64.957">
				<stop  offset="0" style="stop-color:#004B98"/>
				<stop  offset="1" style="stop-color:#00C0FF"/>
			</linearGradient>
			<path class="st1" d="M343.97,173.45c-4.59,1.88-6.95,2.15-7.54,2.5c0.01-0.94,0.28-3.29,2.16-7.9c1.79-4.4,0.47-9.45-3.25-12.4
				c-2.68-2.13-5.42-4.2-8.26-6.1c-3.97-2.65-9.18-2.38-12.8,0.71c-3.88,3.26-6.06,4.23-6.51,4.74c-0.27-0.88-0.74-3.19-0.39-8.15
				c0.34-4.73-2.47-9.12-6.92-10.77c-3.21-1.2-6.47-2.27-9.81-3.21c-4.56-1.3-9.44,0.63-11.94,4.66c-2.65,4.26-4.39,5.83-4.64,6.45
				c-0.53-0.74-1.71-2.79-2.92-7.66c-1.13-4.49-6.9-7.85-11.51-8.17c-2.42-0.17-3.31-0.26-8.85,0.09c-4.74,0.19-8.79,3.48-9.94,8.07
				c-1.2,4.83-2.38,6.88-2.44,7.56c-0.73-0.54-2.48-2.13-5.1-6.37c-2.51-4.05-7.38-5.96-11.95-4.66c-3.32,0.94-6.58,2.02-9.79,3.21
				c-4.45,1.66-7.26,6.04-6.92,10.77c0.35,4.94-0.12,7.25,0.03,7.91c-0.88-0.28-3.06-1.26-6.93-4.51
				c-3.63-3.04-8.83-3.31-12.77-0.72c-2.87,1.91-5.6,3.99-8.29,6.12c-3.72,2.95-5.04,8-3.25,12.4c1.88,4.59,2.15,6.95,2.5,7.54
				c-0.94-0.01-3.29-0.28-7.9-2.16c-4.38-1.78-9.44-0.47-12.4,3.25c-2.13,2.69-4.21,5.43-6.12,8.29c-2.62,3.94-2.32,9.15,0.72,12.77
				c3.26,3.88,4.23,6.06,4.74,6.5c-0.88,0.28-3.17,0.72-8.16,0.4c-4.73-0.26-9.1,2.48-10.76,6.92c-1.19,3.21-2.27,6.47-3.21,9.79
				c-1.28,4.57,0.62,9.45,4.66,11.95c4.27,2.65,5.84,4.4,6.45,4.63c-0.74,0.53-2.78,1.72-7.66,2.93c-4.49,1.13-7.85,6.9-8.17,11.51
				c-0.08,1.21-0.16,2.42-0.16,3.64c0,1.23,0.07,2.44,0.25,5.21c0.19,4.74,3.48,8.79,8.07,9.94c4.83,1.2,6.9,2.38,7.56,2.44
				c-0.54,0.73-2.13,2.47-6.37,5.09c-4.04,2.5-5.94,7.38-4.66,11.96c0.94,3.32,2.02,6.58,3.21,9.79c1.66,4.44,5.88,7.45,10.77,6.92
				c1.44-0.1,2.65-0.14,3.67-0.14c2.46,0,3.78,0.21,4.24,0.1c-0.28,0.88-1.26,3.06-4.51,6.93c-3.04,3.63-3.33,8.83-0.72,12.77
				c1.91,2.86,3.99,5.6,6.12,8.29c2.95,3.73,7.98,5.02,12.4,3.25c4.59-1.88,6.95-2.15,7.54-2.5c-0.01,0.94-0.28,3.29-2.16,7.9
				c-1.79,4.4-0.47,9.45,3.25,12.4c2.69,2.13,5.43,4.21,8.29,6.11c3.91,2.58,9.13,2.3,12.77-0.72c3.88-3.26,6.06-4.23,6.5-4.74
				c0.28,0.88,0.75,3.19,0.4,8.15c-0.34,4.73,2.47,9.11,6.92,10.77c3.21,1.19,6.47,2.27,9.79,3.21c4.57,1.29,9.45-0.6,11.95-4.66
				c2.65-4.27,4.4-5.84,4.63-6.45c0.53,0.74,1.72,2.78,2.93,7.66c1.13,4.49,6.9,7.85,11.51,8.17c1.21,0.08,2.42,0.16,3.65,0.16
				c1.23,0,2.44-0.07,5.21-0.25c4.74-0.19,8.79-3.48,9.94-8.07c1.2-4.83,2.38-6.9,2.44-7.56c0.73,0.54,2.47,2.13,5.09,6.36
				c2.51,4.04,7.34,5.93,11.96,4.66c3.32-0.94,6.58-2.02,9.79-3.21c4.45-1.66,7.26-6.04,6.92-10.77c-0.35-4.94,0.11-7.25-0.04-7.92
				c0.89,0.29,3.07,1.27,6.94,4.52c3.65,3.04,8.83,3.31,12.77,0.72c2.86-1.91,5.6-3.99,8.29-6.11c3.72-2.95,5.04-8,3.25-12.4
				c-1.88-4.59-2.15-6.95-2.5-7.54c0.94,0.01,3.29,0.28,7.9,2.16c4.43,1.79,9.45,0.49,12.4-3.25c2.13-2.69,4.21-5.43,6.11-8.29
				c2.61-3.94,2.33-9.14-0.72-12.76c-3.26-3.89-4.23-6.07-4.74-6.52c0.9-0.26,3.21-0.73,8.15-0.39c4.98,0.47,9.11-2.48,10.77-6.92
				c1.2-3.21,2.27-6.47,3.21-9.81c1.28-4.57-0.61-9.44-4.66-11.94c-4.26-2.65-5.83-4.39-6.45-4.64c0.74-0.53,2.79-1.71,7.66-2.92
				c4.49-1.13,7.85-6.9,8.17-11.51c0.08-1.21,0.16-2.42,0.16-3.65c0-1.23-0.07-2.44-0.25-5.21c-0.19-4.74-3.48-8.79-8.07-9.94
				c-4.83-1.2-6.9-2.38-7.56-2.44c0.54-0.73,2.13-2.47,6.36-5.09c4.04-2.5,5.94-7.38,4.66-11.96c-0.94-3.32-2.02-6.58-3.21-9.79
				c-1.66-4.44-5.78-7.18-10.77-6.92c-1.44,0.1-2.66,0.13-3.67,0.13c-2.48-0.01-3.74-0.24-4.25-0.1c0.29-0.88,1.26-3.05,4.51-6.93
				c3.05-3.63,3.35-8.82,0.73-12.77c-1.91-2.87-3.99-5.6-6.11-8.29C353.4,172.96,348.35,171.66,343.97,173.45z M256,341.33
				c-47.05,0-85.33-38.28-85.33-85.33s38.28-85.33,85.33-85.33s85.33,38.28,85.33,85.33S303.05,341.33,256,341.33z"/>
			<linearGradient id="SVGID_3_" gradientUnits="userSpaceOnUse" x1="216.1535" y1="546.9559" x2="282.1535" y2="64.9559">
				<stop  offset="0" style="stop-color:#004B98"/>
				<stop  offset="1" style="stop-color:#00C0FF"/>
			</linearGradient>
			<path class="st2" d="M511.65,247.89l-0.24-3.9c-0.17-3.6-2.14-6.88-5.24-8.7c-16.19-9.54-18.15-14.73-18.35-16.09
				c-0.23-1.43,0.01-7.19,12.49-21.17c2.41-2.7,3.28-6.44,2.33-9.93c-2.09-7.62-4.54-15.09-7.3-22.41
				c-1.27-3.38-4.17-5.88-7.69-6.65c-18.36-4.04-21.86-8.42-22.5-9.67c-0.65-1.26-2.16-6.72,5.42-24.18
				c1.43-3.3,1.09-7.11-0.9-10.13c-4.3-6.51-8.92-12.79-13.78-18.88c-2.26-2.81-5.83-4.25-9.36-3.95
				c-18.92,1.83-23.59-1.27-24.58-2.25c-0.99-0.99-4.08-5.69-2.25-24.59c0.35-3.6-1.14-7.1-3.95-9.37
				c-6.08-4.87-12.35-9.48-18.88-13.79c-3.01-2-6.83-2.35-10.14-0.88c-17.45,7.57-22.92,6.05-24.17,5.42
				c-1.24-0.63-5.63-4.15-9.67-22.51c-0.77-3.52-3.28-6.42-6.66-7.69c-7.33-2.76-14.79-5.21-22.41-7.3
				c-3.52-0.94-7.23-0.08-9.93,2.33c-14,12.49-19.7,12.77-21.17,12.49c-1.35-0.21-6.54-2.17-16.09-18.37
				c-1.82-3.08-5.08-5.05-8.67-5.23l-3.74-0.23c-5.46-0.38-11.02-0.38-16.48,0l-3.75,0.23c-3.58,0.18-6.84,2.15-8.67,5.24
				c-9.54,16.19-14.73,18.15-16.08,18.36c-1.34,0.29-7.16,0.01-21.18-12.49c-2.68-2.42-6.4-3.27-9.92-2.33
				c-7.62,2.09-15.08,4.54-22.41,7.3c-3.38,1.27-5.88,4.17-6.65,7.69c-4.04,18.37-8.42,21.87-9.67,22.5
				c-1.25,0.65-6.72,2.15-24.17-5.41c-3.3-1.47-7.11-1.12-10.11,0.88c-6.52,4.31-12.8,8.93-18.9,13.79
				c-2.81,2.26-4.3,5.77-3.95,9.37c1.83,18.89-1.26,23.6-2.25,24.59c-1,0.99-5.71,4.08-24.58,2.25c-3.52-0.39-7.1,1.14-9.36,3.95
				c-4.86,6.08-9.48,12.36-13.79,18.88c-1.99,3.01-2.32,6.82-0.88,10.14c7.57,17.44,6.06,22.91,5.42,24.18
				c-0.63,1.24-4.13,5.62-22.51,9.66c-3.52,0.77-6.42,3.28-7.69,6.66c-2.76,7.34-5.21,14.79-7.3,22.41
				c-0.95,3.49-0.07,7.23,2.33,9.93c12.48,13.98,12.72,19.74,12.49,21.17c-0.21,1.35-2.17,6.54-18.35,16.09
				c-3.1,1.82-5.07,5.1-5.24,8.7l-0.24,3.9C0.18,250.57,0,253.24,0,255.96c0,2.72,0.18,5.4,0.35,8.06l0.24,3.89
				c0.17,3.6,2.14,6.87,5.23,8.7c16.2,9.55,18.16,14.74,18.36,16.1c0.23,1.43-0.01,7.18-12.49,21.18c-2.41,2.69-3.28,6.43-2.33,9.92
				c2.09,7.62,4.54,15.09,7.3,22.41c1.27,3.38,4.17,5.88,7.69,6.65c18.37,4.04,21.87,8.42,22.5,9.67c0.65,1.26,2.16,6.72-5.41,24.17
				c-1.44,3.3-1.1,7.11,0.88,10.12c4.31,6.52,8.93,12.8,13.79,18.9c2.26,2.81,5.73,4.26,9.36,3.95c18.91-1.85,23.59,1.26,24.58,2.25
				c0.99,0.99,4.08,5.69,2.25,24.59c-0.35,3.59,1.14,7.1,3.95,9.37c6.09,4.86,12.36,9.48,18.89,13.79c2.99,1.97,6.8,2.31,10.11,0.88
				c17.49-7.57,22.9-6.06,24.19-5.41c1.24,0.64,5.62,4.14,9.66,22.51c0.77,3.52,3.28,6.42,6.66,7.69c7.33,2.76,14.79,5.21,22.41,7.3
				c3.52,0.94,7.23,0.07,9.93-2.33c14.01-12.48,19.72-12.81,21.17-12.49c1.35,0.21,6.54,2.17,16.09,18.37
				c1.83,3.09,5.1,5.06,8.7,5.23l3.88,0.24c2.67,0.18,5.34,0.35,8.06,0.35c2.72,0,5.39-0.18,8.06-0.35l3.9-0.24
				c3.6-0.17,6.88-2.14,8.7-5.24c9.54-16.19,14.73-18.15,16.08-18.36c1.44-0.27,7.16,0,21.18,12.49c2.68,2.41,6.4,3.27,9.92,2.33
				c7.61-2.1,15.08-4.54,22.41-7.3c3.38-1.27,5.88-4.17,6.65-7.69c4.04-18.37,8.42-21.87,9.67-22.5c1.26-0.65,6.71-2.14,24.17,5.41
				c3.29,1.43,7.1,1.1,10.11-0.88c6.52-4.31,12.8-8.93,18.9-13.79c2.81-2.26,4.3-5.77,3.95-9.37c-1.83-18.9,1.26-23.6,2.25-24.59
				c0.99-0.99,5.67-4.08,24.58-2.25c3.55,0.31,7.1-1.15,9.36-3.95c4.86-6.08,9.48-12.36,13.79-18.88c1.99-3.01,2.32-6.82,0.89-10.14
				c-7.57-17.44-6.06-22.91-5.42-24.18c0.64-1.24,4.14-5.62,22.51-9.66c3.52-0.77,6.42-3.28,7.69-6.66
				c2.76-7.33,5.21-14.79,7.3-22.41c0.95-3.49,0.07-7.23-2.33-9.93c-12.48-13.98-12.72-19.74-12.49-21.17
				c0.21-1.35,2.17-6.54,18.36-16.1c3.09-1.83,5.06-5.1,5.23-8.7l0.24-3.89c0.18-2.67,0.35-5.35,0.35-8.06
				C512,253.24,511.82,250.57,511.65,247.89z M256,469.33c-117.64,0-213.33-95.71-213.33-213.37c0-117.66,95.7-213.37,213.33-213.37
				s213.33,95.71,213.33,213.37S373.64,469.33,256,469.33z"/>
			<linearGradient id="SVGID_4_" gradientUnits="userSpaceOnUse" x1="216.1582" y1="546.9565" x2="282.1582" y2="64.9565">
				<stop  offset="0" style="stop-color:#004B98"/>
				<stop  offset="1" style="stop-color:#00C0FF"/>
			</linearGradient>
			<path class="st3" d="M394.93,133.02c-13.75,3.97-17.4,1.52-17.42,1.5c-0.03-0.03-2.49-3.65,1.49-17.44
				c1.2-4.16-0.23-8.64-3.63-11.32c-4.29-3.4-8.68-6.68-13.25-9.72c-3.61-2.41-8.3-2.39-11.88,0.04
				c-11.95,8.06-16.18,6.88-16.23,6.79c-0.03-0.02-3.48-2.72-3.95-16.94c-0.14-4.32-2.88-8.13-6.93-9.64
				c-5.15-1.93-10.38-3.66-15.72-5.14c-4.2-1.16-8.64,0.32-11.27,3.75c-7.74,9.98-12.5,11.34-13.23,11.36
				c-0.04-0.01-4.17-1.64-8.98-14.86c-1.48-4.07-5.27-6.84-9.6-7.01l-2.79-0.17c-3.67-0.25-7.44-0.25-11.1,0l-2.79,0.17
				c-4.33,0.17-8.13,2.94-9.6,7.01c-4.81,13.23-8.94,14.85-8.96,14.85c-1.02,0.18-5.6-1.5-13.23-11.36
				c-2.66-3.44-7.15-4.93-11.3-3.74c-5.33,1.49-10.56,3.22-15.7,5.14c-4.05,1.51-6.79,5.31-6.93,9.64
				c-0.48,14.25-3.93,16.93-3.93,16.93c-0.02,0.03-4.26,1.29-16.24-6.79c-3.59-2.42-8.28-2.44-11.88-0.04
				c-4.57,3.04-8.96,6.32-13.25,9.72c-3.4,2.7-4.82,7.17-3.63,11.32c3.97,13.74,1.52,17.41,1.5,17.42
				c-0.01,0.03-3.68,2.5-17.44-1.49c-4.14-1.2-8.61,0.24-11.32,3.63c-3.4,4.29-6.68,8.68-9.72,13.25
				c-2.39,3.59-2.38,8.29,0.04,11.88c8.07,11.97,6.81,16.2,6.8,16.22c-0.03,0.04-2.74,3.49-16.95,3.96
				c-4.32,0.13-8.13,2.88-9.64,6.93c-1.93,5.15-3.66,10.38-5.14,15.72c-1.16,4.17,0.32,8.63,3.75,11.27
				c9.95,7.72,11.49,12.42,11.36,13.23c-0.01,0.04-1.64,4.17-14.85,8.96c-4.08,1.48-6.85,5.28-7.02,9.62l-0.17,2.8
				C64.11,252.29,64,254.12,64,256c0,1.87,0.11,3.72,0.24,5.55l0.17,2.79c0.17,4.33,2.94,8.13,7.01,9.6
				c13.23,4.81,14.85,8.94,14.85,8.96c0.14,0.83-1.41,5.53-11.36,13.23c-3.43,2.66-4.91,7.13-3.74,11.3
				c1.49,5.33,3.22,10.56,5.14,15.7c1.51,4.05,5.31,6.79,9.64,6.93c14.25,0.48,16.93,3.93,16.93,3.93
				c0.02,0.04,1.29,4.27-6.79,16.24c-2.42,3.58-2.43,8.28-0.04,11.88c3.04,4.57,6.31,8.97,9.73,13.26c2.7,3.39,7.19,4.79,11.31,3.61
				c13.75-3.96,17.41-1.53,17.42-1.5c0.03,0.03,2.49,3.65-1.49,17.43c-1.2,4.15,0.23,8.61,3.62,11.31c4.29,3.42,8.69,6.7,13.26,9.74
				c3.58,2.38,8.27,2.38,11.88-0.04c11.96-8.06,16.21-6.8,16.23-6.79c0.03,0.02,3.48,2.72,3.95,16.94c0.13,4.32,2.88,8.13,6.93,9.64
				c5.15,1.93,10.38,3.66,15.72,5.14c4.13,1.13,8.62-0.33,11.27-3.75c7.73-9.97,12.62-11.32,13.23-11.36
				c0.04,0.01,4.17,1.64,8.98,14.86c1.48,4.07,5.27,6.84,9.6,7.01l2.79,0.17c1.83,0.13,3.68,0.24,5.55,0.24s3.72-0.11,5.55-0.24
				l2.79-0.17c4.33-0.17,8.13-2.94,9.6-7.01c4.82-13.25,8.95-14.86,8.95-14.86c1.01-0.24,5.53,1.41,13.24,11.38
				c2.66,3.42,7.14,4.91,11.3,3.74c5.33-1.49,10.56-3.22,15.7-5.14c4.05-1.51,6.79-5.31,6.93-9.64c0.47-14.21,3.92-16.92,3.94-16.94
				c0.04,0.03,4.24-1.29,16.23,6.8c3.58,2.43,8.27,2.43,11.88,0.04c4.57-3.04,8.96-6.32,13.25-9.72c3.4-2.7,4.82-7.17,3.63-11.32
				c-3.97-13.74-1.52-17.41-1.5-17.42c0.01-0.03,3.68-2.51,17.44,1.49c4.16,1.19,8.63-0.23,11.32-3.63
				c3.4-4.29,6.68-8.68,9.72-13.25c2.39-3.59,2.38-8.29-0.04-11.88c-8.07-11.97-6.81-16.2-6.79-16.23s2.72-3.48,16.94-3.95
				c4.32-0.14,8.13-2.88,9.64-6.93c1.93-5.15,3.66-10.38,5.14-15.72c1.16-4.17-0.32-8.63-3.75-11.27
				c-9.95-7.72-11.49-12.42-11.36-13.24c0.01-0.03,1.63-4.15,14.86-8.97c4.07-1.48,6.84-5.27,7.01-9.6l0.17-2.79
				c0.13-1.83,0.24-3.68,0.24-5.55c0-1.88-0.11-3.71-0.24-5.55l-0.17-2.8c-0.17-4.33-2.94-8.13-7.02-9.62
				c-13.22-4.79-14.84-8.92-14.84-8.94c-0.14-0.83,1.41-5.53,11.36-13.23c3.43-2.66,4.91-7.13,3.74-11.3
				c-1.49-5.33-3.22-10.56-5.14-15.7c-1.51-4.05-5.31-6.79-9.64-6.93c-14.25-0.48-16.93-3.93-16.93-3.93
				c-0.02-0.04-1.29-4.27,6.79-16.24c2.42-3.58,2.43-8.28,0.04-11.88c-3.04-4.57-6.32-8.97-9.73-13.26
				C403.53,133.26,399.06,131.81,394.93,133.02z M256,405.33c-82.34,0-149.33-66.99-149.33-149.33S173.66,106.67,256,106.67
				S405.33,173.66,405.33,256S338.34,405.33,256,405.33z"/>
		</g>
	</g>
</g>
</svg>
