<?xml version="1.0" encoding="utf-8"?>
<!-- Generator: Adobe Illustrator 23.0.3, SVG Export Plug-In . SVG Version: 6.00 Build 0)  -->
<svg version="1.1" id="Capa_1" xmlns="http://www.w3.org/2000/svg" xmlns:xlink="http://www.w3.org/1999/xlink" x="0px" y="0px"
	 viewBox="0 0 469.33 469.33" style="enable-background:new 0 0 469.33 469.33;" xml:space="preserve">
<style type="text/css">
	.st0{fill:url(#SVGID_1_);}
	.st1{fill:url(#SVGID_2_);}
	.st2{fill:url(#SVGID_3_);}
</style>
<g>
	<g>
		<g>
			<linearGradient id="SVGID_1_" gradientUnits="userSpaceOnUse" x1="93.4854" y1="496.8393" x2="80.4854" y2="62.8393">
				<stop  offset="0" style="stop-color:#004B98"/>
				<stop  offset="1" style="stop-color:#00C0FF"/>
			</linearGradient>
			<path class="st0" d="M172.75,357.27c-28.52-9.45-51.25-32.13-60.75-60.67c-1.15-3.44-3.98-6.06-7.5-6.96
				c-3.48-0.95-7.25,0.04-9.9,2.53c-8.21,7.66-16.9,13.79-25.81,18.24c-19.35,9.65-36.9,21.41-46.92,31.46
				C7.77,355.97,0,374.72,0,394.67s7.77,38.7,21.88,52.79c14.08,14.1,32.83,21.88,52.79,21.88s38.71-7.77,52.79-21.88
				c10.06-10.06,21.83-27.59,31.46-46.92c4.44-8.89,10.58-17.59,18.29-25.89c2.48-2.66,3.42-6.4,2.52-9.91
				C178.83,361.23,176.19,358.42,172.75,357.27z M74.67,426.19c-17.65,0-32-14.35-32-32s14.35-32,32-32s32,14.35,32,32
				C106.67,411.83,92.31,426.19,74.67,426.19z"/>
			<linearGradient id="SVGID_2_" gradientUnits="userSpaceOnUse" x1="225.0522" y1="492.8983" x2="212.0522" y2="58.8983">
				<stop  offset="0" style="stop-color:#004B98"/>
				<stop  offset="1" style="stop-color:#00C0FF"/>
			</linearGradient>
			<path class="st1" d="M298.67,266.67c0-11.78,2.33-27.67,6.54-44.73c0.77-3.13,0.08-6.45-1.85-9.02
				c-1.96-2.56-4.98-4.12-8.19-4.21c-12-0.34-23.35-2.2-33.79-5.53c-22.1-7.06-44.04-11.27-58.71-11.27
				c-41.17,0-74.67,33.5-74.67,74.67s33.5,74.67,74.67,74.67c14.67,0,36.6-4.21,58.71-11.27c12.19-3.9,24.96-6.14,37.9-5.78
				c0,0,0.02,0,0.04,0c3.69,0,7.1-1.9,9.04-5.02c1.96-3.14,2.17-7.06,0.52-10.38C302.1,295.08,298.67,280.92,298.67,266.67z
				 M202.67,298.19c-17.65,0-32-14.35-32-32s14.35-32,32-32s32,14.35,32,32S220.31,298.19,202.67,298.19z"/>
			<linearGradient id="SVGID_3_" gradientUnits="userSpaceOnUse" x1="404.1584" y1="487.5334" x2="391.1584" y2="53.5334">
				<stop  offset="0" style="stop-color:#004B98"/>
				<stop  offset="1" style="stop-color:#00C0FF"/>
			</linearGradient>
			<path class="st2" d="M458.06,133.37c7.06-22.05,11.27-44,11.27-58.71C469.33,33.5,435.83,0,394.67,0C353.5,0,320,33.5,320,74.67
				c0,14.71,4.21,36.66,11.27,58.7c7.79,24.41,7.79,50.2,0,74.59c-7.06,22.05-11.27,44-11.27,58.71c0,41.17,33.5,74.67,74.67,74.67
				s74.67-33.5,74.67-74.67c0-14.71-4.21-36.66-11.27-58.7C450.27,183.56,450.27,157.77,458.06,133.37z M394.67,298.57
				c-17.65,0-32-14.35-32-32s14.35-32,32-32s32,14.35,32,32S412.31,298.57,394.67,298.57z M394.67,106.57c-17.65,0-32-14.35-32-32
				s14.35-32,32-32s32,14.35,32,32S412.31,106.57,394.67,106.57z"/>
		</g>
	</g>
</g>
</svg>
