<?xml version="1.0" encoding="utf-8"?>
<!-- Generator: Adobe Illustrator 23.0.3, SVG Export Plug-In . SVG Version: 6.00 Build 0)  -->
<svg version="1.1" id="Слой_1" xmlns="http://www.w3.org/2000/svg" xmlns:xlink="http://www.w3.org/1999/xlink" x="0px" y="0px"
	 viewBox="0 0 512 512" style="enable-background:new 0 0 512 512;" xml:space="preserve">
<style type="text/css">
	.st0{fill:url(#SVGID_1_);}
	.st1{fill:url(#SVGID_2_);}
	.st2{fill:url(#SVGID_3_);}
	.st3{fill:url(#SVGID_4_);}
	.st4{fill:url(#SVGID_5_);}
	.st5{fill:url(#SVGID_6_);}
</style>
<linearGradient id="SVGID_1_" gradientUnits="userSpaceOnUse" x1="190.1673" y1="561.5614" x2="193.1673" y2="37.5614">
	<stop  offset="0" style="stop-color:#004B98"/>
	<stop  offset="1" style="stop-color:#00C0FF"/>
</linearGradient>
<path class="st0" d="M336.33,0H111.4c-3.98,0-7.79,1.58-10.61,4.39l-96.4,96.4C1.58,103.61,0,107.42,0,111.4v353.47
	C0,490.86,21.14,512,47.13,512h289.2c12.6,0,24.44-4.91,33.33-13.81c8.9-8.9,13.8-20.73,13.8-33.32V47.13
	c0-12.59-4.9-24.43-13.8-33.32C360.77,4.91,348.93,0,336.33,0z M112.47,35.14v60.19c0,9.45-7.69,17.13-17.13,17.13H35.14
	L112.47,35.14z M353.47,464.87c0,4.57-1.79,8.88-5.03,12.12c-3.23,3.23-7.53,5.02-12.11,5.02H47.13C37.69,482,30,474.31,30,464.87
	v-322.4h65.33c25.99,0,47.13-21.14,47.13-47.13V30h193.87c4.58,0,8.88,1.78,12.12,5.02c3.23,3.23,5.02,7.54,5.02,12.11
	L353.47,464.87L353.47,464.87z"/>
<linearGradient id="SVGID_2_" gradientUnits="userSpaceOnUse" x1="189.7071" y1="561.5587" x2="192.7071" y2="37.5587">
	<stop  offset="0" style="stop-color:#004B98"/>
	<stop  offset="1" style="stop-color:#00C0FF"/>
</linearGradient>
<path class="st1" d="M288.13,192.8H95.33c-8.28,0-15,6.71-15,15s6.72,15,15,15h192.8c8.29,0,15-6.71,15-15
	S296.42,192.8,288.13,192.8z"/>
<linearGradient id="SVGID_3_" gradientUnits="userSpaceOnUse" x1="190.075" y1="561.5609" x2="193.075" y2="37.5608">
	<stop  offset="0" style="stop-color:#004B98"/>
	<stop  offset="1" style="stop-color:#00C0FF"/>
</linearGradient>
<path class="st2" d="M288.13,257.07H95.33c-8.28,0-15,6.71-15,15s6.72,15,15,15h192.8c8.29,0,15-6.71,15-15
	S296.42,257.07,288.13,257.07z"/>
<linearGradient id="SVGID_4_" gradientUnits="userSpaceOnUse" x1="190.4429" y1="561.5629" x2="193.4429" y2="37.563">
	<stop  offset="0" style="stop-color:#004B98"/>
	<stop  offset="1" style="stop-color:#00C0FF"/>
</linearGradient>
<path class="st3" d="M288.13,321.33H95.33c-8.28,0-15,6.72-15,15c0,8.29,6.72,15,15,15h192.8c8.29,0,15-6.71,15-15
	C303.13,328.05,296.42,321.33,288.13,321.33z"/>
<linearGradient id="SVGID_5_" gradientUnits="userSpaceOnUse" x1="142.6132" y1="561.2891" x2="145.6132" y2="37.2891">
	<stop  offset="0" style="stop-color:#004B98"/>
	<stop  offset="1" style="stop-color:#00C0FF"/>
</linearGradient>
<path class="st4" d="M191.73,385.6h-96.4c-8.28,0-15,6.71-15,15c0,8.28,6.72,15,15,15h96.4c8.28,0,15-6.72,15-15
	C206.73,392.32,200.02,385.6,191.73,385.6z"/>
<linearGradient id="SVGID_6_" gradientUnits="userSpaceOnUse" x1="462.8134" y1="563.1223" x2="465.8134" y2="39.1223">
	<stop  offset="0" style="stop-color:#004B98"/>
	<stop  offset="1" style="stop-color:#00C0FF"/>
</linearGradient>
<path class="st5" d="M464.87,0c-25.99,0-47.13,21.14-47.13,47.13v313.75c0,49.32,11.66,98.71,33.72,142.82
	c2.54,5.08,7.73,8.29,13.41,8.29c5.68,0,10.88-3.21,13.42-8.29C500.34,459.59,512,410.2,512,360.88V47.13
	C512,21.14,490.86,0,464.87,0z M464.87,30c9.45,0,17.13,7.69,17.13,17.13v33.2h-34.27v-33.2C447.73,37.69,455.42,30,464.87,30z
	 M482,353.47h-34.27V110.33H482V353.47z M464.87,458.91c-8.72-24.28-14.19-49.73-16.22-75.44h32.45
	C479.05,409.18,473.58,434.63,464.87,458.91z"/>
</svg>
