<?xml version="1.0" encoding="utf-8"?>
<!-- Generator: Adobe Illustrator 23.0.3, SVG Export Plug-In . SVG Version: 6.00 Build 0)  -->
<svg version="1.1" id="Capa_1" xmlns="http://www.w3.org/2000/svg" xmlns:xlink="http://www.w3.org/1999/xlink" x="0px" y="0px"
	 viewBox="0 0 512 512" style="enable-background:new 0 0 512 512;" xml:space="preserve">
<style type="text/css">
	.st0{fill:url(#SVGID_1_);}
</style>
<linearGradient id="SVGID_1_" gradientUnits="userSpaceOnUse" x1="257.6042" y1="562.9729" x2="253.6042" y2="54.9729">
	<stop  offset="0" style="stop-color:#004B98"/>
	<stop  offset="1" style="stop-color:#00C0FF"/>
</linearGradient>
<path class="st0" d="M288,156v-52.5l6-12V14.8C289.3,9,281.5,5,272,5h-32c-10,0-18.1,4.4-22.7,10.7H214V80c0.5,3.2,1.4,6.4,2.9,9.4
	l7.1,14.2V156c-32.2,13-83.3,43.7-83.3,78.8v261.6c0,5.9,4.8,10.7,10.7,10.7H194c5.9,0,10.7-4.8,10.7-10.7V300h102.6v196.4
	c0,5.9,4.8,10.7,10.7,10.7h42.7c5.9,0,10.7-4.8,10.7-10.7V234.8C371.3,199.7,320.2,169,288,156z M204.7,261v-26.2
	c0-11.8,39.6-21.3,51.3-21.3s51.3,9.6,51.3,21.3V261H204.7z"/>
</svg>
