<?xml version="1.0" encoding="utf-8"?>
<!-- Generator: Adobe Illustrator 23.0.3, SVG Export Plug-In . SVG Version: 6.00 Build 0)  -->
<svg version="1.1" id="Capa_1" xmlns="http://www.w3.org/2000/svg" xmlns:xlink="http://www.w3.org/1999/xlink" x="0px" y="0px"
	 viewBox="0 0 512 512" style="enable-background:new 0 0 512 512;" xml:space="preserve">
<style type="text/css">
	.st0{fill:url(#SVGID_1_);}
</style>
<g>
	<g>
		<linearGradient id="SVGID_1_" gradientUnits="userSpaceOnUse" x1="254.9665" y1="511.0059" x2="255.9665" y2="89.0059">
			<stop  offset="0" style="stop-color:#004B98"/>
			<stop  offset="1" style="stop-color:#00C0FF"/>
		</linearGradient>
		<path class="st0" d="M501.33,42.67H384c-23.53,0-42.67,19.14-42.67,42.67v21.33H170.67V85.33c0-23.53-19.13-42.67-42.67-42.67
			H10.67C4.77,42.67,0,47.44,0,53.33V96c0,5.9,4.77,10.67,10.67,10.67h96v42.67c0,61.29,47.25,111.67,107.22,116.82
			c0.51,3.47,1.38,6.91,3.03,10.21l7.08,14.15v36.05c-32.21,12.96-53.33,43.68-53.33,78.76v53.33c0,5.9,4.77,10.67,10.67,10.67H224
			c5.9,0,10.67-4.77,10.67-10.67v-53.33c0-11.76,9.57-21.33,21.33-21.33s21.33,9.57,21.33,21.33v53.33c0,5.9,4.77,10.67,10.67,10.67
			h42.67c5.9,0,10.67-4.77,10.67-10.67v-53.33c0-35.08-21.13-65.8-53.33-78.76v-36.05l7.08-14.17c1.64-3.3,2.51-6.73,3.03-10.2
			c59.97-5.15,107.22-55.54,107.22-116.82v-42.67h96c5.9,0,10.67-4.77,10.67-10.67V53.33C512,47.44,507.23,42.67,501.33,42.67z
			 M341.33,149.33c0,27.29-20.69,49.61-47.16,52.71C289.49,196.1,281.61,192,272,192h-32c-9.61,0-17.49,4.1-22.17,10.04
			c-26.47-3.1-47.16-25.42-47.16-52.71V128h170.67L341.33,149.33L341.33,149.33z"/>
	</g>
</g>
</svg>
