<?xml version="1.0" encoding="utf-8"?>
<!-- Generator: Adobe Illustrator 23.0.3, SVG Export Plug-In . SVG Version: 6.00 Build 0)  -->
<svg version="1.1" id="Layer_1" xmlns="http://www.w3.org/2000/svg" xmlns:xlink="http://www.w3.org/1999/xlink" x="0px" y="0px"
	 viewBox="0 0 512 512" style="enable-background:new 0 0 512 512;" xml:space="preserve">
<path fill="rgb(255,255,255)" d="M239.95,0h-92.52C99.47,0,54.37,18.68,20.46,52.59c-5.86,5.86-5.86,15.36,0,21.21l37.59,37.59L4.39,165.06
	c-4.57,4.57-5.7,11.54-2.81,17.31l43.95,87.9c6.84,13.69,19.95,23.32,35.06,25.77c3.51,0.57,16.36,2.4,30.35-5.14l146.13,116.91V497
	c0,8.28,6.72,15,15,15s15-6.72,15-15v-92.86l58.54-117.07H497c8.28,0,15-6.73,15-15.02C512,121.77,390.41,0,239.95,0L239.95,0z
	 M100.8,261.45c-0.02,0.02-0.04,0.04-0.06,0.06c-4.02,3.99-9.75,5.83-15.35,4.92c-5.62-0.91-10.49-4.49-13.03-9.58l-39.12-78.23
	l52.14-52.14c26.6,0.74,52.54,6.27,77.19,16.49c26.55,11,50.31,26.88,70.63,47.2l23.36,23.36c-10.67-2.02-21.62-3.05-32.72-3.05
	C177.38,210.48,133.67,228.58,100.8,261.45z M266.95,377.3L134.63,271.44c25.32-20.06,56.44-30.96,89.24-30.96
	c34.9,0,67.9,12.33,94.03,34.91L266.95,377.3z M342.55,257.07l-88.11-88.11c-23.12-23.12-50.16-41.19-80.37-53.7
	c-28.27-11.71-58.01-18.02-88.51-18.78L52.8,63.72C79.44,41.88,112.52,30,147.43,30h92.52c128.79,0,233.9,100.35,241.6,227.07
	H342.55z"/>
</svg>
