<?xml version="1.0" encoding="utf-8"?>
<!-- Generator: Adobe Illustrator 23.0.3, SVG Export Plug-In . SVG Version: 6.00 Build 0)  -->
<svg version="1.1" id="Capa_1" xmlns="http://www.w3.org/2000/svg" xmlns:xlink="http://www.w3.org/1999/xlink" x="0px" y="0px"
	 viewBox="0 0 512 512" style="enable-background:new 0 0 512 512;" xml:space="preserve">
<style type="text/css">
	.st0{fill:url(#SVGID_1_);}
	.st1{fill:url(#SVGID_2_);}
	.st2{fill:url(#SVGID_3_);}
	.st3{fill:url(#SVGID_4_);}
</style>
<g>
	<linearGradient id="SVGID_1_" gradientUnits="userSpaceOnUse" x1="122.7685" y1="537.7164" x2="142.7685" y2="82.7164">
		<stop  offset="0" style="stop-color:#004B98"/>
		<stop  offset="1" style="stop-color:#00C0FF"/>
	</linearGradient>
	<path class="st0" d="M136,186.7c-27.57,0-50,22.43-50,50c0,27.57,22.43,50,50,50s50-22.43,50-50C186,209.13,163.57,186.7,136,186.7
		z M136,258.7c-12.13,0-22-9.87-22-22c0-12.13,9.87-22,22-22s22,9.87,22,22C158,248.83,148.13,258.7,136,258.7z"/>
	<linearGradient id="SVGID_2_" gradientUnits="userSpaceOnUse" x1="255.4439" y1="543.5482" x2="275.4439" y2="88.5482">
		<stop  offset="0" style="stop-color:#004B98"/>
		<stop  offset="1" style="stop-color:#00C0FF"/>
	</linearGradient>
	<path class="st1" d="M237.4,403.5c0,13.34,10.86,24.2,24.2,24.2s24.2-10.86,24.2-24.2s-10.86-24.2-24.2-24.2
		S237.4,390.16,237.4,403.5z M261.6,399.7c2.1,0,3.8,1.7,3.8,3.8s-1.71,3.8-3.8,3.8s-3.8-1.7-3.8-3.8S259.5,399.7,261.6,399.7z"/>
	<linearGradient id="SVGID_3_" gradientUnits="userSpaceOnUse" x1="105.9327" y1="536.9763" x2="125.9327" y2="81.9763">
		<stop  offset="0" style="stop-color:#004B98"/>
		<stop  offset="1" style="stop-color:#00C0FF"/>
	</linearGradient>
	<path class="st2" d="M174.5,399.74c-1.12-3.92-4.01-7.09-7.82-8.56c-3.8-1.47-8.08-1.07-11.55,1.08
		c-0.27,0.17-27.09,16.71-64.62,31.55c-39.82,15.74-61.07,28.79-61.96,29.33c-4.71,2.91-7.06,8.49-5.85,13.9
		c0.51,2.29,5.6,22.71,25.88,33.15c7.34,3.78,15.53,5.67,24.51,5.67c10.86,0,22.88-2.76,35.97-8.29
		c45.03-19.08,63.52-13.07,66.18-11.99c4.3,3.53,9.87,3.47,14.61,0.46c4.86-3.09,6.51-9.46,4.94-14.99L174.5,399.74z M98.95,473.62
		c-16.1,6.79-29.31,8.03-38.22,3.57c-3.82-1.91-6.58-4.73-8.53-7.47c9.5-5.01,25.66-12.94,47.88-21.73
		c22.88-9.05,41.79-18.57,53.96-25.17L164,457.8C149.59,457.68,128.53,461.09,98.95,473.62z"/>
	<linearGradient id="SVGID_4_" gradientUnits="userSpaceOnUse" x1="241.1369" y1="542.9194" x2="261.1369" y2="87.9194">
		<stop  offset="0" style="stop-color:#004B98"/>
		<stop  offset="1" style="stop-color:#00C0FF"/>
	</linearGradient>
	<path class="st3" d="M499.12,33.8c-7.96-18.24-22.36-29.83-40.55-32.63c-17.6-2.7-36.67,3.8-47.49,16.22
		c-14.81,17.11-11.37,42.57-8.45,55.02l-59.61,75.54l-123.27,25.82c-19.14-25.4-49.55-41.86-83.74-41.86
		c-43.59,0-81.05,26.75-96.82,64.7c-8.08,17.01-19.52,52.56-22.96,121.05c-3.55,70.61-7.94,86.83-8.67,89.09
		c-2.89,5.6-1.35,12.57,3.81,16.4c2.32,1.72,5.04,2.56,7.74,2.56c3.72,0,7.41-1.59,9.97-4.65c0.38-0.45,0.82-0.98,1.33-1.87
		c2.44-3.68,15.35-23.04,30.7-42.5c24.42-30.97,36.43-38.88,40.77-40.89c10.7,3.7,22.19,5.71,34.13,5.71c9.8,0,19.3-1.36,28.3-3.89
		l42.19,134.48c1.06,3.37,3.44,6.16,6.6,7.74c1.82,0.91,3.81,1.37,5.81,1.37c1.47,0,2.94-0.25,4.35-0.75l102-36.2
		c6.73-2.39,10.27-9.76,7.94-16.5c-8.27-23.87-26.85-77.51-42.33-121.91l50.65-33.05c3.26-2.13,5.4-5.61,5.82-9.48l5.29-48.51
		l0.47-0.15l27.2-9c2.37-0.78,4.46-2.23,6.03-4.17l83.17-102.98c7.38-3.4,23.59-12.49,30.64-29.11
		C504.8,58.34,504.46,46.04,499.12,33.8z M73.22,324.61c-8.72,7.77-18.84,18.84-30.1,32.89c-1.23,1.53-2.44,3.07-3.64,4.6
		c0.92-11.78,1.83-25.98,2.69-43.14c0.57-11.38,1.37-21.75,2.33-31.18c7.71,13.75,18.42,25.59,31.24,34.64
		C74.93,323.11,74.08,323.85,73.22,324.61z M59.2,236.7c0-42.35,34.45-76.8,76.8-76.8s76.8,34.45,76.8,76.8
		c0,42.35-34.45,76.8-76.8,76.8S59.2,279.05,59.2,236.7z M227.27,451.44l-38.9-123.98c26.64-15.43,45.89-42.26,51.05-73.76
		c1.98-0.29,3.83-0.51,5.4-0.63c8.34,23.37,37.58,107.52,59.58,171.01L227.27,451.44z M322.14,254.37l-40.11,26.17
		c-5.89-16.84-10.7-30.52-13.36-37.93l56.81-18.83L322.14,254.37z M476.22,59.14c-3.7,8.84-15.27,14.91-19.36,16.48
		c-2.18,0.81-4.11,2.2-5.57,4.01l-82.8,102.53l-23.58,7.8l-104.8,34.73c-1.09-9.5-3.45-18.62-6.92-27.19l119.77-25.09
		c2.98-0.63,5.65-2.28,7.54-4.67l66.6-84.4c2.7-3.42,3.49-8,2.13-12.14c-2.17-6.6-6.54-27.52,1.46-36.77
		c4.29-4.93,13.89-9.11,23.9-7.57c6.42,0.99,15.21,4.79,20.68,17.32C477.75,49.86,478.06,54.75,476.22,59.14z"/>
</g>
</svg>
