<?xml version="1.0" encoding="utf-8"?>
<!-- Generator: Adobe Illustrator 23.0.3, SVG Export Plug-In . SVG Version: 6.00 Build 0)  -->
<svg version="1.1" id="Layer_1" xmlns="http://www.w3.org/2000/svg" xmlns:xlink="http://www.w3.org/1999/xlink" x="0px" y="0px"
	 viewBox="0 0 512 512" style="enable-background:new 0 0 512 512;" xml:space="preserve">
<style type="text/css">
	.st0{fill:url(#SVGID_1_);}
</style>
<linearGradient id="SVGID_1_" gradientUnits="userSpaceOnUse" x1="257.8018" y1="567.1182" x2="254.8019" y2="49.1182">
	<stop  offset="0" style="stop-color:#004B98"/>
	<stop  offset="1" style="stop-color:#00C0FF"/>
</linearGradient>
	<path class="st0" d="M256,74.733c-99.951,0-181.267,81.315-181.267,181.267S156.049,437.267,256,437.267S437.267,355.951,437.267,256
		S355.951,74.733,256,74.733z M256,407.267c-83.409,0-151.267-67.857-151.267-151.267S172.591,104.733,256,104.733
		S407.267,172.591,407.267,256S339.409,407.267,256,407.267z"/>
	<path class="st0" d="M271,242.875V183.19c9.45,5.28,15.857,15.38,15.857,26.953c0,8.284,6.716,15,15,15s15-6.716,15-15
		c0-28.382-19.531-52.284-45.857-58.982v-4.106c0-8.284-6.716-15-15-15s-15,6.716-15,15v4.106
		c-26.326,6.699-45.857,30.601-45.857,58.982s19.531,52.284,45.857,58.982v59.685c-9.45-5.28-15.857-15.38-15.857-26.953
		c0-8.284-6.716-15-15-15s-15,6.716-15,15c0,28.382,19.531,52.284,45.857,58.982v4.106c0,8.284,6.716,15,15,15s15-6.716,15-15
		v-4.106c26.326-6.699,45.857-30.601,45.857-58.982S297.326,249.574,271,242.875z M241,237.095
		c-9.45-5.28-15.857-15.38-15.857-26.953S231.55,188.47,241,183.19V237.095z M271,328.81v-53.906
		c9.45,5.281,15.857,15.381,15.857,26.953C286.857,313.43,280.45,323.529,271,328.81z"/>
	<path class="st0" d="M497.584,130.625c-5.852-2.26-12.246-0.596-16.303,3.697c-20.266-37.484-49.564-69.36-85.489-92.818
		C354.21,14.352,305.871,0,256,0C187.62,0,123.333,26.629,74.98,74.98C26.629,123.333,0,187.62,0,256c0,8.284,6.716,15,15,15
		s15-6.716,15-15C30,131.383,131.383,30,256,30c82.699,0,158.924,45.67,198.333,117.568c-5.772,0.712-10.847,4.763-12.573,10.702
		c-2.312,7.956,2.263,16.278,10.218,18.591l26.197,7.613c1.394,0.405,2.802,0.599,4.189,0.599c6.056,0,11.709-3.69,13.99-9.602
		l9.823-25.45C509.16,142.292,505.313,133.609,497.584,130.625z"/>
	<path class="st0" d="M497,241c-8.284,0-15,6.716-15,15c0,124.617-101.383,226-226,226c-81.785,0-156.197-43.844-196.148-113.632
		c3.678-0.95,7.001-3.285,9.111-6.801c4.263-7.103,1.961-16.317-5.143-20.58l-23.391-14.038
		c-6.677-4.008-15.312-2.239-19.874,4.072L4.57,353.128c-4.854,6.713-3.347,16.09,3.366,20.944c2.657,1.921,5.73,2.846,8.777,2.846
		c4.098,0,8.142-1.679,11.053-4.853C71.252,457.609,159.051,512,256,512c68.38,0,132.667-26.629,181.02-74.98
		C485.371,388.667,512,324.38,512,256C512,247.716,505.284,241,497,241z"/>
</svg>
