<?xml version="1.0" encoding="utf-8"?>
<!-- Generator: Adobe Illustrator 23.0.3, SVG Export Plug-In . SVG Version: 6.00 Build 0)  -->
<svg version="1.1" id="Layer_1" xmlns="http://www.w3.org/2000/svg" xmlns:xlink="http://www.w3.org/1999/xlink" x="0px" y="0px"
	 viewBox="0 0 512 512" style="enable-background:new 0 0 512 512;" xml:space="preserve">
	<style type="text/css">
		.st0{fill:url(#SVGID_1_);}
	</style>
	<linearGradient id="SVGID_1_" gradientUnits="userSpaceOnUse" x1="239.3979" y1="478.0013" x2="239.3979" y2="86.0013">
		<stop  offset="0" style="stop-color:#004B98"/>
		<stop  offset="1" style="stop-color:#00C0FF"/>
	</linearGradient>
	<path class="st0" d="m460.79 285.191c-2.833-3.77-7.275-5.987-11.991-5.987s-9.157 2.218-11.991 5.988c-2.091 2.781-51.209 68.968-51.209 141.487 0 34.849 28.351 63.2 63.2 63.2s63.2-28.352 63.2-63.2c.001-72.519-49.118-138.706-51.209-141.488zm-11.99 174.688c-18.306 0-33.2-14.894-33.2-33.2 0-41.505 19.826-82.195 33.218-104.945 13.389 22.698 33.182 63.298 33.182 104.945 0 18.307-14.894 33.2-33.2 33.2z"/>
	<path class="st0" d="m366.289 259.636c-2.603-2.664-4.144-5.975-4.66-9.412 6.035 2.41 12.282.57 16.168-3.317l45.437-45.443c5.857-5.857 5.857-15.354-.001-21.212l-14.438-14.438c12.229-20.381 39.981-66.63 53.882-89.803 8.41-14.025 6.208-31.891-5.354-43.445-.064-.065-.13-.129-.196-.192-11.563-11.407-29.314-13.54-43.261-5.167l-89.8 53.88-14.442-14.442c-5.857-5.859-15.354-5.857-21.213 0l-45.444 45.443c-3.899 3.899-5.717 10.158-3.316 16.168-3.6-.539-6.927-2.186-9.548-4.808-.094-.094-.19-.188-.287-.278-18.388-18.103-48.075-18.015-66.364.268l-159.059 159.061c-5.858 5.857-5.858 15.355 0 21.213l181.771 181.773c5.866 5.866 15.363 5.85 21.213.001 0 0 110.314-110.308 159.068-159.064 18.368-18.371 18.368-48.262 0-66.633-.052-.051-.104-.102-.156-.153zm63.013-206.706c2.192-1.317 4.984-.975 6.789.833.035.034.069.068.104.103 1.738 1.808 2.051 4.554.754 6.715-12.586 20.98-36.527 60.88-50.019 83.365l-40.994-40.995zm-130.284 45.533 92.396 92.396-24.225 24.229-92.401-92.395zm46.213 206.746c-39.565 39.567-119.669 119.668-148.46 148.457l-160.558-160.56 148.452-148.454c6.678-6.674 17.538-6.675 24.208-.003.094.094.189.187.285.277 19.984 19.676 44.312 13.492 54.068 8.627l73.114 73.118c-8.754 17.634-5.794 39.647 8.876 54.319.052.052.104.103.156.154 6.532 6.685 6.485 17.439-.141 24.065z"/>
	<path class="st0" d="m207.377 191.613c-5.857-5.858-15.361-5.853-21.213 0l-90.881 90.887c-5.857 5.858-5.857 15.354 0 21.213l90.881 90.887c5.884 5.885 15.384 5.83 21.213 0l90.889-90.887c2.813-2.813 4.394-6.628 4.394-10.606s-1.581-7.794-4.394-10.606zm-10.606 171.166-69.669-69.673 69.669-69.673 69.675 69.673z"/>
</svg>