<?xml version="1.0" encoding="utf-8"?>
<!-- Generator: Adobe Illustrator 23.0.3, SVG Export Plug-In . SVG Version: 6.00 Build 0)  -->
<svg version="1.1" id="Layer_1" xmlns="http://www.w3.org/2000/svg" xmlns:xlink="http://www.w3.org/1999/xlink" x="0px" y="0px"
	 viewBox="0 0 512 512" style="enable-background:new 0 0 512 512;" xml:space="preserve">
<style type="text/css">
	.st0{fill:url(#SVGID_1_);}
</style>
<g>
	<g>
		<linearGradient id="SVGID_1_" gradientUnits="userSpaceOnUse" x1="252.8225" y1="579.2757" x2="260.8224" y2="136.2757">
			<stop  offset="0" style="stop-color:#004B98"/>
			<stop  offset="1" style="stop-color:#00C0FF"/>
		</linearGradient>
		<path class="st0" d="M489.7,126.3c-9.2,0-16.7,7.5-16.7,16.7v1.7H358.3c-27.1,0-53.4,11.3-72.1,31l-95.1,100.4
			c-28.5,30.1-23.4,78.4,10.8,102c-2.3,0.2-4.6,0.3-6.9,0.3H72.7c-37,0-67.1,30.1-67.1,67.1c0,36.7,29.1,65.9,66.2,66.4
			c0.1,0,0.2,0,0.2,0c0.1,0,166,0,166,0c53.6,0,102.5-19.4,137.9-54.9l72.6-72.6l24.7-20.6c1.1,8.2,8.1,14.5,16.5,14.5
			c9.2,0,16.7-7.5,16.7-16.7c0-11.5,0-206.9,0-218.7C506.4,133.8,499,126.3,489.7,126.3z M473,320.5l-46.5,38.9
			c-0.4,0.3-0.7,0.7-1.1,1l-73.1,73.1c-27.8,27.8-66.9,45.1-116.4,45.1H72.1c-18.6-0.3-33.2-14.8-33.2-33
			c0-18.6,15.1-33.8,33.8-33.8h122.4c33,0,64-12.8,87.3-36.2L343,315c6.5-6.5,6.5-17.1,0-23.6s-17.1-6.5-23.6,0l-55.1,55.1
			c-6.4,6.4-15,10-24.1,10c-29.3,0-45.6-35.4-24.7-57.5l95.1-100.4c12.4-13.1,29.8-20.6,47.8-20.6H473V320.5L473,320.5z"/>
	</g>
</g>
</svg>
