<?xml version="1.0" encoding="utf-8"?>
<!-- Generator: Adobe Illustrator 23.0.3, SVG Export Plug-In . SVG Version: 6.00 Build 0)  -->
<svg version="1.1" id="Capa_1" xmlns="http://www.w3.org/2000/svg" xmlns:xlink="http://www.w3.org/1999/xlink" x="0px" y="0px"
	 viewBox="0 0 512 512" style="enable-background:new 0 0 512 512;" xml:space="preserve">
<style type="text/css">
	.st0{fill:url(#SVGID_1_);}
</style>
<g>
	<g>
		<linearGradient id="SVGID_1_" gradientUnits="userSpaceOnUse" x1="250.7307" y1="592.489" x2="258.1424" y2="80.0184">
			<stop  offset="0" style="stop-color:#004B98"/>
			<stop  offset="1" style="stop-color:#00C0FF"/>
		</linearGradient>
		<path class="st0" d="M456.83,313.75l-23.92-23.92c-7.94-7.95-18.94-12.5-30.17-12.5H258.58c-11.23,0-22.23,4.55-30.17,12.5
			l-23.92,23.92c-7.94,7.94-12.5,18.94-12.5,30.17V352h-32c0-5.9-4.77-10.67-10.67-10.67V96c0-17.65-14.35-32-32-32
			c-3.76,0-7.31,0.77-10.67,1.96V53.33C106.67,23.93,82.75,0,53.33,0c-5.9,0-10.67,4.77-10.67,10.67v128
			c0,5.9,4.77,10.67,10.67,10.67c12.06,0,23.06-4.17,32-10.93v202.93c-5.9,0-10.67,4.77-10.67,10.67v53.33
			c0,11.76,9.56,21.33,21.33,21.33h42.67c7.8,0,14.33-4.41,18.06-10.67H192v29.42c0,11.23,4.56,22.23,12.5,30.17l23.92,23.92
			c7.94,7.95,18.94,12.5,30.17,12.5h144.17c11.23,0,22.23-4.55,30.17-12.5l23.92-23.92c7.94-7.94,12.5-18.94,12.5-30.17v-101.5
			C469.33,332.69,464.77,321.69,456.83,313.75z M426.67,437.33c0,2.48-0.88,4.89-2.46,6.8l-14.46,17.47
			c-4.1,4.93-10.08,7.73-16.44,7.73H268.02c-6.35,0-12.33-2.8-16.42-7.7l-14.48-17.5c-1.58-1.92-2.46-4.32-2.46-6.8V416
			c0-5.9,4.77-10.67,10.67-10.67H416c5.9,0,10.67,4.77,10.67,10.67V437.33z M426.67,373.33c0,5.9-4.77,10.67-10.67,10.67H245.33
			c-5.9,0-10.67-4.77-10.67-10.67V352c0-2.48,0.88-4.89,2.46-6.8l14.46-17.47c4.1-4.93,10.08-7.73,16.44-7.73h125.29
			c6.35,0,12.33,2.8,16.42,7.7l14.48,17.5c1.58,1.92,2.46,4.32,2.46,6.8L426.67,373.33L426.67,373.33z"/>
	</g>
</g>
</svg>
