<?xml version="1.0" encoding="utf-8"?>
<!-- Generator: Adobe Illustrator 23.0.3, SVG Export Plug-In . SVG Version: 6.00 Build 0)  -->
<svg version="1.1" id="Layer_1" xmlns="http://www.w3.org/2000/svg" xmlns:xlink="http://www.w3.org/1999/xlink" x="0px" y="0px"
	 viewBox="0 0 512 512" style="enable-background:new 0 0 512 512;" xml:space="preserve">
<style type="text/css">
	.st0{fill:url(#SVGID_1_);}
</style>
<linearGradient id="SVGID_1_" gradientUnits="userSpaceOnUse" x1="256" y1="602" x2="256" y2="90">
	<stop  offset="0" style="stop-color:#004B98"/>
	<stop  offset="1" style="stop-color:#00C0FF"/>
</linearGradient>
<path class="st0" d="M497,289.2H304.2c-26.04,0-47.13,21.06-47.13,47.13c0,25.99,21.14,47.13,47.13,47.13h112.47
	c9.45,0,17.13,7.69,17.13,17.13s-7.69,17.13-17.13,17.13H206.73v-274.2c0-8.28-6.72-15-15-15H174.6V94.27h129.6
	c8.28,0,15-6.72,15-15V15c0-8.28-6.72-15-15-15H15C6.72,0,0,6.72,0,15v64.27c0,8.28,6.72,15,15,15h129.6v34.27h-17.13
	c-8.28,0-15,6.72-15,15V482H15c-8.28,0-15,6.72-15,15s6.72,15,15,15h289.2c8.28,0,15-6.72,15-15s-6.72-15-15-15h-97.47v-34.27
	h209.93c25.99,0,47.13-21.14,47.13-47.13s-21.14-47.13-47.13-47.13H304.2c-9.45,0-17.13-7.69-17.13-17.13
	c0-9.45,7.64-17.13,17.13-17.13H497c8.28,0,15-6.72,15-15S505.28,289.2,497,289.2z M30,64.27V30h259.2v34.27H30z M176.73,482h-34.27
	V158.53h34.27V482z"/>
</svg>
