<?xml version="1.0" encoding="utf-8"?>
<!-- Generator: Adobe Illustrator 23.0.3, SVG Export Plug-In . SVG Version: 6.00 Build 0)  -->
<svg version="1.1" id="Capa_1" xmlns="http://www.w3.org/2000/svg" xmlns:xlink="http://www.w3.org/1999/xlink" x="0px" y="0px"
	 viewBox="0 0 512 512" style="enable-background:new 0 0 512 512;" xml:space="preserve">
<style type="text/css">
	.st0{fill:url(#SVGID_1_);}
</style>
<path d="M469.3,213.3H333.8c-0.2-0.6-0.4-1.2-0.6-1.7c-1-2.7-3-4.7-5.4-5.9c6.5,15.5,10,32.5,10,50.3c0,17.9-3.6,34.9-10.1,50.4
	c2.4-1.2,4.4-3.3,5.4-6c0.2-0.6,0.4-1.2,0.6-1.8h135.5c23.5,0,42.7-19.1,42.7-42.7S492.9,213.3,469.3,213.3z M448,266.7
	c-5.9,0-10.7-4.8-10.7-10.7c0-5.9,4.8-10.7,10.7-10.7s10.7,4.8,10.7,10.7C458.7,261.9,453.9,266.7,448,266.7z"/>
<linearGradient id="SVGID_1_" gradientUnits="userSpaceOnUse" x1="252.5336" y1="542.2657" x2="257.5336" y2="116.2657">
	<stop  offset="0" style="stop-color:#004B98"/>
	<stop  offset="1" style="stop-color:#00C0FF"/>
</linearGradient>
<path class="st0" d="M469.3,213.3H333.8c-0.2-0.6-0.4-1.2-0.6-1.7c-1.6-4.4-6.1-7.3-10.8-6.9c-1.4,0.1-2.6,0.1-3.7,0.1
	c-2.5,0-3.8-0.3-4.3-0.1c0.3-0.9,1.3-3.1,4.5-6.9c2.4-2.8,2.5-6.5,1.5-9.8c3.39-1.34,25.43-21.03,36.85-29.88
	c7.06,10.38,13.04,21.56,17.75,33.38l26.3,0.5c3.5,0,6.8-1.8,8.8-4.7c2-2.9,2.4-6.6,1.1-9.9C378.8,95.6,301.1,42.7,213.3,42.7
	C95.7,42.7,0,138.4,0,256s95.7,213.3,213.3,213.3c87.8,0,165.5-52.9,197.9-134.7c1.3-3.3,0.9-7-1.1-9.9c-2-2.9-5.3-4.7-8.8-4.7
	h-26.1c-4.72,11.93-10.71,23.21-17.82,33.67c-10.56-7.86-33.45-28.28-36.98-29.67c1-3.4,0.8-7-1.5-9.8c-3.3-3.9-4.3-6.1-4.8-6.5
	c0.9-0.3,3.1-0.8,8.1-0.4c4.7,0.5,9.1-2.5,10.8-6.9c0.2-0.6,0.4-1.2,0.6-1.8h135.5c23.5,0,42.7-19.1,42.7-42.7
	C511.8,232.3,492.9,213.3,469.3,213.3z M292.54,100.94c-8.07,11.11-29.4,34.93-31.04,38.46c-1.1-1.3-2.3-2.6-4-3.2
	c-3.2-1.2-6.5-2.3-9.8-3.2c-4.5-1.3-9.4,0.6-11.9,4.7c-2.6,4.3-4.4,5.8-4.6,6.4c-0.5-0.7-1.7-2.8-2.9-7.6c-1.1-4.5-6.9-7.9-11.5-8.2
	c-2.4-0.2-3.3-0.3-8.9,0.1c-4.7,0.2-8.8,3.5-9.9,8.1c-1.2,4.8-2.4,6.9-2.4,7.6c-0.7-0.5-2.5-2.1-5.1-6.4c-2.5-4-7.5-6-11.9-4.6
	c-3.3,0.9-6.6,2-9.8,3.2c-1.7,0.6-2.9,1.9-4,3.2c-1.68-3.61-23.48-27.98-30.82-38.52c23.79-12.2,50.75-19.08,79.32-19.08
	C241.85,81.9,268.78,88.77,292.54,100.94z M289,256c0,40.8-33.1,73.9-73.9,73.9c-40.8,0-73.9-33.1-73.9-73.9s33.1-73.9,73.9-73.9
	S289,215.2,289,256z M39.2,256c0-36.12,11-69.66,29.82-97.47c10.94,8.38,33.48,28.73,36.88,30.27c-0.7,3.2-0.5,6.5,1.7,9.1
	c3.3,3.9,4.3,6.1,4.8,6.5c-0.9,0.3-3.1,0.8-8.1,0.4c-4.8-0.3-9.1,2.5-10.8,6.9c-1.2,3.2-2.3,6.4-3.2,9.8c-1.3,4.6,0.6,9.5,4.7,12
	c4.3,2.6,5.8,4.4,6.4,4.6c-0.7,0.5-2.8,1.7-7.6,2.9c-4.5,1.1-7.8,6.6-8.2,11.2c-0.1,1.3-0.2,2.6-0.2,3.9c0,1.2,0.1,2.4,0.3,5.2
	c0.2,4.7,3.5,8.8,8.1,9.9c4.8,1.2,6.9,2.4,7.5,2.4c-0.5,0.7-2.1,2.5-6.4,5.1c-4,2.5-6,7.4-4.7,12c0.9,3.3,2,6.6,3.2,9.8
	c1.6,4.5,6,7.4,10.8,6.9c1.4-0.1,2.6-0.1,3.7-0.1c2.5,0,3.8,0.2,4.3,0.1c-0.3,0.9-1.3,3.1-4.5,6.9c-2.2,2.6-2.4,6-1.7,9.1
	c-3.29,1.49-25.18,21.27-36.76,30.39C50.29,325.92,39.2,292.26,39.2,256z M133.99,411.02c8.36-11.34,29.37-34.76,30.91-38.32
	c1.1,1.3,2.3,2.6,4,3.2c3.3,1.2,6.5,2.3,9.8,3.2c4.6,1.3,9.4-0.6,11.9-4.7c2.6-4.3,4.4-5.8,4.6-6.4c0.5,0.7,1.7,2.8,2.9,7.6
	c1.1,4.5,6.9,7.9,11.5,8.2c1.2,0.1,2.4,0.2,3.6,0.2s2.4-0.1,5.2-0.3c4.7-0.2,8.8-3.5,9.9-8.1c1.2-4.8,2.4-6.9,2.4-7.6
	c0.7,0.5,2.5,2.1,5.1,6.4c2.5,4,7.4,5.9,11.9,4.6c3.3-0.9,6.6-2,9.8-3.2c1.7-0.6,2.9-1.9,4-3.2c1.72,3.69,23.95,28.56,30.75,38.59
	c-23.7,12.09-50.53,18.91-78.95,18.91C184.74,430.1,157.78,423.22,133.99,411.02z M448,266.7c-5.9,0-10.7-4.8-10.7-10.7
	s4.8-10.7,10.7-10.7s10.7,4.8,10.7,10.7C458.7,261.9,453.9,266.7,448,266.7z"/>
</svg>
