<?xml version="1.0" encoding="utf-8"?>
<!-- Generator: Adobe Illustrator 23.0.3, SVG Export Plug-In . SVG Version: 6.00 Build 0)  -->
<svg version="1.1" id="Capa_1" xmlns="http://www.w3.org/2000/svg" xmlns:xlink="http://www.w3.org/1999/xlink" x="0px" y="0px"
	 viewBox="0 0 512 512" style="enable-background:new 0 0 512 512;" xml:space="preserve">
<path fill="rgb(255,255,255)" d="M451.85,366.28L387.48,18.53h-80.43v30h55.47l43.07,232.65l-53.58,98.25H102.44
	c-10.75-8.29-24.2-13.24-38.8-13.24C28.55,366.18,0,394.73,0,429.83c0,35.09,28.55,63.64,63.64,63.64
	c19.18,0,36.39-8.54,48.07-22.01h224.28l78.25-143.51l8.11,43.8c-22.16,9.96-37.64,32.24-37.64,58.07
	c0,35.09,28.55,63.64,63.64,63.64S512,464.92,512,429.83C512,395.91,485.32,368.1,451.85,366.28L451.85,366.28z M63.64,463.47
	c-18.55,0-33.64-15.09-33.64-33.64c0-18.55,15.09-33.64,33.64-33.64s33.64,15.09,33.64,33.64C97.29,448.38,82.2,463.47,63.64,463.47
	z M126.2,441.46c0.7-3.78,1.08-7.66,1.08-11.64c0-7.14-1.2-13.99-3.37-20.4h211.74l-17.47,32.04H126.2z M448.36,463.47
	c-18.55,0-33.64-15.09-33.64-33.64c0-18.55,15.09-33.64,33.64-33.64S482,411.27,482,429.83C482,448.38,466.91,463.47,448.36,463.47z
	"/>
</svg>
