<?xml version="1.0" encoding="utf-8"?>
<!-- Generator: Adobe Illustrator 23.0.3, SVG Export Plug-In . SVG Version: 6.00 Build 0)  -->
<svg version="1.1" id="Capa_1" xmlns="http://www.w3.org/2000/svg" xmlns:xlink="http://www.w3.org/1999/xlink" x="0px" y="0px"
	 viewBox="0 0 512 512" style="enable-background:new 0 0 512 512;" xml:space="preserve">
<style type="text/css">
	.st0{fill:url(#SVGID_1_);}
</style>
<g>
	<g>
		<linearGradient id="SVGID_1_" gradientUnits="userSpaceOnUse" x1="237.6562" y1="369.4279" x2="260.6563" y2="193.4279">
			<stop  offset="0" style="stop-color:#004B98"/>
			<stop  offset="1" style="stop-color:#00C0FF"/>
		</linearGradient>
		<path class="st0" d="M277.3,314.3H290c14.8,0,29.1-4.3,41.4-12.5l44.3-29.5c16,0.7,32.1,2.2,47.8,5.4l49.5,9.9
			c9.6,1.9,19.5-0.5,27.1-6.8c7.6-6.2,11.9-15.4,11.9-25.3c0-14.1-9-26.5-22.3-31c-33.6-11.2-68.6-16.9-104-16.9h-146
			c-9.6,0-19.2-1.2-28.5-3.5l-152.1-38c-3-0.8-6.1-1.1-9.2-1.1h-12C17,165,0,182,0,202.9c0,13.2,7.1,25.7,18.4,32.5l55.4,33.3
			c17.7,10.6,37.2,17.6,57.3,21.2l21.3,21.3c2,2,4.7,3.1,7.5,3.1h32H277.3z M319.5,284c-8.8,5.9-19,9-29.6,9H164.4l-0.2-0.2
			c13.1-0.2,26.1-1.8,38.8-4.9l50.9-12.7c9.3-2.3,18.9-3.5,28.5-3.5h55.7L319.5,284z"/>
	</g>
</g>
</svg>
