<?xml version="1.0" encoding="utf-8"?>
<!-- Generator: Adobe Illustrator 23.0.3, SVG Export Plug-In . SVG Version: 6.00 Build 0)  -->
<svg version="1.1" id="Layer_1" xmlns="http://www.w3.org/2000/svg" xmlns:xlink="http://www.w3.org/1999/xlink" x="0px" y="0px"
	 viewBox="0 0 512 512" style="enable-background:new 0 0 512 512;" xml:space="preserve">
<style type="text/css">
	.st0{fill:url(#SVGID_1_);}
	.st1{fill:url(#SVGID_2_);}
</style>
<path d="M255.99,66.03h0.01H255.99z"/>
<g>
	<linearGradient id="SVGID_1_" gradientUnits="userSpaceOnUse" x1="258.3527" y1="564.991" x2="254.3527" y2="39.991">
		<stop  offset="0" style="stop-color:#004B98"/>
		<stop  offset="1" style="stop-color:#00C0FF"/>
	</linearGradient>
	<path class="st0" d="M501.74,225.7L459,211.45c-1.36-6.2-3-12.34-4.92-18.38l29.89-33.71c4.28-4.83,5-11.86,1.77-17.45
		l-16.07-27.83c-3.23-5.59-9.67-8.49-16-7.2l-44.22,9.05c-4.25-4.66-8.73-9.13-13.39-13.39l9.05-44.22c1.3-6.33-1.6-12.77-7.2-16
		l-27.83-16.07c-5.59-3.23-12.62-2.52-17.45,1.77l-33.7,29.89c-6.04-1.92-12.18-3.56-18.38-4.92L286.3,10.26
		C284.25,4.13,278.52,0,272.07,0h-32.13c-6.46,0-12.19,4.13-14.23,10.26L211.45,53c-6.2,1.36-12.34,3-18.38,4.92l-33.71-29.89
		c-4.83-4.28-11.86-4.99-17.45-1.77l-27.83,16.07c-5.59,3.23-8.49,9.67-7.19,16l9.05,44.22c-4.66,4.26-9.14,8.74-13.39,13.39
		l-44.22-9.05c-6.33-1.29-12.77,1.61-16,7.2l-16.07,27.83c-3.23,5.59-2.52,12.62,1.77,17.45l29.89,33.71
		c-1.92,6.04-3.56,12.18-4.92,18.38L10.26,225.7C4.13,227.74,0,233.48,0,239.93v32.13c0,6.46,4.13,12.19,10.26,14.23L53,300.54
		c1.36,6.2,3,12.34,4.92,18.39l-29.89,33.71c-4.28,4.83-5,11.86-1.77,17.45l16.07,27.83c3.23,5.59,9.67,8.49,16,7.2l44.22-9.05
		c4.26,4.66,8.73,9.13,13.39,13.39l-9.05,44.22c-1.29,6.33,1.6,12.77,7.19,16l27.83,16.07c5.59,3.23,12.62,2.52,17.45-1.77
		l33.71-29.89c6.04,1.92,12.18,3.56,18.38,4.92l14.25,42.74c2.04,6.13,7.77,10.26,14.23,10.26h32.13c6.46,0,12.19-4.13,14.23-10.26
		L300.54,459c6.2-1.36,12.34-3,18.38-4.92l33.7,29.89c4.83,4.28,11.86,5,17.45,1.77l27.83-16.07c5.59-3.23,8.49-9.67,7.2-16
		l-9.05-44.22c4.66-4.26,9.13-8.73,13.39-13.39l44.22,9.05c6.33,1.3,12.77-1.6,16-7.2l16.07-27.83c3.23-5.59,2.52-12.62-1.77-17.45
		l-29.89-33.71c1.92-6.05,3.56-12.19,4.92-18.39l42.74-14.24c6.13-2.04,10.26-7.77,10.26-14.23v-32.13
		C512,233.48,507.87,227.74,501.74,225.7L501.74,225.7z M482,261.25l-40.78,13.59c-5.24,1.75-9.1,6.23-10.04,11.67
		c-1.8,10.43-4.56,20.74-8.2,30.66c-1.9,5.18-0.8,10.99,2.86,15.12l28.51,32.15l-5.26,9.1l-42.18-8.63
		c-5.4-1.11-10.98,0.84-14.51,5.07c-6.77,8.1-14.31,15.64-22.41,22.41c-4.23,3.54-6.18,9.11-5.07,14.51l8.63,42.18l-9.1,5.26
		l-32.15-28.51c-4.13-3.66-9.94-4.76-15.12-2.86c-9.92,3.64-20.23,6.4-30.66,8.2c-5.44,0.94-9.92,4.8-11.67,10.04L261.26,482h-10.51
		l-13.6-40.78c-1.75-5.24-6.23-9.09-11.67-10.04c-10.43-1.8-20.74-4.56-30.66-8.2c-5.18-1.9-10.99-0.8-15.12,2.86l-32.15,28.51
		l-9.1-5.26l8.63-42.18c1.1-5.4-0.84-10.97-5.07-14.51c-8.1-6.77-15.64-14.32-22.41-22.41c-3.54-4.23-9.11-6.18-14.51-5.07
		l-42.18,8.63l-5.26-9.1l28.51-32.15c3.66-4.13,4.76-9.94,2.86-15.12c-3.64-9.92-6.4-20.24-8.2-30.66
		c-0.94-5.44-4.8-9.93-10.04-11.67L30,261.25v-10.51l40.78-13.6c5.24-1.75,9.1-6.23,10.04-11.67c1.8-10.42,4.56-20.74,8.2-30.66
		c1.9-5.18,0.8-10.99-2.86-15.12l-28.51-32.15l5.26-9.1l42.18,8.63c5.4,1.1,10.98-0.84,14.51-5.07
		c6.77-8.09,14.31-15.64,22.42-22.43c4.23-3.54,6.17-9.11,5.06-14.51l-8.63-42.17l9.1-5.26l32.15,28.51
		c4.13,3.66,9.94,4.76,15.12,2.86c9.9-3.63,20.22-6.4,30.67-8.21c5.44-0.94,9.92-4.8,11.66-10.03L250.74,30h10.51l13.6,40.77
		c1.74,5.24,6.23,9.09,11.66,10.03c10.44,1.82,20.76,4.58,30.67,8.21c5.18,1.9,10.99,0.8,15.12-2.86l32.15-28.51l9.1,5.26
		l-8.63,42.17c-1.1,5.4,0.84,10.97,5.06,14.51c8.11,6.79,15.65,14.33,22.42,22.43c3.54,4.23,9.11,6.18,14.51,5.07l42.18-8.63
		l5.26,9.1l-28.51,32.15c-3.66,4.13-4.76,9.94-2.86,15.12c3.64,9.92,6.4,20.23,8.2,30.66c0.94,5.44,4.8,9.93,10.04,11.67l40.78,13.6
		L482,261.25z"/>
	<linearGradient id="SVGID_2_" gradientUnits="userSpaceOnUse" x1="258.3542" y1="564.991" x2="254.3542" y2="39.9909">
		<stop  offset="0" style="stop-color:#004B98"/>
		<stop  offset="1" style="stop-color:#00C0FF"/>
	</linearGradient>
	<path class="st1" d="M256,112.47c-79.14,0-143.53,64.39-143.53,143.53S176.85,399.53,256,399.53S399.53,335.14,399.53,256
		S335.15,112.47,256,112.47z M256,142.47c15.32,0,29.93,3.06,43.28,8.58l-25.58,44.3c-5.62-1.64-11.56-2.54-17.7-2.54
		s-12.08,0.9-17.7,2.54l-25.57-44.3C226.07,145.52,240.68,142.47,256,142.47z M289.2,256c0,18.31-14.89,33.2-33.2,33.2
		s-33.2-14.89-33.2-33.2s14.89-33.2,33.2-33.2S289.2,237.69,289.2,256z M186.77,345.91c-23.18-17.89-39.28-44.52-43.31-74.91h51.15
		c2.9,11.87,9.17,22.43,17.72,30.63L186.77,345.91z M194.61,241h-51.15c4.03-30.39,20.13-57.02,43.31-74.92l25.57,44.29
		C203.78,218.57,197.52,229.13,194.61,241L194.61,241z M256,369.53c-15.32,0-29.93-3.06-43.28-8.58l25.57-44.3
		c5.62,1.64,11.56,2.54,17.7,2.54c6.14,0,12.08-0.9,17.7-2.54l25.58,44.3C285.93,366.48,271.32,369.53,256,369.53z M325.23,345.91
		l-25.57-44.29c8.56-8.19,14.82-18.75,17.72-30.63h51.15C364.51,301.39,348.41,328.02,325.23,345.91L325.23,345.91z M317.39,241
		c-2.9-11.87-9.17-22.43-17.72-30.63l25.57-44.29c23.18,17.89,39.28,44.52,43.31,74.91H317.39z"/>
</g>
</svg>
