<?xml version="1.0" encoding="utf-8"?>
<!-- Generator: Adobe Illustrator 23.0.3, SVG Export Plug-In . SVG Version: 6.00 Build 0)  -->
<svg version="1.1" id="Capa_1" xmlns="http://www.w3.org/2000/svg" xmlns:xlink="http://www.w3.org/1999/xlink" x="0px" y="0px"
	 viewBox="0 0 512 512" style="enable-background:new 0 0 512 512;" xml:space="preserve">
<style type="text/css">
	.st0{fill:url(#SVGID_1_);}
</style>
<linearGradient id="SVGID_1_" gradientUnits="userSpaceOnUse" x1="252.288" y1="524.3098" x2="249.288" y2="99.3098">
	<stop  offset="0" style="stop-color:#004B98"/>
	<stop  offset="1" style="stop-color:#00C0FF"/>
</linearGradient>
<path class="st0" d="M482.19,435.3l-161.1-156.9L248.35,78.31c12.52-5.84,18.93-20.27,14.42-33.67
	c-4.84-14.4-20.43-22.15-34.83-17.31l-47.6,16c-14.4,4.84-22.14,20.43-17.31,34.83c3.86,11.49,14.58,18.75,26.06,18.75
	c2.36,0,4.76-0.33,7.14-0.97l34.25,94.21L100.89,63.93l3.35-3.28c10.85-10.62,11.04-28.03,0.42-38.89
	c-10.62-10.85-28.03-11.04-38.89-0.42l-47,46C7.91,77.97,7.72,95.38,18.35,106.24c5.39,5.5,12.52,8.26,19.66,8.26
	c6.94,0,13.88-2.61,19.23-7.85l4.33-4.24L273.7,309.02l59.65,164.08c4.06,11.17,14.61,18.11,25.85,18.11c3.12,0,6.29-0.54,9.39-1.66
	c14.27-5.19,21.64-20.97,16.45-35.24l-20.74-57.04l79.5,77.43c5.35,5.21,12.27,7.8,19.19,7.8c7.16,0,14.31-2.78,19.7-8.31
	C493.3,463.31,493.07,445.9,482.19,435.3z"/>
</svg>
