<?xml version="1.0" encoding="utf-8"?>
<!-- Generator: Adobe Illustrator 23.0.3, SVG Export Plug-In . SVG Version: 6.00 Build 0)  -->
<svg version="1.1" id="Capa_1" xmlns="http://www.w3.org/2000/svg" xmlns:xlink="http://www.w3.org/1999/xlink" x="0px" y="0px"
	 viewBox="0 0 512 512" style="enable-background:new 0 0 512 512;" xml:space="preserve">
<style type="text/css">
	.st0{fill:url(#SVGID_1_);}
</style>
<linearGradient id="SVGID_1_" gradientUnits="userSpaceOnUse" x1="269.679" y1="424.7531" x2="265.679" y2="139.7531">
	<stop  offset="0" style="stop-color:#004B98"/>
	<stop  offset="1" style="stop-color:#00C0FF"/>
</linearGradient>
<path class="st0" d="M386.5,120.5c-39.28,0-71.88,28.5-78.32,65.94l-74.13,26.28c-2.27-2.27-5.67-3.72-9.45-3.72H81.4
	c-6.8,0-12.4,4.7-12.4,10.4v33.1h100.6c6.8,0,12.4,4.7,12.4,10.4V296c0,5.7-5.6,10.4-12.4,10.4H69v33.1c0,5.7,5.6,10.4,12.4,10.4
	h143.1c6.8,0,12.4-4.7,12.4-10.4v-64.77l84.03-29.79c14.33,20.87,38.35,34.56,65.57,34.56c43.9,0,79.5-35.6,79.5-79.5
	C466,156.1,430.4,120.5,386.5,120.5z M386.5,242.9c-23.7,0-42.9-19.2-42.9-42.9c0-23.7,19.2-42.9,42.9-42.9
	c23.7,0,42.9,19.2,42.9,42.9C429.4,223.7,410.2,242.9,386.5,242.9z"/>
</svg>
