<?xml version="1.0" encoding="utf-8"?>
<!-- Generator: Adobe Illustrator 23.0.3, SVG Export Plug-In . SVG Version: 6.00 Build 0)  -->
<svg version="1.1" id="Layer_1" xmlns="http://www.w3.org/2000/svg" xmlns:xlink="http://www.w3.org/1999/xlink" x="0px" y="0px"
	 viewBox="0 0 512 512" style="enable-background:new 0 0 512 512;" xml:space="preserve">
<path fill="rgb(255,255,255)" d="M437.74,6.35c-4.59-1.62-9.69-0.92-13.66,1.89s-6.34,7.38-6.34,12.25v75.9h-34.27v-75.9
	c0-4.87-2.36-9.44-6.34-12.25c-3.98-2.81-9.07-3.52-13.66-1.89C319.04,22.07,289.2,64.29,289.2,111.4c0,13.16,2.24,25.92,6.67,38.06
	L149.44,295.89c-12.11-4.39-25.08-6.69-38.04-6.69C49.97,289.2,0,339.18,0,400.6c0,47.11,29.84,89.33,74.26,105.05
	c4.59,1.62,9.69,0.92,13.66-1.89s6.34-7.38,6.34-12.25v-75.9h34.27v75.9c0,4.87,2.36,9.44,6.34,12.25
	c3.98,2.81,9.07,3.52,13.66,1.89c44.42-15.72,74.26-57.93,74.26-105.05c0-13.16-2.24-25.92-6.67-38.06l146.44-146.43
	c12.11,4.4,25.08,6.69,38.04,6.69c61.43,0,111.4-49.97,111.4-111.4C512,64.29,482.16,22.07,437.74,6.35L437.74,6.35z M400.6,192.8
	c-12.13,0-24.25-2.74-35.03-7.93c-5.74-2.76-12.6-1.59-17.11,2.91L187.79,348.45c-4.5,4.5-5.67,11.35-2.92,17.08
	c5.26,10.98,7.93,22.78,7.93,35.07c0,26.75-13.17,51.34-34.27,66.37V400.6c0-8.28-6.72-15-15-15H79.27c-8.28,0-15,6.72-15,15v66.37
	C43.17,451.94,30,427.35,30,400.6c0-44.88,36.52-81.4,81.4-81.4c12.13,0,24.25,2.74,35.03,7.93c5.74,2.76,12.6,1.59,17.1-2.91
	l160.67-160.66c4.5-4.5,5.67-11.35,2.92-17.09c-5.26-10.98-7.93-22.78-7.93-35.07c0-26.75,13.17-51.34,34.27-66.37v66.37
	c0,8.28,6.72,15,15,15h64.27c8.28,0,15-6.72,15-15V45.03C468.83,60.06,482,84.65,482,111.4C482,156.28,445.48,192.8,400.6,192.8z"/>
</svg>
