<svg height="512pt" viewBox="-48 0 512 512" width="512pt" xmlns="http://www.w3.org/2000/svg"><path fill="rgb(0,192,255)" d="m298.65625 334.738281c-11.136719-3.710937-20.847656-6.945312-27.65625-9.214843v-23.125c29.675781-17.015626 51.890625-45.621094 60.429688-79.597657h20.96875c12.597656 0 24.4375-4.90625 33.320312-13.804687 8.910156-8.894532 13.8125-20.734375 13.8125-33.332032v-32.132812c0-12.59375-4.902344-24.433594-13.800781-33.316406-8.894531-8.910156-20.734375-13.816406-33.332031-13.816406h-32.132813c-8.28125 0-15 6.71875-15 15v80.335937c0 53.742187-43.722656 97.464844-97.464844 97.464844-53.742187 0-97.46875-43.722657-97.46875-97.464844v-25.921875l39.414063-39.414062h74.136718c29.753907 0 57.722657-11.582032 78.761719-32.621094 21.035157-21.039063 32.621094-49.007813 32.621094-78.777344 0-8.285156-6.714844-15-15-15h-144.597656c-52.566407 0-95.332031 42.765625-95.332031 95.332031v1.066407h-17.136719c-12.597657 0-24.433594 4.90625-33.316407 13.804687-8.910156 8.894531-13.816406 20.734375-13.816406 33.332031v96.398438c0 43.707031 35.558594 79.265625 79.269532 79.265625 8.28125 0 15-6.714844 15-15 0-8.28125-6.71875-15-15-15-27.167969 0-49.269532-22.097657-49.269532-49.265625v-20.34375c5.390625 2.101562 11.171875 3.210937 17.132813 3.210937h20.96875c8.542969 33.976563 30.757812 62.585938 60.433593 79.597657v23.125c-6.8125 2.269531-16.523437 5.507812-27.664062 9.214843-69.945312 23.320313-116.9375 88.523438-116.9375 162.261719 0 8.285156 6.714844 15 15 15h385.601562c8.28125 0 15-6.722656 15-15.007812 0-73.730469-46.996093-138.933594-116.945312-162.253907zm65.863281-203.308593c3.234375 3.226562 5.015625 7.527343 5.015625 12.101562v32.132812c0 4.578126-1.78125 8.875-5.03125 12.121094-3.226562 3.234375-7.527344 5.015625-12.101562 5.015625h-17.132813v-66.402343h17.128907c4.578124 0 8.875 1.78125 12.121093 5.03125zm-254.1875-36.097657c0-36.023437 29.308594-65.332031 65.332031-65.332031h128.234376c-2.96875 16.035156-10.691407 30.785156-22.46875 42.5625-15.371094 15.371094-35.808594 23.835938-57.546876 23.835938h-80.351562c-3.976562 0-7.792969 1.582031-10.605469 4.394531l-22.59375 22.59375zm-30 97.46875h-17.132812c-4.578125 0-8.875-1.78125-12.117188-5.027343-3.234375-3.230469-5.015625-7.53125-5.015625-12.105469v-32.132813c0-4.578125 1.78125-8.875 5.027344-12.121094 3.230469-3.234374 7.527344-5.015624 12.105469-5.015624h17.132812zm62.136719 165.054688c1.859375-.621094 3.636719-1.210938 5.308594-1.769531 4.378906 13.269531 13.03125 24.605468 24.332031 32.367187l-29.640625 17.789063zm125.351562-1.769531c1.671876.558593 3.449219 1.148437 5.3125 1.769531v48.386719l-29.640624-17.789063c11.300781-7.761719 19.953124-19.097656 24.328124-32.367187zm-60.019531-36.886719c11.480469 0 22.609375-1.535157 33.199219-4.394531v21.214843.046875.269532c0 18.304687-14.890625 33.195312-33.195312 33.199218-.003907 0-.003907 0-.007813 0-18.304687-.003906-33.195313-14.894531-33.195313-33.199218v-.269532c0-.015625 0-.03125 0-.046875v-21.214843c10.589844 2.859374 21.714844 4.394531 33.199219 4.394531zm-95.332031 49.496093v64.039063c0 5.402344 2.90625 10.390625 7.605469 13.050781 4.703125 2.664063 10.476562 2.589844 15.109375-.191406l57.617187-34.566406v70.972656h-162.011719c5.257813-49.566406 36.316407-92.648438 81.679688-113.304688zm110.332031 113.304688v-70.972656l57.613281 34.570312c2.375 1.421875 5.046876 2.136719 7.71875 2.136719 2.546876 0 5.097657-.648437 7.390626-1.949219 4.703124-2.660156 7.609374-7.648437 7.609374-13.050781v-64.039063c45.355469 20.660157 76.417969 63.738282 81.675782 113.304688zm0 0"/></svg>