<svg id="Layer_1" enable-background="new 0 0 512 512" height="512" viewBox="0 0 512 512" width="512" xmlns="http://www.w3.org/2000/svg"><path fill="rgb(0,192,255)" d="m239.95 0h-92.52c-47.963 0-93.055 18.678-126.97 52.594-5.857 5.858-5.857 15.355 0 21.213l37.594 37.593-53.66 53.66c-4.565 4.565-5.697 11.54-2.81 17.314l43.95 87.901c6.843 13.686 19.948 23.32 35.056 25.771 3.508.57 16.365 2.4 30.346-5.142l146.131 116.906v89.19c0 8.284 6.716 15 15 15s15-6.716 15-15v-92.859l58.537-117.074h151.396c8.284 0 15-6.732 15-15.017 0-150.275-121.589-272.05-272.05-272.05zm-139.148 261.452c-.019.019-.038.038-.058.058-4.02 3.993-9.752 5.832-15.347 4.925-5.617-.912-10.488-4.491-13.03-9.575l-39.115-78.231 52.144-52.144c26.596.737 52.536 6.274 77.194 16.488 26.548 10.997 50.313 26.876 70.634 47.196l23.363 23.364c-10.673-2.019-21.619-3.051-32.72-3.051-46.491 0-90.197 18.101-123.065 50.97zm166.147 115.844-132.323-105.858c25.321-20.063 56.441-30.957 89.241-30.957 34.898 0 67.898 12.327 94.031 34.915zm75.598-120.229-88.111-88.111c-23.121-23.12-50.16-41.187-80.366-53.699-28.266-11.708-58.014-18.016-88.512-18.778l-32.756-32.757c26.64-21.844 59.721-33.722 94.628-33.722h92.521c128.791 0 233.905 100.35 241.596 227.067z"/></svg>