<svg id="Layer_1" enable-background="new 0 0 512 512" height="512" viewBox="0 0 512 512" width="512" xmlns="http://www.w3.org/2000/svg"><g><path fill="rgb(0,192,255)" d="m223.867 289.2h-48.2c-8.284 0-15 6.716-15 15s6.716 15 15 15h48.2c8.284 0 15-6.716 15-15s-6.716-15-15-15z"/><path fill="rgb(0,192,255)" d="m336.333 289.2h-48.2c-8.284 0-15 6.716-15 15s6.716 15 15 15h48.2c8.284 0 15-6.716 15-15s-6.716-15-15-15z"/><path fill="rgb(0,192,255)" d="m111.4 289.2c-9.447 0-17.134-7.686-17.134-17.133 0-8.284-6.716-15-15-15s-15 6.716-15 15c0 25.989 21.145 47.133 47.134 47.133 8.284 0 15-6.716 15-15s-6.715-15-15-15z"/><path fill="rgb(0,192,255)" d="m223.867 160.667h-48.2c-8.284 0-15 6.716-15 15s6.716 15 15 15h48.2c8.284 0 15-6.716 15-15s-6.716-15-15-15z"/><path fill="rgb(0,192,255)" d="m79.267 222.792c8.284 0 15-6.724 15-15.008 0-9.438 7.679-17.117 17.117-17.117h.017c8.284 0 14.992-6.716 14.992-15s-6.725-15-15.009-15c-25.98 0-47.117 21.136-47.117 47.133 0 8.284 6.715 14.992 15 14.992z"/><path fill="rgb(0,192,255)" d="m400.616 289.2h-.016c-8.284 0-14.992 6.716-14.992 15s6.725 15 15.009 15c9.438 0 17.117 7.679 17.117 17.133 0 8.284 6.716 14.992 15 14.992s15-6.724 15-15.008c-.001-25.98-21.137-47.117-47.118-47.117z"/><path fill="rgb(0,192,255)" d="m336.333 417.733h-48.2c-8.284 0-15 6.716-15 15s6.716 15 15 15h48.2c8.284 0 15-6.716 15-15s-6.716-15-15-15z"/><path fill="rgb(0,192,255)" d="m223.867 417.733h-48.2c-8.284 0-15 6.716-15 15s6.716 15 15 15h48.2c8.284 0 15-6.716 15-15s-6.716-15-15-15z"/><path fill="rgb(0,192,255)" d="m432.733 385.6c-8.284 0-15 6.716-15 15 0 9.447-7.687 17.133-17.134 17.133-8.284 0-15 6.716-15 15s6.716 15 15 15c25.989 0 47.134-21.144 47.134-47.133 0-8.284-6.715-15-15-15z"/><path fill="rgb(0,192,255)" d="m497 64.267h-82.843c-7.032-36.558-39.245-64.267-77.824-64.267s-70.792 27.709-77.824 64.267h-243.509c-8.284 0-15 6.716-15 15v417.733c0 8.284 6.716 15 15 15h482c8.284 0 15-6.716 15-15v-417.733c0-8.284-6.716-15-15-15zm-160.667-34.267c27.166 0 49.267 22.101 49.267 49.267 0 29.177-30.208 61.043-49.226 77.221-24.294-20.686-49.308-50.617-49.308-77.221 0-27.166 22.101-49.267 49.267-49.267zm145.667 452h-452v-387.733h228.594c5.167 25.871 22.6 49.401 38.655 66.399h-9.116c-8.284 0-15 6.716-15 15s6.716 15 15 15h48.2c3.093 0 6.186-.954 8.813-2.862 2.62-1.902 58.891-43.311 68.922-93.537h67.932z"/></g></svg>