<?xml version="1.0" encoding="utf-8"?>
<!-- Generator: Adobe Illustrator 23.0.3, SVG Export Plug-In . SVG Version: 6.00 Build 0)  -->
<svg version="1.1" id="Capa_1" xmlns="http://www.w3.org/2000/svg" xmlns:xlink="http://www.w3.org/1999/xlink" x="0px" y="0px"
	 viewBox="0 0 60 60" style="enable-background:new 0 0 60 60;" xml:space="preserve">
<style type="text/css">
	.st0{stroke:#cbcbcb;stroke-width:2;stroke-miterlimit:10;}
</style>
<path class="st0" fill="#cbcbcb" d="M59.2,14L55,6.8V3c0,0,0,0,0,0c0-0.1,0-0.1,0-0.2c0-0.1,0-0.1,0-0.2c0,0,0,0,0,0c0,0-0.1-0.1-0.1-0.1
	c0-0.1-0.1-0.1-0.1-0.2c0,0-0.1-0.1-0.2-0.1c-0.1,0-0.1-0.1-0.2-0.1c-0.1,0-0.2,0-0.2,0c0,0-0.1,0-0.1,0c0,0,0,0,0,0
	c-0.1,0-0.1,0-0.2,0c-0.1,0-0.1,0-0.2,0c0,0,0,0,0,0l-18.3,8.1c0-0.1-0.1-0.1-0.1-0.2c0,0-0.1-0.1-0.1-0.1c-0.2-0.3-0.3-0.5-0.5-0.7
	c0,0,0-0.1-0.1-0.1c-0.2-0.2-0.4-0.5-0.7-0.7c0,0,0,0,0,0C33.6,8.2,33.3,8,33,7.8c0,0-0.1,0-0.1-0.1c-0.3-0.1-0.5-0.3-0.8-0.4
	c-0.1,0-0.1,0-0.2-0.1c-0.3-0.1-0.6-0.2-0.9-0.2c0,0,0,0-0.1,0V4c0-0.6-0.4-1-1-1s-1,0.4-1,1v3.1c-2.8,0.5-5,2.9-5,5.9
	c0,0.6,0.1,1.1,0.2,1.6L5.6,22.1c0,0,0,0,0,0c-0.1,0-0.2,0.1-0.3,0.2c0,0,0,0-0.1,0c-0.1,0.1-0.1,0.1-0.1,0.2c0,0-0.1,0.1-0.1,0.1
	c0,0,0,0.1,0,0.1C5,22.8,5,22.9,5,23c0,0,0,0,0,0v4l-4.2,7.3C0.3,35.1,0.1,36,0,36.9c0,0,0,0.1,0,0.1c0,0,0,0,0,0
	c0,1.1,0.2,2.2,0.8,3.2c1.1,1.9,3,3,5.2,3s4.1-1.1,5.2-3c0.6-1,0.8-2.1,0.8-3.2c0,0,0,0,0,0c0,0,0-0.1,0-0.1c0-0.9-0.3-1.8-0.8-2.7
	L7,27v-3.3l18.1-7.2c0.3,0.4,0.6,0.8,1,1.1c0,0,0,0,0,0c0.3,0.3,0.7,0.6,1.1,0.8c0.1,0,0.1,0,0.2,0.1c0.1,0.1,0.3,0.1,0.4,0.2
	c0.1,0,0.2,0.1,0.2,0.1c0.1,0,0.3,0.1,0.4,0.1c0.1,0,0.2,0,0.2,0.1c0.1,0,0.2,0,0.3,0.1V43h-6v5c-5,0-9,4-9,9v1h32v-1c0-5-4-9-9-9
	v-5h-6V18.9c0,0,0,0,0.1,0c0.3-0.1,0.6-0.1,0.9-0.2c0.1,0,0.1,0,0.2-0.1c0.3-0.1,0.6-0.2,0.8-0.4c0,0,0.1,0,0.1-0.1
	c0.3-0.2,0.5-0.3,0.8-0.5c0,0,0,0,0,0c0.2-0.2,0.5-0.4,0.7-0.7c0,0,0-0.1,0.1-0.1c0.2-0.2,0.4-0.5,0.5-0.7c0,0,0.1-0.1,0.1-0.1
	c0.2-0.3,0.3-0.5,0.4-0.8c0,0,0-0.1,0.1-0.1c0.1-0.3,0.2-0.6,0.3-0.9c0,0,0-0.1,0-0.1c0.1-0.3,0.1-0.7,0.1-1c0-0.3,0-0.6-0.1-0.9
	L53,4.5v2.2L48.8,14c-1.1,1.9-1.1,4.1,0,6s3,3,5.2,3s4.1-1.1,5.2-3S60.3,15.9,59.2,14z M6,41.2c-1.4,0-2.7-0.7-3.5-2
	c-0.2-0.4-0.4-0.8-0.5-1.2h7.8c-0.1,0.4-0.2,0.8-0.5,1.2C8.7,40.5,7.4,41.2,6,41.2z M9.8,36H2.2c0.1-0.3,0.2-0.5,0.3-0.8l3.5-6
	l3.5,6C9.6,35.5,9.7,35.7,9.8,36z M43.9,56H16.1c0.5-3.4,3.4-6,6.9-6h14C40.5,50,43.4,52.6,43.9,56z M35,48H25v-3h10V48z M30,9
	c1.6,0,3.1,1,3.7,2.4l0.1,0.4c0.1,0.2,0.1,0.4,0.1,0.6c0,0.2,0.1,0.4,0.1,0.6c0,2.2-1.8,4-4,4c-0.2,0-0.5,0-0.7-0.1
	c-0.1,0-0.1,0-0.2,0c-0.2,0-0.4-0.1-0.5-0.2c-0.1,0-0.1,0-0.2-0.1c-0.2-0.1-0.4-0.2-0.6-0.3c-0.1-0.1-0.2-0.1-0.2-0.2
	c-0.1-0.1-0.2-0.1-0.2-0.2c-0.1-0.1-0.2-0.2-0.3-0.3c0,0,0,0,0-0.1c-0.2-0.3-0.4-0.6-0.6-0.9l-0.1-0.3C26.1,14,26,13.5,26,13
	C26,10.8,27.8,9,30,9z M54,9l3.5,6c0.2,0.3,0.3,0.6,0.4,1h-7.7c0.1-0.3,0.2-0.7,0.4-1L54,9z M54,21c-1.4,0-2.7-0.7-3.5-2
	c-0.2-0.3-0.3-0.7-0.4-1h7.7c-0.1,0.3-0.2,0.7-0.4,1C56.7,20.3,55.4,21,54,21z"/>
</svg>
