<svg id="Layer_1" enable-background="new 0 0 512 512" height="512" viewBox="0 0 512 512" width="512" xmlns="http://www.w3.org/2000/svg"><path fill="rgb(0,192,255)" d="m437.737 6.353c-4.591-1.624-9.686-.919-13.663 1.892s-6.341 7.378-6.341 12.249v75.905h-34.267v-75.905c0-4.87-2.364-9.438-6.341-12.249-3.978-2.812-9.072-3.516-13.663-1.892-44.418 15.718-74.262 57.933-74.262 105.046 0 13.156 2.241 25.915 6.674 38.061l-146.436 146.43c-12.112-4.395-25.076-6.688-38.039-6.688-61.426 0-111.4 49.974-111.4 111.4 0 47.113 29.844 89.328 74.263 105.046 4.591 1.624 9.686.919 13.663-1.892s6.341-7.378 6.341-12.249v-75.905h34.267v75.905c0 4.87 2.364 9.438 6.341 12.249 3.978 2.812 9.072 3.516 13.663 1.892 44.419-15.718 74.263-57.933 74.263-105.046 0-13.156-2.241-25.915-6.674-38.061l146.436-146.43c12.112 4.395 25.076 6.688 38.039 6.688 61.426 0 111.4-49.974 111.4-111.4-.001-47.113-29.845-89.328-74.264-105.046zm-37.137 186.446c-12.134 0-24.249-2.741-35.034-7.926-5.741-2.76-12.6-1.592-17.105 2.912l-160.667 160.661c-4.499 4.499-5.67 11.347-2.922 17.085 5.26 10.983 7.927 22.783 7.927 35.069 0 26.75-13.168 51.341-34.267 66.366v-66.366c0-8.284-6.716-15-15-15h-64.265c-8.284 0-15 6.716-15 15v66.366c-21.099-15.024-34.267-39.615-34.267-66.365 0-44.884 36.516-81.4 81.4-81.4 12.134 0 24.249 2.741 35.034 7.926 5.741 2.76 12.6 1.592 17.105-2.912l160.667-160.661c4.499-4.499 5.67-11.347 2.922-17.085-5.26-10.983-7.927-22.783-7.927-35.069 0-26.75 13.168-51.341 34.267-66.366v66.366c0 8.284 6.716 15 15 15h64.267c8.284 0 15-6.716 15-15v-66.367c21.097 15.025 34.265 39.616 34.265 66.366 0 44.884-36.516 81.4-81.4 81.4z"/></svg>