<svg width="34" height="34" viewBox="0 0 34 34" fill="none" xmlns="http://www.w3.org/2000/svg">
<path d="M15.9375 4.25C14.1897 4.25 12.75 5.68968 12.75 7.4375C12.75 9.18532 14.1897 10.625 15.9375 10.625C17.6853 10.625 19.125 9.18532 19.125 7.4375C19.125 5.68968 17.6853 4.25 15.9375 4.25ZM15.9375 10.625H13.8125C12.0551 10.625 10.625 12.0551 10.625 13.8125V19.125H6.375V14.875H4.25V19.125H2.125V21.25H4.25V25.5H6.375V21.25H25.5V25.5H27.625V21.25H29.75V19.125H27.625V14.875H25.5V19.125H21.25V13.8125C21.25 12.0551 19.8199 10.625 18.0625 10.625H15.9375ZM15.9375 6.375C16.5369 6.375 17 6.83811 17 7.4375C17 8.03689 16.5369 8.5 15.9375 8.5C15.3381 8.5 14.875 8.03689 14.875 7.4375C14.875 6.83811 15.3381 6.375 15.9375 6.375ZM13.8125 12.75H18.0625C18.6469 12.75 19.125 13.226 19.125 13.8125V18.9507L18.9507 19.125H12.9243L12.75 18.9507V13.8125C12.75 13.226 13.2281 12.75 13.8125 12.75ZM12.75 23.375V29.75H14.875V23.375H12.75ZM17 23.375V29.75H19.125V23.375H17Z" fill="#FF0000"/>
</svg>
