<svg width="34" height="34" viewBox="0 0 34 34" fill="none" xmlns="http://www.w3.org/2000/svg">
<path d="M15.9375 2.1582C13.134 2.1582 9.69579 2.78885 7.63257 3.57349C4.97847 4.5804 3.6238 7.544 4.53638 10.2183C4.5505 10.2594 4.56713 10.2996 4.58618 10.3386L7.88989 17.1992C6.94438 18.6817 6.37915 20.4295 6.37915 22.3125C6.37675 25.1861 7.67395 27.7443 9.67041 29.4885C9.86476 29.6579 10.114 29.7508 10.3718 29.75H21.5073C21.7637 29.7498 22.0113 29.6569 22.2046 29.4885C24.2011 27.7443 25.5042 25.1856 25.5042 22.3125C25.5042 20.4262 24.9378 18.675 23.9893 17.1909L27.2888 10.3386C27.3079 10.2996 27.3245 10.2594 27.3386 10.2183C28.2514 7.54341 26.8944 4.5806 24.2424 3.57349C22.1792 2.78885 18.741 2.1582 15.9375 2.1582ZM15.9375 4.2832C18.3955 4.2832 21.84 4.93516 23.4871 5.56152C25.0724 6.16358 25.8706 7.9027 25.3257 9.521L22.4993 15.3896C20.784 13.7641 18.4829 12.75 15.9417 12.75C13.3983 12.75 11.0956 13.7658 9.37988 15.3938L6.54932 9.521C6.00417 7.90211 6.80046 6.16378 8.38794 5.56152C10.035 4.93516 13.4795 4.2832 15.9375 4.2832ZM15.9417 14.875C20.0615 14.875 23.3792 18.1927 23.3792 22.3125C23.3792 24.4291 22.4367 26.2676 21.0093 27.625H10.8699C9.44251 26.2676 8.50239 24.4286 8.50415 22.3125C8.50415 18.1927 11.8218 14.875 15.9417 14.875ZM15.9375 17C13.0157 17 10.625 19.3907 10.625 22.3125C10.623 22.4533 10.649 22.5931 10.7015 22.7237C10.754 22.8544 10.832 22.9733 10.9308 23.0736C11.0297 23.1738 11.1475 23.2535 11.2774 23.3078C11.4073 23.3621 11.5467 23.3901 11.6875 23.3901C11.8283 23.3901 11.9677 23.3621 12.0976 23.3078C12.2275 23.2535 12.3453 23.1738 12.4442 23.0736C12.543 22.9733 12.621 22.8544 12.6735 22.7237C12.726 22.5931 12.752 22.4533 12.75 22.3125C12.75 20.5381 14.1631 19.125 15.9375 19.125C16.0783 19.127 16.2181 19.101 16.3487 19.0485C16.4794 18.996 16.5983 18.918 16.6986 18.8192C16.7988 18.7203 16.8785 18.6025 16.9328 18.4726C16.9871 18.3427 17.0151 18.2033 17.0151 18.0625C17.0151 17.9217 16.9871 17.7823 16.9328 17.6524C16.8785 17.5225 16.7988 17.4047 16.6986 17.3058C16.5983 17.207 16.4794 17.129 16.3487 17.0765C16.2181 17.024 16.0783 16.998 15.9375 17Z" fill="#FF0000"/>
</svg>
