<svg width="34" height="34" viewBox="0 0 34 34" fill="none" xmlns="http://www.w3.org/2000/svg">
<path d="M26.5625 6.375C24.8154 6.375 23.375 7.81535 23.375 9.5625C23.375 11.3096 24.8154 12.75 26.5625 12.75C28.3096 12.75 29.75 11.3096 29.75 9.5625C29.75 7.81535 28.3096 6.375 26.5625 6.375ZM12.75 8.5V10.625H17.6101L18.5938 11.6501L13.8955 15.6511C12.5944 16.7591 12.4048 18.7309 13.4722 20.0671V20.0713L15.9417 23.375H10.625V25.5H13.8125L10.625 29.75H13.2812L16.4688 25.5H18.0625C18.2595 25.4998 18.4525 25.4448 18.62 25.3412C18.7875 25.2377 18.923 25.0896 19.0112 24.9135C19.0995 24.7375 19.137 24.5403 19.1198 24.3441C19.1025 24.1479 19.031 23.9604 18.9133 23.8025L15.1531 18.7681C15.1463 18.7597 15.1394 18.7514 15.1323 18.7432C14.7662 18.286 14.8288 17.6484 15.2734 17.2698L20.0671 13.1858L23.375 16.6306V20.1875C23.375 20.4693 23.487 20.7395 23.6862 20.9388C23.8855 21.138 24.1557 21.25 24.4375 21.25H29.75V19.125H25.5V16.2031C25.5 15.9294 25.3945 15.6663 25.2053 15.4685L18.8303 8.82788C18.7311 8.72422 18.6119 8.64172 18.48 8.58537C18.348 8.52902 18.206 8.49998 18.0625 8.5H12.75ZM26.5625 8.5C27.1784 8.5 27.625 8.94665 27.625 9.5625C27.625 10.1784 27.1784 10.625 26.5625 10.625C25.9466 10.625 25.5 10.1784 25.5 9.5625C25.5 8.94665 25.9466 8.5 26.5625 8.5ZM4.25 12.75V14.875H12.75V12.75H4.25ZM4.25 17V19.125H10.625V17H4.25Z" fill="#FF0000"/>
</svg>
