<svg width="25" height="25" viewBox="0 0 25 25" fill="none" xmlns="http://www.w3.org/2000/svg">
<path d="M12.5 2.34375C8.62732 2.34375 5.46875 5.50232 5.46875 9.375C5.46875 10.4736 5.91431 11.734 6.51855 13.1104C7.1228 14.4867 7.901 15.9485 8.69141 17.3096C10.2722 20.0348 11.8652 22.3145 11.8652 22.3145L12.5 23.2422L13.1348 22.3145C13.1348 22.3145 14.7278 20.0348 16.3086 17.3096C17.099 15.9485 17.8772 14.4867 18.4814 13.1104C19.0857 11.734 19.5312 10.4736 19.5312 9.375C19.5312 5.50232 16.3727 2.34375 12.5 2.34375ZM12.5 3.90625C15.5304 3.90625 17.9688 6.3446 17.9688 9.375C17.9688 10.0006 17.6331 11.1847 17.0654 12.4756C16.4978 13.7665 15.7135 15.1978 14.9414 16.5283C13.7146 18.6462 12.9517 19.7662 12.5 20.4346C12.0483 19.7662 11.2854 18.6462 10.0586 16.5283C9.2865 15.1978 8.5022 13.7665 7.93457 12.4756C7.36694 11.1847 7.03125 10.0006 7.03125 9.375C7.03125 6.3446 9.4696 3.90625 12.5 3.90625ZM12.5 7.8125C11.6364 7.8125 10.9375 8.51135 10.9375 9.375C10.9375 10.2386 11.6364 10.9375 12.5 10.9375C13.3636 10.9375 14.0625 10.2386 14.0625 9.375C14.0625 8.51135 13.3636 7.8125 12.5 7.8125Z" fill="#FF0000"/>
</svg>
