<svg width="76" height="76" viewBox="0 0 76 76" fill="none" xmlns="http://www.w3.org/2000/svg">
<path d="M36.8125 2.375C17.8218 2.375 2.375 17.8264 2.375 36.8125C2.375 55.7986 17.8218 71.25 36.8125 71.25C55.8032 71.25 71.25 55.7986 71.25 36.8125C71.25 17.8264 55.8032 2.375 36.8125 2.375ZM36.8125 4.75C54.4905 4.75 68.875 19.1345 68.875 36.8125C68.875 54.4905 54.4905 68.875 36.8125 68.875C19.1345 68.875 4.75 54.4905 4.75 36.8125C4.75 19.1345 19.1345 4.75 36.8125 4.75ZM36.293 9.50928C29.2979 9.64844 22.5208 12.478 17.5017 17.4971C6.85132 28.1475 6.85132 45.4729 17.5017 56.1233C17.7336 56.3552 18.0352 56.4712 18.3413 56.4712C18.6475 56.4712 18.949 56.3552 19.1809 56.1233C19.6448 55.6594 19.6448 54.908 19.1809 54.4441C9.45825 44.7214 9.45361 28.9036 19.1809 19.1809C24.8169 13.5403 32.8928 10.9287 40.7786 12.1904C41.4233 12.2971 42.031 11.8518 42.1377 11.207C42.2397 10.5576 41.7991 9.94531 41.1543 9.84326C39.5308 9.5835 37.9072 9.47217 36.293 9.50928ZM45.9043 11.1421C45.4451 11.1653 45.0183 11.4575 44.8467 11.9167C44.6147 12.5337 44.9255 13.2156 45.5425 13.4475C46.3867 13.7583 47.2217 14.1248 48.0334 14.533C48.2051 14.6211 48.3906 14.6628 48.5715 14.6628C49.0029 14.6628 49.4204 14.4263 49.6338 14.0088C49.926 13.429 49.6895 12.71 49.105 12.4131C48.2144 11.9678 47.2959 11.5642 46.3728 11.2163C46.2197 11.1606 46.062 11.1375 45.9043 11.1421ZM52.7649 15.0525C52.4634 15.0896 52.1758 15.2427 51.9717 15.4978C51.5681 16.0173 51.6562 16.7595 52.1758 17.1631C52.9644 17.7847 53.7297 18.4619 54.4441 19.1809C64.1714 28.9036 64.1714 44.7214 54.4441 54.4441C53.9802 54.9126 53.9802 55.6594 54.4441 56.1279C54.676 56.3552 54.9822 56.4758 55.2883 56.4758C55.5898 56.4758 55.896 56.3552 56.1279 56.1279C66.7737 45.4775 66.7737 28.1475 56.1279 17.4971C55.344 16.7178 54.5044 15.9709 53.6416 15.2937C53.3818 15.0942 53.0664 15.0154 52.7649 15.0525ZM36.8125 21.375C36.1584 21.375 35.625 21.9038 35.625 22.5625V35.625H22.5625C21.9084 35.625 21.375 36.1538 21.375 36.8125C21.375 37.4712 21.9084 38 22.5625 38H35.625V51.0625C35.625 51.7212 36.1584 52.25 36.8125 52.25C37.4666 52.25 38 51.7212 38 51.0625V38H51.0625C51.7166 38 52.25 37.4712 52.25 36.8125C52.25 36.1538 51.7166 35.625 51.0625 35.625H38V22.5625C38 21.9038 37.4666 21.375 36.8125 21.375ZM25.3828 56.281C24.9189 56.2253 24.4504 56.4387 24.2092 56.8655L23.0217 58.9204C22.6924 59.491 22.8826 60.2146 23.4531 60.5439C23.6387 60.6506 23.8428 60.7017 24.0469 60.7017C24.4551 60.7017 24.854 60.4883 25.072 60.1079L26.2595 58.053C26.5889 57.4871 26.3987 56.7588 25.8281 56.4294C25.6843 56.3506 25.5312 56.2996 25.3828 56.281ZM48.2422 56.281C48.0938 56.2996 47.9407 56.3506 47.7969 56.4294C47.2263 56.7588 47.0361 57.4871 47.3655 58.0576L48.553 60.1125C48.771 60.4929 49.1699 60.7063 49.5781 60.7063C49.7822 60.7063 49.9863 60.6506 50.1719 60.5439C50.7424 60.2146 50.9326 59.491 50.6033 58.925L49.4158 56.8701C49.1746 56.4434 48.7061 56.2253 48.2422 56.281ZM42.9727 58.5957C42.8196 58.5725 42.6572 58.5818 42.4949 58.6282C41.864 58.7952 41.4883 59.4492 41.6553 60.0801L42.2722 62.3762C42.416 62.905 42.8938 63.2529 43.418 63.2529C43.52 63.2529 43.6221 63.2437 43.7288 63.2158C44.3596 63.0442 44.7354 62.3948 44.5684 61.7639L43.9561 59.4678C43.8262 58.99 43.4272 58.6606 42.9727 58.5957ZM30.6523 58.5957C30.1978 58.6606 29.7988 58.99 29.6689 59.4678L29.0566 61.7639C28.885 62.3948 29.2607 63.0442 29.8962 63.2158C29.9983 63.2437 30.105 63.2529 30.207 63.2529C30.7266 63.2529 31.209 62.905 31.3528 62.3762L31.9651 60.0801C32.1367 59.4492 31.761 58.7952 31.1301 58.6282C30.9678 58.5818 30.8054 58.5771 30.6523 58.5957ZM36.8125 59.375C36.1584 59.375 35.625 59.9038 35.625 60.5625V62.9375C35.625 63.5962 36.1584 64.125 36.8125 64.125C37.4666 64.125 38 63.5962 38 62.9375V60.5625C38 59.9038 37.4666 59.375 36.8125 59.375Z" fill="white"/>
</svg>
