<svg width="19" height="19" fill="none" xmlns="http://www.w3.org/2000/svg"><path d="M9.5 0C4.262 0 0 3.835 0 8.55c0 1.648.521 3.244 1.51 4.625-.187 2.07-.689 3.606-1.417 4.334a.317.317 0 00.268.538c.128-.018 3.107-.447 5.262-1.69 1.224.493 2.527.743 3.877.743 5.238 0 9.5-3.836 9.5-8.55C19 3.835 14.738 0 9.5 0zM5.067 9.817A1.268 1.268 0 013.8 8.55a1.268 1.268 0 012.533 0c0 .699-.568 1.267-1.266 1.267zm4.433 0A1.268 1.268 0 018.233 8.55a1.268 1.268 0 012.533 0c0 .699-.567 1.267-1.266 1.267zm4.433 0a1.268 1.268 0 01-1.266-1.267c0-.699.568-1.267 1.266-1.267a1.268 1.268 0 010 2.533z" fill="white"/></svg>
