<svg width="28" height="28" xmlns="http://www.w3.org/2000/svg">
  <path
    d="M11.711 16.29c-2.545-2.545-3.12-5.09-3.25-6.11a.914.914 0 01.263-.765l2.06-2.058a.92.92 0 00.13-1.138l-3.28-5.093a.92.92 0 00-1.19-.335l-5.265 2.48a.914.914 0 00-.506.913c.276 2.62 1.418 9.063 7.749 15.394 6.33 6.331 12.77 7.473 15.392 7.749a.914.914 0 00.914-.506l2.48-5.264a.92.92 0 00-.334-1.19l-5.092-3.278a.92.92 0 00-1.138.129l-2.058 2.06a.914.914 0 01-.765.262c-1.02-.13-3.565-.704-6.11-3.25z" />
  <path
    d="M21.817 14.919a.92.92 0 01-.92-.92 6.904 6.904 0 00-6.895-6.896.92.92 0 010-1.839A8.745 8.745 0 0122.736 14a.92.92 0 01-.92.92z" />
  <path
    d="M26.414 14.919a.92.92 0 01-.92-.92c-.006-6.344-5.148-11.486-11.492-11.493a.92.92 0 010-1.84C21.362.676 27.325 6.64 27.334 14a.92.92 0 01-.92.92z" />
  </svg>
