<svg width="48" height="48" viewBox="0 0 48 48" fill="none" xmlns="http://www.w3.org/2000/svg">
<path fill-rule="evenodd" clip-rule="evenodd" d="M47.6824 25.5176L44.8616 21.8846L44.8643 21.8832L40.3266 12.8581C40.0694 12.3474 39.5466 12.0251 38.9748 12.0251H32.521V10.5126C32.521 9.67706 31.8439 9 31.0085 9H5.79835C4.96285 9 4.28579 9.67716 4.28579 10.5126C4.28579 11.348 4.96295 12.0251 5.79835 12.0251H29.4958V22.6133C29.4958 23.4488 30.173 24.1259 31.0084 24.1259H42.7719L44.9748 26.9635V34.7646H42.1239C41.4682 32.1325 39.0843 30.1765 36.2521 30.1765C33.4198 30.1765 31.0358 32.1326 30.3802 34.7649H21.4517C20.7961 32.1326 18.4122 30.1765 15.5798 30.1765C12.7475 30.1765 10.3636 32.1326 9.70798 34.7649H5.79835C4.96285 34.7649 4.28579 35.442 4.28579 36.2775C4.28579 37.113 4.96295 37.79 5.79835 37.79H9.73407C10.4248 40.3711 12.7839 42.2774 15.5798 42.2774C18.3758 42.2774 20.7348 40.3712 21.4256 37.7901H30.4063C31.0971 40.3712 33.4561 42.2774 36.2521 42.2774C39.0487 42.2774 41.4075 40.371 42.098 37.7897H46.4874C47.3229 37.7897 47.9999 37.1125 48 36.2771V26.4454C48 26.1096 47.8881 25.7828 47.6824 25.5176ZM38.042 15.0504L41.0839 21.1008H32.521V15.0504H38.042ZM15.5798 39.2522C13.9115 39.2522 12.5546 37.8953 12.5546 36.227C12.5546 34.5586 13.9115 33.2017 15.5798 33.2017C17.2477 33.2017 18.6051 34.5586 18.6051 36.227C18.6051 37.8954 17.2482 39.2522 15.5798 39.2522ZM36.2521 39.2522C34.5837 39.2522 33.2269 37.8953 33.2269 36.227C33.2269 34.5586 34.5837 33.2017 36.2521 33.2017C37.9205 33.2017 39.2773 34.5586 39.2773 36.227C39.2773 37.8954 37.9205 39.2522 36.2521 39.2522ZM3.98316 27.1011H10.9412C11.7766 27.1011 12.4538 27.7782 12.4537 28.6136C12.4537 29.449 11.7766 30.1262 10.9411 30.1262H3.98316C3.14775 30.1262 2.4706 29.4491 2.4706 28.6136C2.4706 27.7782 3.14766 27.1011 3.98316 27.1011ZM14.4202 21.1511H1.51256C0.677156 21.1511 0 21.8283 0 22.6638C0 23.4993 0.677156 24.1763 1.51256 24.1763H14.4202C15.2557 24.1763 15.9327 23.4992 15.9327 22.6638C15.9327 21.8284 15.2557 21.1511 14.4202 21.1511ZM3.98316 15.2019H16.8908C17.7263 15.2019 18.4034 15.8791 18.4033 16.7145C18.4033 17.5499 17.7263 18.227 16.8908 18.227H3.98316C3.14775 18.227 2.4706 17.55 2.4706 16.7145C2.4706 15.8791 3.14766 15.2019 3.98316 15.2019Z" fill="#696871"/>
</svg>
