<svg width="56" height="56" viewBox="0 0 56 56" fill="none" xmlns="http://www.w3.org/2000/svg">
<path d="M53.6755 15.9963C51.8933 12.9958 49.3896 10.1417 47.6991 8.64436C44.0088 5.37482 40.9305 5.45444 39.4236 5.79306C38.7905 5.93536 38.2092 6.16997 37.6974 6.48289C35.0682 4.53175 31.8696 3.57593 28 3.57593C24.1303 3.57593 20.9316 4.53175 18.3025 6.483C17.7906 6.17008 17.2094 5.93536 16.5763 5.79317C15.0699 5.45466 11.9911 5.37492 8.30101 8.64436C6.6104 10.1418 4.10681 12.9959 2.32444 15.9964C-0.0885862 20.0587 -0.626054 23.3449 0.726912 25.7639C2.37891 28.7174 4.88469 29.4731 6.90757 29.6595C6.41035 31.5905 6.10334 33.6563 6.10334 36.2302C6.10334 39.6419 6.8799 42.5771 8.41169 44.9543C9.75821 47.0442 11.6968 48.7177 14.1734 49.9284C18.7495 52.1652 24.2562 52.4239 28.0001 52.4239C31.744 52.4239 37.2508 52.1652 41.8267 49.9284C44.3032 48.7177 46.2419 47.0442 47.5884 44.9543C49.1201 42.577 49.8968 39.6418 49.8968 36.2302C49.8968 33.6564 49.5898 31.5906 49.0926 29.6595C51.1154 29.473 53.6213 28.7171 55.2732 25.7638C56.626 23.345 56.0884 20.0587 53.6755 15.9963ZM7.97102 26.2834C6.18078 26.2364 4.725 25.8898 3.71864 24.0907C3.03592 22.87 3.60194 20.5578 5.27176 17.7467C6.85649 15.0788 9.13116 12.4881 10.574 11.2099C12.9569 9.09848 14.7432 8.98221 15.5836 9.09476C13.0825 12.1437 11.5495 16.1061 10.2676 19.9586C9.73666 21.554 9.22501 22.916 8.72998 24.2334C8.46529 24.9382 8.21066 25.6162 7.97102 26.2834ZM25.7638 37.5217C24.8771 36.6354 24.413 35.7051 24.413 35.2442C24.413 34.8326 24.4836 34.8031 24.7457 34.6927C25.4931 34.3783 26.9609 34.342 28 34.342C29.039 34.342 30.5068 34.3783 31.2542 34.6927C31.5164 34.803 31.5869 34.8327 31.5869 35.2442C31.5869 35.7051 31.1229 36.6353 30.2361 37.5217C29.3641 38.3932 28.4332 38.8634 27.9998 38.8634C27.5665 38.8634 26.6358 38.3932 25.7638 37.5217ZM40.3214 46.849C37.6908 48.1347 34.2085 48.832 29.7139 48.9702V41.949C31.0596 41.4297 32.1555 40.4497 32.6593 39.9462C33.3675 39.2385 35.0147 37.3633 35.0147 35.2443C35.0147 33.5108 34.1513 32.1929 32.5835 31.5333C31.5386 31.0936 30.2105 30.9143 28.0001 30.9143C25.7896 30.9143 24.4616 31.0936 23.4165 31.5333C21.8488 32.1929 20.9853 33.5107 20.9853 35.2443C20.9853 37.3633 22.6326 39.2383 23.3407 39.9462C23.8445 40.4498 24.9405 41.4298 26.2862 41.949V48.9702C21.7915 48.8322 18.3092 48.1349 15.6787 46.849C11.5419 44.8268 9.53093 41.3534 9.53093 36.2302C9.53093 31.8473 10.5409 29.1592 11.9386 25.4389C12.4213 24.1542 12.9681 22.6982 13.5197 21.0409C16.5494 11.937 19.7543 7.00362 28 7.00362C36.2456 7.00362 39.4505 11.9371 42.4801 21.0409C43.0316 22.6984 43.5786 24.1542 44.0612 25.4389C45.4589 29.1592 46.4689 31.8472 46.4689 36.2302C46.469 41.3534 44.458 44.8268 40.3214 46.849ZM52.2815 24.0907C51.275 25.89 49.8192 26.2363 48.029 26.2834C47.7892 25.616 47.5348 24.9382 47.2701 24.2334C46.7752 22.9161 46.2636 21.554 45.7326 19.9586C44.4506 16.1061 42.9176 12.1437 40.4165 9.09476C41.2569 8.98243 43.0434 9.09848 45.4263 11.21C46.8692 12.488 49.1437 15.0785 50.7285 17.7465C52.3982 20.5578 52.9642 22.8701 52.2815 24.0907Z" fill="white"/>
<path d="M22.2961 21.7935C21.0561 21.7935 20.0469 22.8129 20.0469 24.0717C20.0469 25.3304 21.056 26.3508 22.2961 26.3508C23.5377 26.3508 24.5467 25.3303 24.5467 24.0717C24.5467 22.8129 23.5377 21.7935 22.2961 21.7935Z" fill="white"/>
<path d="M33.6869 21.7756C32.4348 21.7756 31.4192 22.8036 31.4192 24.0717C31.4192 25.3398 32.4348 26.3678 33.6869 26.3678C34.9374 26.3678 35.953 25.3398 35.953 24.0717C35.9531 22.8036 34.9374 21.7756 33.6869 21.7756Z" fill="white"/>
</svg>
