<svg width="94" height="94" viewBox="0 0 94 94" fill="none" xmlns="http://www.w3.org/2000/svg">
<path d="M93.5221 45.4814C92.7412 21.0268 72.9736 1.25996 48.5197 0.479012C35.2135 0.0568409 22.7647 5.12159 13.5645 14.6204C4.71983 23.752 0.0726809 35.7904 0.479167 48.5196C1.25946 72.9735 21.027 92.741 45.4809 93.5213C45.99 93.5377 46.4945 93.5455 47.0003 93.5455C59.7138 93.5455 71.5882 88.5147 80.4361 79.3799C89.2808 70.249 93.9286 58.2099 93.5221 45.4814ZM73.3951 72.5605C66.4104 79.772 57.0364 83.7434 47.0003 83.7434C46.5991 83.7434 46.1978 83.7369 45.7933 83.7245C26.4937 83.1082 10.8929 67.5075 10.276 48.2072C9.95514 38.1548 13.6233 28.6488 20.6055 21.4405C27.5903 14.229 36.9643 10.2576 47.0003 10.2576C47.4016 10.2576 47.8028 10.2641 48.2074 10.2765C67.507 10.8928 83.1077 26.4935 83.7246 45.7938C84.0455 55.8461 80.3767 65.3522 73.3951 72.5605Z" fill="white"/>
<path d="M62.2672 44.2962L41.6265 29.4967C39.4248 27.9178 36.3599 29.4915 36.3599 32.201V61.8007C36.3599 64.5101 39.4248 66.0838 41.6265 64.5049L62.2665 49.7047C64.1186 48.3774 64.1186 45.6242 62.2672 44.2962Z" fill="white"/>
</svg>
