<svg width="56" height="56" viewBox="0 0 56 56" fill="none" xmlns="http://www.w3.org/2000/svg">
<path d="M48.127 13.9962C46.5094 13.9962 45.0037 14.4866 43.7516 15.3263V6.99555C43.7516 2.96012 39.38 0.465048 35.9233 2.41845C33.4422 -1.4493 27.6053 -0.466584 26.4325 3.86375C23.2113 2.58405 19.644 4.74157 19.2792 8.18118C15.8473 6.94064 12.2488 9.49992 12.2488 13.1211V30.766C12.2488 31.7325 13.0323 32.5162 13.9989 32.5162C14.9656 32.5162 15.7491 31.7325 15.7491 30.766V13.1211C15.7491 12.6533 15.931 12.2137 16.2615 11.8833C17.361 10.784 19.2494 11.5724 19.2494 13.1211V24.4972C19.2494 25.4637 20.0329 26.2473 20.9996 26.2473C21.9662 26.2473 22.7497 25.4637 22.7497 24.4972C22.7497 22.8539 22.7497 10.4496 22.7497 8.74571C22.7497 8.27787 22.9317 7.83826 23.2621 7.50791C24.3616 6.40859 26.2501 7.19704 26.2501 8.74571V24.4972C26.2501 25.4637 27.0336 26.2473 28.0002 26.2473C28.9669 26.2473 29.7504 25.4637 29.7504 24.4972C29.7504 22.3463 29.7504 7.60286 29.7504 5.24539C29.7504 4.77755 29.9323 4.33793 30.2627 4.00759C31.3623 2.90827 33.2507 3.69672 33.2507 5.24539V24.4972C33.2507 25.4637 34.0342 26.2473 35.0009 26.2473C35.9675 26.2473 36.751 25.4637 36.751 24.4972V6.99555C36.751 6.52771 36.9329 6.0881 37.2634 5.75775C38.3629 4.65843 40.2514 5.44688 40.2514 6.99555V29.8575C34.2989 30.6016 29.1283 35.0881 28.0241 41.711C27.8462 42.7779 28.6689 43.7493 29.7526 43.7493C30.5925 43.7493 31.3341 43.1426 31.4768 42.2867C32.4003 36.7435 36.9746 33.2481 42.0016 33.2481C42.9683 33.2481 43.7518 32.4644 43.7518 31.4979V21.872C43.7518 19.4594 45.7146 17.4966 48.1272 17.4966C48.6097 17.4966 49.0023 17.8892 49.0023 18.3717V35.8733C49.0023 45.0605 41.567 52.4998 32.3757 52.4998C28.6358 52.4998 25.1039 51.2873 22.1625 48.9933C21.4 48.3988 20.3006 48.535 19.706 49.297C19.1116 50.0592 19.2477 51.159 20.0098 51.7534C23.5722 54.5316 27.8483 56 32.3757 56C43.4974 56 52.5026 46.9997 52.5026 35.8732V18.3716C52.5024 15.959 50.5395 13.9962 48.127 13.9962Z" fill="white"/>
<path d="M24.4997 44.624C24.4997 43.6575 23.7162 42.8738 22.7496 42.8738C18.887 42.8738 15.7489 39.7485 15.7489 35.8732C15.7489 34.9067 14.9654 34.123 13.9988 34.123C13.0321 34.123 12.2486 34.9067 12.2486 35.8732C12.2486 39.7347 9.1238 42.8738 5.24796 42.8738C4.28133 42.8738 3.4978 43.6575 3.4978 44.624C3.4978 45.5905 4.28133 46.3742 5.24796 46.3742C9.10816 46.3742 12.2486 49.5146 12.2486 53.3748C12.2486 54.3413 13.0321 55.125 13.9988 55.125C14.9654 55.125 15.7489 54.3413 15.7489 53.3748C15.7489 49.5135 18.8736 46.3742 22.7496 46.3742C23.7162 46.3742 24.4997 45.5906 24.4997 44.624ZM13.9949 47.5702C13.2194 46.4054 12.2172 45.4033 11.0525 44.6277C12.214 43.8543 13.223 42.8468 13.9989 41.6834C14.7693 42.8388 15.7747 43.8476 16.9395 44.6241C15.7787 45.3981 14.7696 46.4068 13.9949 47.5702Z" fill="white"/>>
</svg>
