<svg width="56" height="56" viewBox="0 0 56 56" fill="none" xmlns="http://www.w3.org/2000/svg">
<path d="M41.2708 5.27704C40.3713 4.42426 38.962 4.42426 38.0614 5.27704C37.9389 5.39268 35.5309 7.68272 32.6946 10.9235C28.1703 5.17792 24.0403 0.885518 23.8443 0.682719C22.9648 -0.225891 21.3663 -0.22703 20.4879 0.683858C18.3915 2.85598 0 22.2416 0 33.8045C0 46.0278 9.94344 55.9712 22.1667 55.9712C30.4159 55.9712 37.9577 51.3672 41.7516 44.1542C49.8471 43.139 56 36.2917 56 27.9712C56 19.4776 42.7793 6.70518 41.2708 5.27704ZM22.1667 51.3046C12.5172 51.3046 4.66667 43.454 4.66667 33.8045C4.66667 26.3596 16.0639 12.3796 22.161 5.72137C24.1069 7.85647 27.4725 11.6823 30.7418 16.0362C38.1183 25.884 39.6667 31.134 39.6667 33.8045C39.6667 36.327 39.1466 38.7384 38.1104 40.9937C35.2996 47.2571 29.043 51.3046 22.1667 51.3046ZM43.7443 38.9064C43.7665 38.8107 43.7825 38.7127 43.8035 38.617C43.8258 38.5156 43.8457 38.4125 43.8668 38.31C44.0081 37.631 44.1208 36.9451 44.1966 36.2484C44.2052 36.1738 44.2086 36.0969 44.2166 36.0222C44.2889 35.2908 44.3333 34.5525 44.3333 33.8045C44.3333 33.5009 44.3202 33.1922 44.2974 32.876C44.2889 32.7718 44.2741 32.6635 44.2633 32.5587C44.2422 32.3439 44.2211 32.128 44.1886 31.9076C44.1698 31.7777 44.1431 31.6438 44.1197 31.5117C44.085 31.3089 44.0508 31.1072 44.0081 30.8993C43.9773 30.7546 43.9391 30.6053 43.9049 30.4584C43.8571 30.2567 43.8104 30.0562 43.7557 29.8505C43.7141 29.6956 43.6646 29.5366 43.6195 29.3783C43.5586 29.1738 43.4993 28.9698 43.4316 28.7608C43.378 28.5967 43.3182 28.4287 43.2601 28.2606C43.1877 28.0515 43.1143 27.8425 43.0339 27.6306C42.9684 27.4579 42.8984 27.2814 42.8283 27.1065C42.7423 26.8917 42.6545 26.6747 42.5611 26.4553C42.4854 26.2759 42.405 26.0953 42.323 25.9119C42.2239 25.6903 42.1225 25.4664 42.0165 25.2397C41.9288 25.0534 41.8376 24.8643 41.7442 24.674C41.6326 24.4456 41.5169 24.2132 41.3967 23.9802C41.2976 23.7865 41.1962 23.5905 41.0925 23.3928C40.9678 23.1576 40.8368 22.9183 40.7052 22.6768C40.5941 22.4763 40.4824 22.274 40.3668 22.0701C40.2278 21.8251 40.0819 21.5756 39.935 21.3255C39.8136 21.1193 39.6934 20.9137 39.5675 20.7052C39.4137 20.4494 39.2514 20.1896 39.0902 19.9293C38.9597 19.718 38.8304 19.5083 38.6937 19.2947C38.5245 19.0287 38.3473 18.7569 38.1696 18.4863C38.0289 18.2704 37.8899 18.0568 37.7441 17.8375C37.5595 17.5624 37.3658 17.2798 37.1744 16.9995C37.0229 16.7779 36.8748 16.5586 36.7187 16.3336C36.5204 16.0488 36.3114 15.7571 36.1046 15.4677C35.9428 15.2393 35.785 15.0143 35.6169 14.783C35.6033 14.763 35.5902 14.7448 35.5754 14.7249C37.1305 12.9059 38.6145 11.3354 39.6769 10.2485C44.7372 15.3851 51.3333 23.5563 51.3333 27.9712C51.3333 32.9899 48.1996 37.2635 43.7443 38.9064Z" fill="white"/>
<path d="M29.2658 28.6541C28.355 29.5649 28.355 31.0432 29.2658 31.9535C29.9261 32.6138 30.2901 33.4933 30.2901 34.4276C30.2901 35.3635 29.9261 36.2431 29.2647 36.9033C28.3538 37.8148 28.3538 39.293 29.2647 40.2028C29.721 40.6591 30.3169 40.8864 30.9144 40.8864C31.5115 40.8864 32.109 40.6591 32.5653 40.2028C34.1074 38.6607 34.9568 36.6094 34.9568 34.4276C34.9568 32.2463 34.1074 30.195 32.5653 28.6541C31.655 27.7426 30.1784 27.7426 29.2658 28.6541Z" fill="white"/>
</svg>
