<svg width="33" height="32" viewBox="0 0 33 32" fill="none" xmlns="http://www.w3.org/2000/svg">
<path d="M32.0181 15.478C31.7496 7.07171 24.9545 0.276847 16.5485 0.0083951C11.9745 -0.136726 7.69522 1.60428 4.53266 4.86951C1.4923 8.00849 -0.105158 12.1467 0.0345716 16.5223C0.302799 24.9284 7.09789 31.7235 15.5039 31.9917C15.6789 31.9973 15.8523 32 16.0262 32C20.3965 32 24.4783 30.2707 27.5198 27.1306C30.5601 23.9918 32.1578 19.8534 32.0181 15.478ZM25.0994 24.7864C22.6984 27.2654 19.4761 28.6305 16.0262 28.6305C15.8883 28.6305 15.7504 28.6283 15.6113 28.624C8.97705 28.4122 3.6143 23.0494 3.40224 16.415C3.29194 12.9595 4.55288 9.69176 6.95299 7.21391C9.35401 4.73495 12.5763 3.36977 16.0262 3.36977C16.1642 3.36977 16.3021 3.37202 16.4411 3.37629C23.0754 3.58813 28.4381 8.95087 28.6502 15.5853C28.7605 19.0408 27.4993 22.3085 25.0994 24.7864Z" fill="white"/>
<path fill-rule="evenodd" clip-rule="evenodd" d="M18.0262 10.8C18.0262 9.69548 17.1308 8.80005 16.0262 8.80005C14.9216 8.80005 14.0262 9.69548 14.0262 10.8001V14.1334H10.6929C9.5883 14.1334 8.69287 15.0288 8.69287 16.1334C8.69287 17.238 9.5883 18.1334 10.6929 18.1334H14.0262V21.4667C14.0262 22.5713 14.9216 23.4667 16.0262 23.4667C17.1308 23.4667 18.0262 22.5713 18.0262 21.4667V18.1334H21.3595C22.4641 18.1334 23.3595 17.238 23.3595 16.1334C23.3595 15.0288 22.4641 14.1334 21.3595 14.1334H18.0262V10.8Z" fill="white"/>
<path fill-rule="evenodd" clip-rule="evenodd" d="M18.0262 10.8C18.0262 9.69548 17.1308 8.80005 16.0262 8.80005C14.9216 8.80005 14.0262 9.69548 14.0262 10.8001V14.1334H10.6929C9.5883 14.1334 8.69287 15.0288 8.69287 16.1334C8.69287 17.238 9.5883 18.1334 10.6929 18.1334H14.0262V21.4667C14.0262 22.5713 14.9216 23.4667 16.0262 23.4667C17.1308 23.4667 18.0262 22.5713 18.0262 21.4667V18.1334H21.3595C22.4641 18.1334 23.3595 17.238 23.3595 16.1334C23.3595 15.0288 22.4641 14.1334 21.3595 14.1334H18.0262V10.8Z" fill="white"/>
<path fill-rule="evenodd" clip-rule="evenodd" d="M18.0262 10.8C18.0262 9.69548 17.1308 8.80005 16.0262 8.80005C14.9216 8.80005 14.0262 9.69548 14.0262 10.8001V14.1334H10.6929C9.5883 14.1334 8.69287 15.0288 8.69287 16.1334C8.69287 17.238 9.5883 18.1334 10.6929 18.1334H14.0262V21.4667C14.0262 22.5713 14.9216 23.4667 16.0262 23.4667C17.1308 23.4667 18.0262 22.5713 18.0262 21.4667V18.1334H21.3595C22.4641 18.1334 23.3595 17.238 23.3595 16.1334C23.3595 15.0288 22.4641 14.1334 21.3595 14.1334H18.0262V10.8Z" fill="white"/>
<path fill-rule="evenodd" clip-rule="evenodd" d="M18.0262 10.8C18.0262 9.69548 17.1308 8.80005 16.0262 8.80005C14.9216 8.80005 14.0262 9.69548 14.0262 10.8001V14.1334H10.6929C9.5883 14.1334 8.69287 15.0288 8.69287 16.1334C8.69287 17.238 9.5883 18.1334 10.6929 18.1334H14.0262V21.4667C14.0262 22.5713 14.9216 23.4667 16.0262 23.4667C17.1308 23.4667 18.0262 22.5713 18.0262 21.4667V18.1334H21.3595C22.4641 18.1334 23.3595 17.238 23.3595 16.1334C23.3595 15.0288 22.4641 14.1334 21.3595 14.1334H18.0262V10.8Z" fill="white"/>
</svg>
