<svg width="56" height="56" viewBox="0 0 56 56" fill="none" xmlns="http://www.w3.org/2000/svg">
<path d="M55.3025 18.1993C54.3129 16.0821 52.5579 14.4768 50.361 13.6795C48.4468 12.9847 46.3968 12.9762 44.5004 13.6401C42.6414 11.5092 40.3661 9.73334 37.8507 8.46287C34.7794 6.91174 31.466 6.12524 28.0025 6.12524C25.73 6.12524 23.4901 6.47261 21.3452 7.1575C20.4246 7.4515 19.9166 8.43629 20.2106 9.35688C20.5046 10.2775 21.4895 10.7855 22.41 10.4915C24.2101 9.91654 26.0917 9.62506 28.0024 9.62506C33.1673 9.62506 37.9733 11.7358 41.4423 15.4704C40.4236 16.4076 39.6366 17.5807 39.1508 18.9192C38.3533 21.1162 38.4593 23.4921 39.449 25.6094C40.955 28.8311 47.2124 32.3591 49.8329 33.7264C50.3433 33.9928 50.8964 34.1264 51.4506 34.1264C51.9544 34.1264 52.4591 34.0158 52.9334 33.7942C53.9291 33.3288 54.635 32.446 54.8699 31.3721C55.5017 28.4848 56.8083 21.4211 55.3025 18.1993ZM51.452 30.6236C46.9389 28.2687 43.3069 25.5974 42.6199 24.1274C42.0261 22.8571 41.9625 21.4315 42.4409 20.1133C42.6952 19.4128 43.0875 18.7882 43.589 18.2665C44.4 19.5615 45.0442 20.9478 45.5095 22.4066C45.7467 23.1505 46.435 23.6253 47.1763 23.6253C47.3525 23.6253 47.5317 23.5985 47.7085 23.5421C48.6292 23.2484 49.1377 22.2638 48.844 21.3431C48.3233 19.7104 47.6153 18.1539 46.7312 16.693C47.544 16.5915 48.3749 16.6819 49.167 16.9694C50.4852 17.4478 51.5381 18.411 52.1319 19.6812C52.8189 21.1513 52.5389 25.6512 51.452 30.6236Z" fill="white"/>
<path d="M45.0359 38.8619C44.2693 38.273 43.1709 38.4172 42.5821 39.1836C39.0715 43.7535 33.7575 46.3745 28.0025 46.3745C20.1286 46.3745 13.1091 41.2457 10.6061 33.926C10.9877 33.8426 11.3663 33.7336 11.7397 33.5981C13.9367 32.8007 15.6916 31.1955 16.6812 29.0783C18.1871 25.8565 16.8804 18.7929 16.2486 15.9054C16.0137 14.8315 15.3079 13.9487 14.3122 13.4833C13.3164 13.0178 12.1863 13.0426 11.2117 13.5511C8.59122 14.9184 2.33379 18.4464 0.827834 21.6682C-0.161879 23.7854 -0.267752 26.1614 0.529575 28.3583C1.3269 30.5551 2.93205 32.3101 5.0494 33.2999C5.66331 33.5867 6.29898 33.7987 6.94559 33.9366C8.16236 38.248 10.7117 42.1354 14.2149 44.9828C18.0959 48.1371 22.9923 49.8744 28.0023 49.8744C31.459 49.8744 34.7666 49.0907 37.8333 47.5454C40.7565 46.0724 43.3583 43.9182 45.3574 41.3158C45.9464 40.5493 45.8023 39.4506 45.0359 38.8619ZM3.81961 27.1644C3.34122 25.8462 3.40476 24.4207 3.99855 23.1503C4.68563 21.6803 8.31756 19.009 12.8296 16.6536C13.9177 21.6266 14.1977 26.1264 13.5106 27.5964C12.9168 28.8668 11.8639 29.8299 10.5457 30.3083C10.3002 30.3974 10.0509 30.4675 9.79967 30.5192C9.68571 29.6868 9.62796 28.8441 9.62796 28C9.62796 27.1999 9.68013 26.3925 9.78294 25.6002C9.9073 24.6418 9.23115 23.764 8.27272 23.6396C7.31418 23.5152 6.43646 24.1913 6.31211 25.1498C6.18994 26.0909 6.12803 27.0499 6.12803 28C6.12803 28.6576 6.1591 29.3145 6.21761 29.9681C5.10299 29.3548 4.25765 28.3713 3.81961 27.1644Z" fill="white"/>
</svg>
