<svg width="48" height="48" viewBox="0 0 48 48" fill="none" xmlns="http://www.w3.org/2000/svg">
<path d="M38.625 14V12.375C38.625 9.68637 36.4386 7.5 33.75 7.5H9.375C6.68637 7.5 4.5 9.68637 4.5 12.375V38.375C4.5 41.0636 6.68637 43.25 9.375 43.25H38.625C41.3136 43.25 43.5 41.0636 43.5 38.375V18.875C43.5 16.1864 41.3136 14 38.625 14ZM9.375 10.75H33.75C34.6462 10.75 35.375 11.4788 35.375 12.375V14H9.375C8.47879 14 7.75 13.2712 7.75 12.375C7.75 11.4788 8.47879 10.75 9.375 10.75ZM38.625 40H9.375C8.47879 40 7.75 39.2712 7.75 38.375V16.9715C8.25861 17.1516 8.8053 17.25 9.375 17.25H38.625C39.5212 17.25 40.25 17.9788 40.25 18.875V22.9375H31.3125C28.1764 22.9375 25.625 25.4897 25.625 28.625C25.625 31.7603 28.1764 34.3125 31.3125 34.3125H40.25V38.375C40.25 39.2712 39.5212 40 38.625 40ZM40.25 31.0625H36.4474C36.8048 30.3075 37 29.4815 37 28.625C37 27.7522 36.7961 26.9278 36.4434 26.1875H40.25V31.0625ZM28.875 28.625C28.875 27.2813 29.9688 26.1875 31.3125 26.1875C32.6562 26.1875 33.75 27.2813 33.75 28.625C33.75 29.2756 33.4957 29.8918 33.0454 30.346C32.5793 30.8082 31.9631 31.0625 31.3125 31.0625C29.9688 31.0625 28.875 29.9687 28.875 28.625Z" fill="#696871"/>
</svg>
