<svg width="56" height="56" viewBox="0 0 56 56" fill="none" xmlns="http://www.w3.org/2000/svg">
<path d="M50.3968 18.4537V10.7341C50.3968 5.3172 45.9898 0.910156 40.5729 0.910156H15.4271C10.0102 0.910156 5.60317 5.3172 5.60317 10.7341V18.4537C2.39564 19.2085 0 22.0923 0 25.5267V35.4945C0 42.8784 5.58217 48.9821 12.7479 49.81V53.4251C12.7479 54.3443 13.4932 55.0896 14.4123 55.0896C15.3316 55.0896 16.0768 54.3443 16.0768 53.4251V49.9067H39.9233V53.4251C39.9233 54.3443 40.6686 55.0896 41.5878 55.0896C42.507 55.0896 43.2522 54.3443 43.2522 53.4251V49.81C50.4179 48.9821 56 42.8784 56 35.4945V25.5266C56 22.0923 53.6044 19.2085 50.3968 18.4537ZM8.93222 10.7341C8.93222 7.15284 11.8459 4.2392 15.4271 4.2392H40.5728C44.154 4.2392 47.0677 7.15284 47.0677 10.7341V18.4537C43.8601 19.2085 41.4645 22.0922 41.4645 25.5267V35.3714H14.5354V25.5267C14.5354 22.0923 12.1398 19.2085 8.93222 18.4537V10.7341ZM52.6711 35.4945C52.6711 41.6058 47.6991 46.5777 41.5878 46.5777H14.4123C8.30102 46.5777 3.32894 41.6058 3.32894 35.4945V25.5266C3.32894 23.3549 5.09589 21.588 7.26764 21.588C9.4395 21.588 11.2063 23.355 11.2063 25.5266V35.4945C11.2063 37.2623 12.6444 38.7003 14.4122 38.7003H41.5877C43.3554 38.7003 44.7934 37.2623 44.7934 35.4945V25.5266C44.7934 23.3549 46.5604 21.588 48.7321 21.588C50.904 21.588 52.6708 23.355 52.6708 25.5266V35.4945H52.6711Z" fill="white"/>
<path d="M23.2286 14.1807C22.358 14.1807 21.5239 14.9462 21.5641 15.8451C21.6045 16.7469 22.2955 17.5096 23.2286 17.5096C24.0992 17.5096 24.9333 16.7441 24.8931 15.8451C24.8526 14.9433 24.1617 14.1807 23.2286 14.1807Z" fill="white"/>
<path d="M23.2286 22.7341C22.358 22.7341 21.5239 23.4996 21.5641 24.3986C21.6045 25.3004 22.2955 26.0631 23.2286 26.0631C24.0992 26.0631 24.9333 25.2976 24.8931 24.3986C24.8526 23.4968 24.1617 22.7341 23.2286 22.7341Z" fill="white"/>
<path d="M32.7713 14.1807C31.9007 14.1807 31.0666 14.9462 31.1069 15.8451C31.1472 16.7469 31.8383 17.5096 32.7713 17.5096C33.642 17.5096 34.4761 16.7441 34.4358 15.8451C34.3954 14.9433 33.7045 14.1807 32.7713 14.1807Z" fill="white"/>
<path d="M32.7713 22.7341C31.9007 22.7341 31.0666 23.4996 31.1069 24.3986C31.1472 25.3004 31.8383 26.0631 32.7713 26.0631C33.642 26.0631 34.4761 25.2976 34.4358 24.3986C34.3954 23.4968 33.7045 22.7341 32.7713 22.7341Z" fill="white"/>
</svg>
