<svg width="191" height="32" fill="none" xmlns="http://www.w3.org/2000/svg"><path d="M31.186 14.236C30.476 6.656 24.238.498 16.58.024 12.238-.213 8.053 1.288 4.895 4.21 1.737 7.13 0 11.315 0 15.657c0 1.421.237 2.842.553 4.263.158.632.631 1.106 1.342 1.263.158.08.316.08.474.08.473 0 .947-.158 1.342-.553.473-.474.631-1.184.473-1.816-.394-1.421-.552-2.842-.394-4.263.552-6 5.684-10.817 11.685-10.975a11.964 11.964 0 018.684 3.395c2.29 2.29 3.632 5.29 3.632 8.527 0 1.105-.158 2.21-.474 3.237-.157.632 0 1.342.474 1.816s1.105.631 1.816.474c.632-.158 1.105-.632 1.342-1.264.237-1.737.395-3.632.237-5.605z" fill="#5454D4"/><path d="M24.712 21.815c-1.342 0-2.921-.316-3.395-1.184-.237-.553 0-1.105.316-1.5 1.026-1.421 1.579-3.08 1.579-4.658 0-4.185-3.395-7.659-7.58-7.659-4.184 0-7.579 3.395-7.579 7.659 0 1.579.553 3.237 1.58 4.658.236.395.552.947.315 1.5-.474.868-2.053 1.184-3.395 1.184A2.662 2.662 0 003.869 24.5c0 1.5 1.184 2.684 2.684 2.684.71 0 1.58-.158 2.448-.395-.158.158-.316.237-.553.395-1.026.79-1.421 1.974-.869 3.158.316.71.869 1.263 1.58 1.5.631.237 1.342.158 1.973-.158 1.737-.947 2.921-2.526 3.79-3.71.237-.316.553-.711.71-.948.237.237.474.632.711.948.869 1.184 1.974 2.763 3.79 3.71.316.158.71.316 1.105.316.316 0 .553-.079.869-.158.71-.237 1.342-.79 1.579-1.5.473-1.184.158-2.447-.869-3.158-.158-.158-.316-.237-.552-.395.868.237 1.736.395 2.447.395 1.5 0 2.684-1.184 2.684-2.684 0-1.5-1.184-2.685-2.684-2.685zM12.238 13.92a.54.54 0 01-.553.553.54.54 0 01-.553-.553v-1.026a.54.54 0 01.553-.553.54.54 0 01.553.553v1.026zm5.053.79c0 .947-.79 1.736-1.816 1.736-.948 0-1.658-.868-1.658-1.815v-1.264c0-.237.236-.473.473-.473h2.527a.51.51 0 01.474.473v1.342zm2.684-.79a.54.54 0 01-.553.553.54.54 0 01-.552-.553v-1.026a.54.54 0 01.552-.553.54.54 0 01.553.553v1.026z" fill="#5454D4"/><path d="M56.214 24.184c-1.579 1.737-3.79 2.605-6.553 2.605s-4.974-.868-6.553-2.605c-1.58-1.737-2.448-4.185-2.448-7.264 0-3.079.79-5.527 2.448-7.263 1.579-1.737 3.79-2.606 6.553-2.606s4.974.869 6.553 2.606c1.579 1.736 2.447 4.184 2.447 7.263 0 3.08-.868 5.527-2.447 7.264zm-2.132-7.264c0-4.105-1.5-6.158-4.421-6.158-2.921 0-4.421 2.053-4.421 6.158 0 4.106 1.5 6.158 4.421 6.158 2.921 0 4.421-2.052 4.421-6.158zM66.478 26.79c-2.29 0-4.027-.632-5.21-1.817-1.185-1.184-1.817-3-1.817-5.29s.553-4.026 1.737-5.29c1.184-1.263 2.842-1.815 4.974-1.815.71 0 1.658.079 2.842.237.474.079.79.237 1.027.552.237.316.394.71.394 1.106v.236c0 .395-.157.632-.473.869a1.197 1.197 0 01-1.027.237c-.71-.158-1.5-.158-2.21-.158-1.027 0-1.737.316-2.21.947-.475.632-.711 1.58-.711 3 0 1.422.236 2.37.79 3 .552.632 1.341.87 2.447.87.79 0 1.579-.08 2.21-.238.395-.079.71 0 .948.237.316.237.394.553.394.869v.237c0 .473-.157.79-.394 1.184-.316.316-.632.552-1.027.631-.79.316-1.737.395-2.684.395zM74.136 16.368c-.395 0-.79-.158-1.026-.395-.316-.316-.474-.632-.474-1.027 0-.394.158-.79.474-1.026.316-.316.631-.474 1.026-.474h1.026c.158 0 .237-.079.237-.236V9.972c0-.394.158-.79.474-1.026.316-.316.632-.474 1.026-.474h1.264c.394 0 .79.158 1.026.474.316.316.474.632.474 1.026v3.238c0 .157.079.236.237.236h2.605c.395 0 .71.158 1.026.474.316.316.395.632.395 1.026 0 .395-.158.711-.395 1.027-.315.316-.631.395-1.026.395H79.9c-.158 0-.237.079-.237.236v4.5c0 1.106.079 1.817.316 2.132.236.316.631.474 1.342.474.395 0 .631 0 .868-.079.395-.079.71 0 1.027.237.315.237.473.553.473.869v.236c0 .474-.158.79-.394 1.185-.316.315-.632.552-1.106.552-.552.08-1.184.08-1.895.08-1.816 0-3.079-.395-3.79-1.106-.71-.79-1.105-2.132-1.105-4.106v-4.974c0-.157-.079-.236-.237-.236h-1.026zM97.427 24.894c-1.184 1.264-2.921 1.895-5.053 1.895-2.21 0-3.868-.631-5.053-1.895-1.184-1.263-1.816-3-1.816-5.21 0-2.211.632-4.027 1.816-5.211 1.185-1.264 2.922-1.895 5.053-1.895 2.21 0 3.869.632 5.053 1.895 1.184 1.263 1.816 3 1.816 5.21 0 2.29-.631 4.027-1.816 5.211zm-3.079-8.368c-.395-.632-1.105-.948-1.974-.948-.868 0-1.5.316-1.974.948-.394.631-.631 1.736-.631 3.157 0 1.422.237 2.527.631 3.159.395.631 1.106.947 1.974.947.869 0 1.5-.316 1.974-.947.395-.632.632-1.737.632-3.159 0-1.42-.237-2.526-.632-3.157zM107.375 26.79c-2.289 0-4.026-.632-5.211-1.817-1.184-1.184-1.816-3-1.816-5.29s.553-4.026 1.737-5.29c1.185-1.184 2.843-1.815 4.974-1.815.711 0 1.658.079 2.843.237.473.079.789.237 1.026.552.237.316.395.71.395 1.106v.236c0 .395-.158.632-.474.869-.316.237-.632.316-1.026.237-.711-.158-1.5-.158-2.211-.158-1.026 0-1.737.316-2.211.947-.473.632-.71 1.58-.71 3 0 1.422.237 2.37.789 3 .553.632 1.342.87 2.448.87.789 0 1.579-.08 2.21-.238.395-.079.711 0 .948.237.316.237.395.553.395.869v.237c0 .473-.158.79-.395 1.184-.316.316-.632.552-1.026.631-.869.316-1.737.395-2.685.395zM116.376 26.552c-.395 0-.79-.158-1.027-.473-.316-.316-.474-.632-.474-1.027V8.314c0-.394.158-.79.474-1.026.316-.316.632-.474 1.027-.474h1.5c.394 0 .789.158 1.026.474.316.316.474.632.474 1.026v16.738c0 .395-.158.79-.474 1.027-.316.315-.632.473-1.026.473h-1.5zM129.166 26.79c-2.369 0-4.185-.632-5.527-1.817-1.342-1.184-1.895-3-1.895-5.29s.553-4.026 1.737-5.29c1.185-1.263 2.843-1.815 4.974-1.815 4.185 0 6.317 2.29 6.395 6.869 0 .394-.157.79-.473 1.026-.316.316-.711.395-1.106.395h-7.026c-.158 0-.237.079-.237.237.158.947.474 1.658 1.105 2.052.632.395 1.5.632 2.685.632.789 0 1.658-.079 2.526-.316.395-.079.711 0 .947.237.316.237.395.553.395.869v.078c0 .474-.158.869-.395 1.185-.236.395-.631.553-1.026.631-.868.237-1.974.316-3.079.316zm-.632-11.29c-.789 0-1.421.236-1.816.63-.394.396-.631 1.106-.789 2.132 0 .158.079.237.158.237h4.421c.158 0 .237-.079.237-.237.079-1.895-.711-2.763-2.211-2.763zM140.219 26.79c-1.184 0-2.211-.396-3-1.185-.79-.79-1.184-1.816-1.184-3 0-3.158 2.368-4.816 7.105-4.816h.948c.158 0 .237-.08.237-.237v-.158c0-.632-.158-1.184-.474-1.421-.316-.316-.947-.474-1.737-.474-1.105 0-2.369.158-3.869.474-.394.079-.71 0-.947-.237-.316-.237-.395-.553-.395-.869v-.079c0-.473.158-.868.395-1.184.237-.395.632-.553 1.026-.631 1.579-.316 2.843-.474 4.027-.474 2.289 0 3.947.394 4.895 1.263.947.79 1.421 2.21 1.421 4.105v7.106c0 .395-.158.79-.474 1.027-.315.315-.631.473-1.026.473h-.947c-.395 0-.79-.158-1.106-.394-.316-.316-.474-.632-.474-1.027v-.316h-.078c-1.185 1.343-2.606 2.053-4.343 2.053zm2.921-6.475c-2.131 0-3.237.632-3.237 1.974 0 .474.158.868.395 1.105.237.237.632.395 1.105.395.869 0 1.501-.237 2.053-.79.553-.552.79-1.263.79-2.131v-.316c0-.158-.079-.237-.237-.237h-.869zM152.615 26.552c-.395 0-.711-.158-1.027-.473-.315-.316-.394-.632-.394-1.027V14.394c0-.395.158-.79.394-1.027.316-.316.632-.474 1.027-.474h1.105c.395 0 .79.158 1.026.395.316.316.474.632.474 1.027v.237l.079-.08c1.105-1.263 2.527-1.973 4.106-1.973 1.579 0 2.763.473 3.474 1.342.71.868 1.026 2.447 1.026 4.58v6.473c0 .395-.158.79-.395 1.027-.316.316-.631.473-1.026.473H161.3c-.395 0-.79-.157-1.027-.473-.316-.316-.474-.632-.474-1.027v-6.316c0-1.026-.158-1.737-.394-2.132-.316-.394-.79-.552-1.5-.552-.632 0-1.185.237-1.658.71-.553.474-.79 1.027-.79 1.58v6.71c0 .395-.158.79-.395 1.027-.316.316-.631.473-1.026.473h-1.421v.158zM172.984 26.79c-2.368 0-4.184-.632-5.526-1.817-1.342-1.184-1.895-3-1.895-5.29s.553-4.026 1.737-5.29c1.184-1.184 2.842-1.815 4.974-1.815 4.184 0 6.316 2.29 6.395 6.869 0 .394-.158.79-.474 1.026-.315.237-.71.395-1.105.395h-7.027c-.158 0-.237.079-.237.237.158.947.474 1.658 1.106 2.052.631.395 1.5.632 2.684.632.79 0 1.658-.079 2.527-.316.394-.079.71 0 .947.237.316.237.395.553.395.869v.078c0 .474-.158.869-.395 1.185-.237.395-.632.553-1.026.631-.948.237-1.974.316-3.08.316zm-.631-11.29c-.79 0-1.421.236-1.816.63-.395.396-.632 1.106-.79 2.132 0 .158.079.237.158.237h4.422c.158 0 .237-.079.237-.237 0-1.895-.711-2.763-2.211-2.763zM181.985 26.552c-.395 0-.71-.157-1.026-.473-.316-.316-.395-.632-.395-1.027V14.394c0-.395.158-.79.395-1.027.316-.316.631-.473 1.026-.473h1.263c.395 0 .711.158 1.027.473.316.316.394.632.394 1.027v1.105h.079c1.106-1.421 2.606-2.29 4.58-2.526.394-.08.71.079 1.026.394.316.316.395.632.395 1.106v.236c0 .395-.158.79-.395 1.027-.316.316-.632.474-1.026.474-1.421.157-2.527.631-3.316 1.42-.79.79-1.185 1.896-1.185 3.159v4.263c0 .395-.158.79-.394 1.027-.316.316-.632.473-1.027.473h-1.421z" fill="black"/></svg>