<svg width="56" height="56" viewBox="0 0 56 56" fill="none" xmlns="http://www.w3.org/2000/svg">
<path d="M40.2867 41.7953H36.9612V41.1717C36.9612 40.2656 36.2267 39.531 35.3206 39.531H32.362V4.36287C32.3621 1.95716 30.4051 0 27.9991 0C25.5933 0 23.6361 1.95716 23.6361 4.36287V39.531H20.6775C19.7715 39.531 19.0369 40.2656 19.0369 41.1717V41.7953H15.7115C12.6915 41.7953 10.2346 44.2522 10.2346 47.2722V54.3594C10.2346 55.2654 10.9692 56 11.8752 56H44.123C45.0291 56 45.7636 55.2654 45.7636 54.3594V47.2722C45.7635 44.2522 43.3067 41.7953 40.2867 41.7953ZM26.9176 4.36287C26.9176 3.76644 27.4029 3.28126 27.9993 3.28126C28.5958 3.28126 29.0808 3.76644 29.0808 4.36287V7.92084H26.9176V4.36287ZM26.9175 11.2021H29.0807V39.531H26.9175V11.2021ZM22.3182 42.8123H33.68V45.6797H22.3182V42.8123ZM42.4823 52.7187H13.516V47.2722C13.516 46.0615 14.5009 45.0766 15.7116 45.0766H19.037V47.3203C19.037 48.2264 19.7716 48.9609 20.6777 48.9609H35.3207C36.2268 48.9609 36.9613 48.2264 36.9613 47.3203V45.0766H40.2868C41.4974 45.0766 42.4824 46.0615 42.4824 47.2722V52.7187H42.4823Z" fill="white"/>
</svg>
