<svg width="32" height="32" fill="none" xmlns="http://www.w3.org/2000/svg"><g clip-path="url(#clip0)"><g clip-path="url(#clip1)" fill="white"><path d="M27.975 7.394h-3.463A8.63 8.63 0 0015.975.05a8.624 8.624 0 00-8.531 7.344H3.98c-.844 0-1.531.687-1.531 1.53V30.47c0 .843.687 1.53 1.531 1.53h11.775c.844 0 1.532-.687 1.532-1.53 0-.844-.688-1.532-1.532-1.532H5.506v-18.48h1.838v3.368c0 .844.687 1.531 1.53 1.531.845 0 1.532-.687 1.532-1.531v-3.369h11.138v3.369c0 .844.687 1.531 1.53 1.531.845 0 1.532-.687 1.532-1.531v-3.369h1.838v7.163c0 .843.687 1.53 1.53 1.53.845 0 1.532-.687 1.532-1.53V8.925c0-.844-.687-1.531-1.531-1.531zm-15.606-2.95a5.546 5.546 0 013.612-1.332A5.57 5.57 0 0121.4 7.393H10.556a5.628 5.628 0 011.813-2.95z"/><path d="M29.75 26.625c0 .988-.8 1.794-1.794 1.794h-1.793v1.794a1.794 1.794 0 01-3.588 0v-1.794h-1.794a1.794 1.794 0 010-3.588h1.794v-1.793a1.794 1.794 0 113.588 0v1.793h1.793c.994 0 1.794.807 1.794 1.794z"/></g></g><defs><clipPath id="clip0"><path fill="white" d="M0 0h32v32H0z"/></clipPath><clipPath id="clip1"><path fill="white" d="M0 0h32v32H0z"/></clipPath></defs></svg>
