<svg width="56" height="56" viewBox="0 0 56 56" fill="none" xmlns="http://www.w3.org/2000/svg">
<path d="M50.8781 26.1253L49.0037 24.2509V1.74998C49.0037 0.783552 48.2203 0 47.2537 0H1.75437C0.787946 0 0.00439453 0.783552 0.00439453 1.74998V50.7493C0.00439453 51.7157 0.787946 52.4993 1.75437 52.4993H28.0003C34.7282 57.569 44.5302 57.2214 50.8781 50.8737C57.7012 44.0505 57.7012 32.9484 50.8781 26.1253ZM3.50435 3.49995H45.5038V20.751L44.0722 19.3194C41.8356 17.0828 37.8176 17.7336 36.4445 21.591L30.6926 15.8393C28.3695 13.5162 24.5128 14.1657 23.0261 17.0094C21.1749 15.852 18.616 16.0569 16.9739 17.8059C15.442 19.4375 15.309 21.8399 16.4055 23.6322C13.8709 24.9544 13.1183 28.0986 14.5493 30.4381C11.6268 31.9628 11.1144 35.8588 13.414 38.1581L24.2553 48.9993H3.50435V3.49995ZM48.4033 48.3989C42.9228 53.8794 34.0656 53.8601 28.6045 48.3989L15.8889 35.6832C15.3681 35.1624 15.3342 34.3235 15.8134 33.8131C16.3252 33.2679 17.1772 33.26 17.6993 33.7813L24.8923 40.9744C25.5757 41.6577 26.6838 41.6577 27.3671 40.9744C28.0506 40.2909 28.0506 39.1829 27.3671 38.4995C25.6141 36.7464 18.9068 30.0391 17.7451 28.8774C16.9019 28.0343 17.4256 26.6105 18.6077 26.5919C18.9553 26.5879 19.2792 26.7091 19.5565 26.9766L29.2234 36.6435C29.5651 36.9853 30.013 37.1561 30.4608 37.1561C32.0057 37.1561 32.804 35.2744 31.6981 34.1688C29.3656 31.8363 33.6664 36.1373 19.6012 22.0718C19.0803 21.551 19.0464 20.7121 19.5256 20.2017C20.0379 19.6562 20.8909 19.6492 21.4122 20.1704C45.6542 44.4124 24.63 23.3881 33.5544 32.3125C34.2376 32.9959 35.3458 32.996 36.0292 32.3125C36.7127 31.6292 36.7127 30.5211 36.0292 29.8377L26.3624 20.171C25.8662 19.6925 25.834 18.8421 26.3619 18.3143C26.8739 17.8025 27.7064 17.8026 28.2181 18.3143C41.2938 31.39 26.9217 17.0176 42.2163 32.3125C42.558 32.6543 43.0058 32.8252 43.4537 32.8252C44.9988 32.8252 45.7967 30.9433 44.691 29.8379C44.4194 29.5663 40.0839 25.2306 40.3601 25.5068C39.3343 24.4812 39.3339 22.8206 40.3602 21.7945C40.6843 21.4702 41.2371 21.4344 41.5975 21.7945C48.4251 28.6222 47.5469 27.7439 48.4034 28.6004C53.8618 34.0586 53.8618 42.9404 48.4033 48.3989Z" fill="white"/>
</svg>
